<?xml version="1.0" encoding="UTF-8" standalone="no"?>
<!-- Created with Inkscape (http://www.inkscape.org/) -->

<svg
   version="1.1"
   id="svg2"
   width="205.9229"
   height="126.12924"
   viewBox="0 0 205.9229 126.12924"
   sodipodi:docname="angel-demon.svg"
   inkscape:version="1.2.2 (b0a8486541, 2022-12-01)"
   inkscape:export-filename="logo.png"
   inkscape:export-xdpi="300"
   inkscape:export-ydpi="300"
   xmlns:inkscape="http://www.inkscape.org/namespaces/inkscape"
   xmlns:sodipodi="http://sodipodi.sourceforge.net/DTD/sodipodi-0.dtd"
   xmlns="http://www.w3.org/2000/svg"
   xmlns:svg="http://www.w3.org/2000/svg">
  <defs
     id="defs6" />
  <sodipodi:namedview
     id="namedview4"
     pagecolor="#ffffff"
     bordercolor="#666666"
     borderopacity="1.0"
     inkscape:showpageshadow="2"
     inkscape:pageopacity="0.0"
     inkscape:pagecheckerboard="0"
     inkscape:deskcolor="#d1d1d1"
     showgrid="false"
     inkscape:zoom="2.4722548"
     inkscape:cx="105.97613"
     inkscape:cy="93.639216"
     inkscape:window-width="1680"
     inkscape:window-height="975"
     inkscape:window-x="0"
     inkscape:window-y="0"
     inkscape:window-maximized="1"
     inkscape:current-layer="g8" />
  <g
     inkscape:groupmode="layer"
     inkscape:label="Image"
     id="g8"
     transform="translate(-30.474398,-69.307795)">
    <path
       style="fill:#477375;fill-opacity:1"
       d="m 125.75308,195.37717 c -6.02522,-0.18484 -9.74537,-0.73006 -10.23469,-1.5 -0.42281,-0.66529 -0.77564,-3.06702 -0.78406,-5.33718 -0.0319,-8.59571 -5.71164,-7.5664 -6.22187,1.12756 l -0.29344,5 -36.422083,0.26266 c -36.25823,0.26147 -36.43255,0.25281 -38.75,-1.92432 -2.30241,-2.163 -2.32792,-2.43163 -2.32792,-24.51265 v -22.32569 h 2.34501 c 4.90567,0 7.56508,-6.98316 3.90499,-10.25384 -0.9625,-0.86009 -2.79128,-1.71734 -4.06395,-1.90498 -2.24508,-0.33103 -2.31715,-0.65937 -2.42149,-11.03209 -0.0736,-7.31204 0.29377,-11.17444 1.16221,-12.22085 0.99223,-1.19557 4.03486,-1.59096 13.92149,-1.8091 l 12.65174,-0.27914 3.02704,4 c 4.22214,5.57923 8.72939,7.72817 14.97296,7.1387 2.75,-0.25963 5.9,-0.75505 7,-1.10093 1.83609,-0.57732 2.00792,-0.15223 2.09661,5.18688 0.0531,3.19866 0.66327,7.53276 1.35586,9.63132 1.45547,4.41013 6.17484,10.14139 9.96465,12.10117 1.78499,0.92306 3.22026,3.05843 4.502603,6.69892 4.20956,11.95065 8.10596,16.99056 16.00673,20.70436 7.26272,3.41388 9.81634,2.60098 2.81686,-0.8967 -8.30644,-4.15078 -12.29375,-8.8783 -15.67114,-18.58037 -2.52228,-7.24563 -3.22049,-8.28333 -7.317313,-10.87518 -6.72947,-4.25738 -9.56976,-10.99486 -9.10465,-21.59725 0.33253,-7.5799 0.23116,-8.03357 -2.05381,-9.19217 -3.88738,-1.9711 -6.33696,-6.16688 -6.87609,-11.77774 l -0.50042,-5.20798 3.0759,2.27411 c 3.12067,2.30721 11.60722,3.81966 14.72323,2.62393 1.44854,-0.55585 1.42848,-0.91242 -0.20782,-3.69224 -2.58634,-4.39381 -7.20867,-6.93883 -12.60251,-6.93883 -11.41179,0 -16.39133,14.04058 -7.60236,21.43602 1.6763,1.41051 4.13813,2.83822 5.47074,3.17268 3.29688,0.82746 3.04282,1.97956 -0.72629,3.29347 -6.73574,2.34809 -12.45547,0.73321 -17.14573,-4.84085 -3.73062,-4.43359 -5.0222,-9.38466 -4.46817,-17.12797 1.15016,-16.07495 14.16731,-26.82346 31.14216,-25.71466 10.186593,0.66538 19.309443,5.88434 25.862723,14.79541 l 2.93126,3.9859 10.16349,0.008 c 20.22308,0.015 30.77693,3.39951 37.62803,12.0668 2.11793,2.67938 4.11733,5.44627 4.44312,6.14863 0.47122,1.01589 0.71823,1.0016 1.20797,-0.0699 1.32735,-2.904 6.86106,-8.34583 10.77152,-10.59267 2.26207,-1.29972 8.98331,-3.54298 14.93609,-4.98503 13.44123,-3.25612 21.23828,-6.7587 29.93774,-13.44861 l 6.76099,-5.19921 1.06235,2.78621 c 2.2443,5.88606 -2.16235,19.65182 -8.33463,26.03621 l -3.14202,3.25 h 2.63715 c 3.55689,0 4.19317,1.41566 2.32207,5.16637 -1.13316,2.27144 -1.56689,6.14327 -1.56689,13.98724 0,10.71162 -0.0291,10.84636 -2.34501,10.84636 -4.82143,0 -7.54829,6.96384 -4.08356,10.42857 0.86428,0.86429 2.66428,1.57143 4,1.57143 h 2.42857 v 21.04966 c 0,16.91242 -0.29987,21.62954 -1.52568,24 -0.83912,1.62269 -1.62662,3.04903 -1.75,3.16965 -0.40682,0.39774 -89.02071,1.28694 -98.69026,0.99031 z m -74.034063,-7.20962 c 0,-4.66667 -0.16667,-5 -2.5,-5 -2.33333,0 -2.5,0.33333 -2.5,5 0,4.66667 0.16667,5 2.5,5 2.33333,0 2.5,-0.33333 2.5,-5 z m 8.76923,0 c 0,-4.60215 -0.18974,-5 -2.38462,-5 -2.19487,0 -2.38461,0.39785 -2.38461,5 0,4.60215 0.18974,5 2.38461,5 2.19488,0 2.38462,-0.39785 2.38462,-5 z m 8.23077,0 c 0,-4.66667 -0.16667,-5 -2.5,-5 -2.33333,0 -2.5,0.33333 -2.5,5 0,4.66667 0.16667,5 2.5,5 2.33333,0 2.5,-0.33333 2.5,-5 z m 8,0 c 0,-4.66667 -0.16667,-5 -2.5,-5 -2.33333,0 -2.5,0.33333 -2.5,5 0,4.66667 0.16667,5 2.5,5 2.33333,0 2.5,-0.33333 2.5,-5 z m 9,0 c 0,-4.66667 -0.16667,-5 -2.5,-5 -2.33333,0 -2.5,0.33333 -2.5,5 0,4.66667 0.16667,5 2.5,5 2.33333,0 2.5,-0.33333 2.5,-5 z m 8,0 c 0,-4.66667 -0.16667,-5 -2.5,-5 -2.33333,0 -2.5,0.33333 -2.5,5 0,4.66667 0.16667,5 2.5,5 2.33333,0 2.5,-0.33333 2.5,-5 z m 8.000003,0 c 0,-4.66667 -0.16667,-5 -2.500003,-5 -2.33333,0 -2.5,0.33333 -2.5,5 0,4.66667 0.16667,5 2.5,5 2.333333,0 2.500003,-0.33333 2.500003,-5 z m 26,0 c 0,-4.66667 -0.16667,-5 -2.5,-5 -2.33333,0 -2.5,0.33333 -2.5,5 0,4.66667 0.16667,5 2.5,5 2.33333,0 2.5,-0.33333 2.5,-5 z m 8,0 c 0,-4.66667 -0.16667,-5 -2.5,-5 -2.33333,0 -2.5,0.33333 -2.5,5 0,4.66667 0.16667,5 2.5,5 2.33333,0 2.5,-0.33333 2.5,-5 z m 8,0 c 0,-4.66667 -0.16667,-5 -2.5,-5 -2.33333,0 -2.5,0.33333 -2.5,5 0,4.66667 0.16667,5 2.5,5 2.33333,0 2.5,-0.33333 2.5,-5 z m 9,0 c 0,-4.66667 -0.16667,-5 -2.5,-5 -2.33333,0 -2.5,0.33333 -2.5,5 0,4.66667 0.16667,5 2.5,5 2.33333,0 2.5,-0.33333 2.5,-5 z m 8,0 c 0,-4.66667 -0.16667,-5 -2.5,-5 -2.33333,0 -2.5,0.33333 -2.5,5 0,4.66667 0.16667,5 2.5,5 2.33333,0 2.5,-0.33333 2.5,-5 z m 8,-0.0695 c 0,-4.68533 -0.17053,-5.04533 -2.25,-4.75 -1.92008,0.27269 -2.29469,1.01606 -2.55479,5.06955 -0.28918,4.5067 -0.17393,4.75 2.25,4.75 2.40375,-5e-5 2.55479,-0.29975 2.55479,-5.0696 z m 9,0.0695 c 0,-4.66667 -0.16667,-5 -2.5,-5 -2.33333,0 -2.5,0.33333 -2.5,5 0,4.66667 0.16667,5 2.5,5 2.33333,0 2.5,-0.33333 2.5,-5 z m 8,0 c 0,-4.66667 -0.16667,-5 -2.5,-5 -2.33333,0 -2.5,0.33333 -2.5,5 0,4.66667 0.16667,5 2.5,5 2.33333,0 2.5,-0.33333 2.5,-5 z m 8,0 c 0,-4.24883 -0.28597,-5 -1.90349,-5 -1.57135,0 -1.96395,0.87254 -2.25,5.00062 -0.32027,4.62198 -0.17614,5.00058 1.90349,5 2.03325,-5.6e-4 2.25,-0.48229 2.25,-5.00062 z m 9,0 c 0,-4.66667 -0.16667,-5 -2.5,-5 -2.33333,0 -2.5,0.33333 -2.5,5 0,4.66667 0.16667,5 2.5,5 2.33333,0 2.5,-0.33333 2.5,-5 z m 8,0 c 0,-4.66667 -0.16667,-5 -2.5,-5 -2.33333,0 -2.5,0.33333 -2.5,5 0,4.66667 0.16667,5 2.5,5 2.33333,0 2.5,-0.33333 2.5,-5 z M 39.521887,185.53461 c 0.16768,-1.16952 -0.35766,-2.36598 -1.17689,-2.68034 -1.90368,-0.73052 -4.03173,1.81354 -3.24088,3.87445 0.85254,2.22169 4.05204,1.35687 4.41777,-1.19411 z m 183.160783,1.17674 c 1.49914,-1.80636 0.53641,-3.5438 -1.96365,-3.5438 -2.24793,0 -3.38867,1.54475 -2.62,3.54789 0.71592,1.86564 3.03363,1.86357 4.58365,-0.004 z m -41.95693,-12.55052 c 1.87749,-1.87749 2.03174,-3.07337 1.77474,-13.75938 l -0.28146,-11.70317 -3.58745,-0.58153 c -1.9731,-0.31983 -5.03651,-1.61334 -6.80758,-2.87445 -1.77106,-1.26111 -3.32306,-2.13134 -3.44887,-1.93384 -5.40309,8.48164 -8.37466,12.38839 -12.96104,17.03998 -5.54079,5.61957 -16.60091,13.81911 -18.64019,13.81911 -0.58018,0 -1.05487,0.41084 -1.05487,0.91297 0,0.51881 9.27151,0.96122 21.47526,1.02474 20.4166,0.10626 21.57662,0.0104 23.53146,-1.94443 z m -44.00672,-5.36857 c 11.5865,-6.58576 22.58712,-18.45327 28.38764,-30.62471 2.78738,-5.84886 3.09843,-7.45167 3.10503,-16 0.006,-8.15935 -0.34399,-10.18791 -2.48215,-14.3746 -4.76582,-9.33184 -12.34568,-13.3157 -27.26052,-14.32773 l -8.75,-0.59371 v 27.27302 27.27302 l 3.25,-0.63865 c 1.7875,-0.35126 4.5315,-1.57851 6.09777,-2.72723 3.38032,-2.47914 5.50484,-1.34575 3.72195,1.9856 -1.38032,2.57916 -4.49163,4.32197 -9.06972,5.08045 l -3.5,0.57986 -0.28478,10.21695 c -0.31777,11.4001 -0.62451,11.08916 6.78478,6.87773 z m 4.25,-43.11558 c -4.1647,-1.81015 -4.5811,-5.10088 -0.5,-3.95136 4.35028,1.22534 7.27022,0.8034 10.38701,-1.50094 2.49666,-1.84587 2.97587,-1.92625 3.49037,-0.58549 0.72776,1.89653 -1.05463,4.18112 -4.75489,6.0946 -3.38977,1.75292 -4.47522,1.74577 -8.62249,-0.0568 z m -16.125,35.49087 c 1.03125,0 1.875,-0.45 1.875,-1 0,-1.58837 -6.42082,-1.15945 -8.55887,0.57175 -1.83733,1.4877 -1.76066,1.54118 1.43387,1 1.85625,-0.31446 4.21875,-0.57175 5.25,-0.57175 z m 0.50071,-13.53299 c -0.68749,-1.79157 -4.62571,-1.96537 -4.62571,-0.20414 0,1.45511 4.32686,3.65612 4.84433,2.46425 0.18938,-0.43621 0.091,-1.45325 -0.21862,-2.26011 z m 58.37429,-4.05928 c 0,-0.32575 -0.9,-1.73644 -2,-3.13486 -3.3842,-4.30231 -2.59272,-5.44413 2.25,-3.24594 6.02794,2.73618 13.75,2.51726 13.75,-0.38981 0,-0.63189 -1.2375,-1.69799 -2.75,-2.36911 -1.5125,-0.67111 -3.34088,-2.17029 -4.06306,-3.33151 -1.22471,-1.96925 -1.15742,-2.05496 1,-1.2739 1.27218,0.46057 5.08994,0.8374 8.4839,0.8374 5.1375,0 6.59834,-0.40183 8.72373,-2.39963 l 2.55289,-2.39964 -4.85119,-2.24759 c -6.94183,-3.21619 -7.25381,-4.45314 -1.12317,-4.45314 5.90178,0 10.2074,-1.58431 14.7769,-5.43736 4.2977,-3.62386 4.23326,-5.56264 -0.1849,-5.56264 -1.8892,0 -4.7017,-0.48571 -6.25,-1.07935 l -2.8151,-1.07934 3.9869,-1.94903 c 7.59852,-3.7146 15.5131,-13.72257 15.5131,-19.61627 0,-1.93119 -0.75174,-1.71449 -9.75,2.81068 -5.89698,2.96555 -14.11342,6.03801 -20.79157,7.7748 -6.07286,1.57937 -12.37286,3.56647 -14,4.41577 -7.14852,3.73125 -12.39996,12.77758 -12.43647,21.42352 -0.0121,2.86043 -0.52034,7.52462 -1.12946,10.36487 -1.27873,5.9625 -0.3732,8.55078 3.92417,11.21658 2.59836,1.61184 7.18333,2.33022 7.18333,1.1255 z m -67.65406,-17.67142 c 1.55148,-1.13447 1.09815,-1.74619 -4.43327,-5.98213 -6.39765,-4.8993 -7.91267,-5.17074 -7.91267,-1.41767 0,5.96318 7.86433,10.67683 12.34594,7.3998 z M 54.589607,101.53107 c -5.51987,-6.31295 -7.08392,-17.5402 -3.39405,-24.36352 l 1.8927,-3.5 0.7127,3.36548 c 0.39198,1.85101 1.6952,4.69438 2.89604,6.31861 1.37953,1.86592 1.91847,3.57214 1.46389,4.63452 -0.3957,0.92476 -0.9945,4.76997 -1.33066,8.54491 -0.57552,6.46272 -0.70636,6.7547 -2.24062,5 z M 143.21902,85.53691 c -5.93475,-1.48276 -8.61599,-2.71758 -9.50409,-4.377 -2.51836,-4.7056 2.15914,-7.50548 15.22021,-9.1106 10.25202,-1.25989 25.53702,-0.0944 30.46038,2.32265 3.66633,1.79993 5.10464,4.32656 3.72614,6.54559 -2.37372,3.82109 -6.3259,4.68674 -22.40264,4.90684 -8.525,0.11672 -16.4,-0.0126 -17.5,-0.28748 z m 33.79226,-4.82606 c 0.98575,-0.43434 1.63143,-1.27224 1.43484,-1.86199 -0.6769,-2.03072 -6.26077,-2.89661 -19.2271,-2.98155 -17.8294,-0.11679 -26.29976,2.46673 -17.20077,5.24637 3.66279,1.11893 32.28721,0.78942 34.99303,-0.40283 z"
       id="path185" />
  </g>
</svg>
