<?xml version="1.0" encoding="UTF-8" standalone="no"?>
<!-- Created with Inkscape (http://www.inkscape.org/) -->

<svg
   version="1.1"
   id="svg2"
   width="778.99628"
   height="716.74719"
   viewBox="0 0 778.99628 716.74719"
   sodipodi:docname="logo-transparent.svg"
   inkscape:version="1.2.2 (b0a8486541, 2022-12-01)"
   inkscape:export-filename="logo.png"
   inkscape:export-xdpi="300"
   inkscape:export-ydpi="300"
   xmlns:inkscape="http://www.inkscape.org/namespaces/inkscape"
   xmlns:sodipodi="http://sodipodi.sourceforge.net/DTD/sodipodi-0.dtd"
   xmlns="http://www.w3.org/2000/svg"
   xmlns:svg="http://www.w3.org/2000/svg">
  <defs
     id="defs6" />
  <sodipodi:namedview
     id="namedview4"
     pagecolor="#ffffff"
     bordercolor="#666666"
     borderopacity="1.0"
     inkscape:showpageshadow="2"
     inkscape:pageopacity="0.0"
     inkscape:pagecheckerboard="0"
     inkscape:deskcolor="#d1d1d1"
     showgrid="false"
     inkscape:zoom="0.46918362"
     inkscape:cx="153.45804"
     inkscape:cy="414.54985"
     inkscape:window-width="1680"
     inkscape:window-height="975"
     inkscape:window-x="0"
     inkscape:window-y="0"
     inkscape:window-maximized="1"
     inkscape:current-layer="g8" />
  <g
     inkscape:groupmode="layer"
     inkscape:label="Image"
     id="g8"
     transform="translate(-851.45102,-240.40606)">
    <path
       style="fill:#000000"
       d="m 1437.451,954.58508 c -4.675,-1.37229 -16.825,-5.13503 -27,-8.36164 -23.9892,-7.60724 -136.5683,-42.74107 -172,-53.67794 -15.125,-4.66872 -28.8341,-9.26282 -30.4646,-10.20912 -5.4313,-3.15215 -6.4029,-6.23962 -7.1461,-22.70828 -0.7602,-16.84626 -0.1688,-19.24674 5.8597,-23.7861 1.7881,-1.34639 14.951,-8.33265 29.251,-15.52503 14.3,-7.19237 32.512,-16.4727 40.4711,-20.62295 l 14.4711,-7.5459 9.0289,0.64345 c 4.9659,0.3539 12.5285,0.92506 16.8057,1.26925 l 7.7768,0.62578 -15.7768,8.42297 c -20.5526,10.97268 -47.0408,25.78886 -50.5268,28.26212 -3.2839,2.3299 -3.6667,6.25395 -0.7617,7.80865 3.0261,1.61949 11.7963,4.17702 44.0117,12.8344 53.7896,14.45511 100.2693,27.11986 118.5,32.28877 30.5229,8.65408 33.2893,8.06885 58.1676,-12.30552 8.3422,-6.83192 26.7249,-21.39686 40.8504,-32.36654 67.1183,-52.12329 66.9683,-52.00134 67.2924,-54.71794 0.436,-3.65484 -2.3812,-5.19746 -14.8359,-8.12372 -21.7697,-5.11485 -63.6939,-12.59743 -70.6024,-12.60104 -2.2703,-10e-4 -5.8703,0.72228 -8,1.60769 -4.9009,2.03758 -22.7583,10.17704 -36.2347,16.51591 -5.6994,2.68084 -10.521,4.87425 -10.7146,4.87425 -0.1936,0 -4.9279,2.25 -10.5206,5 -10.9713,5.39463 -11.6496,5.64467 -10.1727,3.75 0.5359,-0.6875 6.9449,-14.75 14.2422,-31.25 7.2973,-16.5 14.9888,-33.375 17.0922,-37.5 l 3.8244,-7.5 -0.545,10 c -0.5884,10.79692 -3.2121,25.68743 -6.2407,35.41815 -1.0411,3.34502 -1.8012,6.08185 -1.6891,6.08185 0.5877,0 16.7598,-6.1167 20.906,-7.90723 2.6507,-1.14469 11.791,-5.93697 20.3118,-10.64952 l 15.4923,-8.56826 11.1882,2.11364 c 6.1535,1.16251 21.9882,4.32645 35.1882,7.03098 13.2,2.70453 33,6.56335 44,8.57515 31.5886,5.77725 31.4908,5.67914 31.4963,31.60819 0,11.41936 -0.4126,18.61663 -1.1691,20.27711 -0.6451,1.41578 -8.1826,8.59202 -16.75,15.94719 -31.3013,26.87223 -55.0818,47.35714 -69.1568,59.57275 -52.7877,45.81402 -72.7761,62.41233 -78.4204,65.12006 -7.7278,3.70725 -15.5491,3.78644 -27.5,0.27842 z m -39.2886,-46.37824 c 3.3962,-2.43199 5.0192,-4.14889 4.1732,-4.41463 -0.7615,-0.23917 -3.6022,-1.14828 -6.3127,-2.02024 -2.7105,-0.87195 -5.6026,-1.58537 -6.4268,-1.58537 -1.9384,0 -12.624,7.34036 -11.3189,7.77539 1.007,0.33567 13.4032,4.00846 14.0007,4.14818 0.1797,0.042 2.8278,-1.71446 5.8845,-3.90333 z m -33.7019,-9.7214 c 5.5951,-4.17711 5.4794,-4.40305 -3.5011,-6.83393 l -6.0313,-1.63261 -5.1803,3.33385 c -2.8491,1.83362 -5.2065,3.58816 -5.2385,3.89899 -0.048,0.46811 11.6393,4.42848 14.2177,4.81772 0.4268,0.0644 3.0069,-1.54838 5.7335,-3.58402 z m 138.0351,-6.25627 5.9569,-4.95743 -6.8585,-2.04257 c -3.7722,-1.12341 -7.4233,-2.04257 -8.1135,-2.04257 -2.1041,0 -13.3513,8.94567 -11.8727,9.44316 1.6429,0.55277 14.2278,4.42243 14.637,4.50067 0.1616,0.0309 2.9745,-2.17467 6.2508,-4.90126 z m -170.2385,-9.05267 c -0.7183,-0.35883 -4.1031,-1.46991 -7.5217,-2.46907 l -6.2156,-1.81666 -4.9422,3.39792 c -2.7183,1.86885 -4.7476,3.59658 -4.5096,3.8394 0.238,0.24282 3.459,1.39655 7.1578,2.56384 l 6.7252,2.12236 5.3061,-3.49269 c 3.4839,-2.29321 4.8576,-3.71674 4,-4.1451 z m -37.4708,-6.42311 4.8289,-3.43321 -6.8321,-1.99953 c -3.7576,-1.09974 -7.5071,-2.13896 -8.3321,-2.30937 -0.825,-0.17042 -3.6712,1.24981 -6.3249,3.15606 l -4.8249,3.4659 6.3249,2.1986 c 8.5284,2.96456 9.5787,2.88985 15.1602,-1.07845 z m 236.0182,-8.32175 5.8535,-4.74504 -6.8535,-2.10597 c -7.5962,-2.3342 -7.7171,-2.30537 -14.6504,3.49233 l -4.797,4.01127 4.297,1.10505 c 2.3633,0.60778 5.4219,1.49529 6.7969,1.97224 1.375,0.47695 2.725,0.90048 3,0.94117 0.275,0.0407 3.1341,-2.06128 6.3535,-4.67105 z m -272.5856,-2.88512 c 2.9069,-2.00205 5.1608,-3.75546 5.0087,-3.89646 -0.1521,-0.14101 -3.962,-1.38321 -8.4664,-2.76045 l -8.1899,-2.50407 -5.0601,3.5423 c -2.7831,1.94827 -5.0574,3.81601 -5.054,4.15053 0.01,0.6505 12.4925,4.81545 14.9852,4.99863 0.8202,0.0603 3.8697,-1.52844 6.7765,-3.53048 z m 299.8412,-19.60992 5.4587,-4.25 -7.1925,-2.21037 -7.1924,-2.21036 -4.8815,4.087 c -2.6848,2.24785 -4.6017,4.36751 -4.2598,4.71036 0.3419,0.34286 3.1724,1.35767 6.29,2.25516 3.1176,0.89748 5.8148,1.68498 5.9936,1.75 0.1789,0.065 2.7816,-1.79429 5.7839,-4.13179 z m 24.4746,-20.5 5.0317,-3.75 -4.236,-1.23813 c -9.153,-2.67535 -10.0352,-2.57404 -14.7005,1.68828 l -4.3212,3.94785 4.8212,1.48135 c 6.9872,2.14691 7.851,2.00969 13.4048,-2.12935 z m 21.9147,-18.84432 c 2.7517,-1.97688 4.7833,-3.94987 4.5147,-4.38443 -0.2685,-0.43456 -3.3982,-1.33917 -6.9548,-2.01025 l -6.4665,-1.22014 -4.5713,3.74584 c -2.5142,2.06021 -4.388,3.92912 -4.164,4.15313 0.468,0.46799 9.5208,3.00001 11.3912,3.18606 0.6862,0.0683 3.4991,-1.49334 6.2507,-3.47021 z M 1259.451,791.47786 c -2.475,-0.76061 -14.3217,-3.61874 -26.326,-6.3514 -12.0043,-2.73266 -39.9043,-9.50957 -62,-15.0598 -22.0957,-5.55023 -48.499,-11.83285 -58.674,-13.96136 -18.4018,-3.8495 -18.4522,-3.8673 -9.5,-3.35531 12.0109,0.68692 118.8325,2.43752 119.3146,1.95533 0.2081,-0.2081 -1.6782,-2.43495 -4.1918,-4.94854 -2.5136,-2.5136 -4.4159,-4.57018 -4.2274,-4.57018 2.9239,0 21.9091,4.11608 36.9643,8.01404 10.5916,2.74228 19.6074,4.98596 20.035,4.98596 0.9605,0 -3.9649,-8.86445 -13.8572,-24.93917 -4.1456,-6.73644 -7.5375,-12.43358 -7.5375,-12.6603 0,-1.27787 30.5908,21.91732 63.3123,48.00596 16.2572,12.96171 20.2571,16.59351 18.2754,16.59351 -2.5117,0 -19.9127,-3.20659 -59.5877,-10.98054 -11.275,-2.20923 -20.8602,-4.01739 -21.3005,-4.01812 -0.4403,-7.4e-4 2.6056,5.01532 6.7686,11.14679 4.1629,6.13147 7.4482,11.23317 7.3005,11.3371 -0.1477,0.10393 -2.2936,-0.43336 -4.7686,-1.19397 z m 130.6819,-13.08429 c -0.3075,-2.97964 -0.7692,-5.62764 -1.026,-5.88444 -0.2568,-0.2568 -2.2136,0.63572 -4.3484,1.98336 -2.1348,1.34765 -6.7401,3.89329 -10.2339,5.65698 l -6.3525,3.20672 -6.6105,-6.42686 c -3.6358,-3.53477 -13.8106,-12.45899 -22.6106,-19.83161 -18.4089,-15.42295 -31.5553,-27.70675 -35.6503,-33.31116 -2.6374,-3.60954 -2.85,-4.57786 -2.8537,-13 -0.01,-19.52668 -4.7347,-37.5297 -15.3835,-58.59996 -11.454,-22.66336 -20.898,-36.14452 -34.773,-49.63745 -15.2841,-14.86337 -29.37,-21.89049 -52.8466,-26.3639 -13.51,-2.57431 -13.9394,-2.50056 -5.2965,0.90974 3.958,1.56175 10.258,5.01655 14,7.67733 8.0252,5.70643 41.228,38.44307 47.2082,46.54545 l 4.1563,5.63116 -2.0258,5.41445 c -4.7284,12.63771 -25.8574,40.83004 -48.6198,64.87312 -13.6452,14.41298 -18.4449,18.66845 -22.087,19.58255 -3.0572,0.76732 -44.9826,-7.91986 -107.285,-22.23009 l -7.4568,-1.71274 3.4148,-2.59481 c 11.7519,-8.92995 22.5898,-18.2159 37.8515,-32.4315 9.544,-8.88982 17.973,-16.30717 18.7311,-16.483 1.8978,-0.44015 14.878,2.234 33.9161,6.98727 8.8,2.19711 16.5002,4.07073 17.1116,4.16359 0.9837,0.14939 13.6316,-13.35855 18.8384,-20.11926 l 1.9499,-2.53191 -4.4499,-3.86328 c -2.4475,-2.1248 -10.4316,-8.43002 -17.7425,-14.01161 l -13.2925,-10.14833 -34.2075,9.27636 c -18.8141,5.102 -45.2325,12.18066 -58.7075,15.73036 -61.5702,16.21934 -102.1375,26.91408 -121.26925,31.97018 -12.16959,3.21616 -21.61464,5.22055 -22.81096,4.84086 -2.94864,-0.93587 -3.62964,-3.09444 -6.8916,-21.84456 -1.61418,-9.27851 -3.13837,-17.07351 -3.38708,-17.32222 -0.24871,-0.24871 -5.07332,0.9303 -10.72137,2.62002 -10.30322,3.08241 -15.34441,3.72443 -17.66646,2.24991 -0.68571,-0.43543 -2.1291,-5.71604 -3.20755,-11.73469 -5.10641,-28.49809 -13.04571,-74.57049 -13.04571,-75.70529 0,-0.69755 2.22831,-2.0597 4.9518,-3.027 9.59506,-3.40786 14.0627,-9.11289 14.02624,-17.91105 -0.0448,-10.81586 -5.99327,-17.96369 -16.60888,-19.95773 -8.33174,-1.56504 -8.36916,-1.58137 -8.36916,-3.6532 0,-1.03072 -3.825,-23.85385 -8.5,-50.71806 -4.675,-26.86421 -8.5,-50.04027 -8.5,-51.50236 0,-1.46208 0.7875,-3.32941 1.75,-4.1496 1.67375,-1.42629 26.06607,-8.43475 84.75,-24.35055 14.85,-4.0275 35.1,-9.55475 45,-12.28277 9.9,-2.72802 30.59998,-8.20007 45.99998,-12.1601 48.2165,-12.39862 84.4367,-22.01402 100,-26.54707 21.2872,-6.20019 50.8273,-14.20146 81,-21.93979 32.5431,-8.34625 31.728,-8.08309 34.603,-11.17123 8.3627,-8.9827 31.4931,-25.62782 45.1658,-32.50235 26.4064,-13.27689 49.2425,-18.73742 81.7312,-19.54345 23.0117,-0.5709 39.3671,1.22392 56.4985,6.20008 42.4848,12.34052 78.0785,40.37674 98.2567,77.39411 12.8993,23.66418 19.0878,46.50146 21.235,78.3635 2.2978,34.09539 -3.8156,66.71277 -20.752,110.72091 l -5.5803,14.5 -0.1309,17.5 c -0.1199,16.04218 -0.3602,18.24973 -2.8849,26.5 -5.021,16.40812 -15.9949,36.97883 -26.1402,49 -3.4983,4.14524 -4.8547,7.10458 -7.9345,17.31095 -5.1558,17.08609 -10.2684,28.91527 -20.8132,48.15583 -9.9353,18.1284 -14.6558,25.93148 -22.1011,36.53322 -16.2501,23.13957 -27.2413,36.86952 -41.2772,51.56225 l -9.1348,9.56225 z m -9.5449,-29.24074 3.637,-2.38831 -0.137,-12.03896 c -0.1282,-11.27175 0.039,-12.39813 2.6308,-17.67501 2.0043,-4.08125 3.6302,-5.99326 5.8938,-6.93088 2.9645,-1.22793 3.2718,-1.13168 5.9476,1.86309 5.0424,5.64341 7.1139,17.38274 4.3592,24.70384 -1.2907,3.43036 10.3315,-8.55918 16.9638,-17.5 13.3045,-17.93525 28.2232,-46.07664 36.4112,-68.683 3.9161,-10.81175 7.0142,-22.83134 6.101,-23.66941 -0.2444,-0.22429 -3.1974,-0.59866 -6.5623,-0.83195 l -6.1178,-0.42415 -5.6606,11.05426 -5.6605,11.05425 0.7719,-6.5 c 1.7649,-14.86295 -0.8725,-28 -5.6213,-28 -3.6746,0 -12.6826,-3.96139 -15.3558,-6.75288 -10.9786,-11.46436 -9.5158,-37.65656 2.4486,-43.84358 3.6688,-1.89724 6.6218,-1.27714 10.8464,2.27768 l 3.1872,2.6818 -0.3703,-8.43151 c -0.41,-9.33641 -2.7304,-15.44558 -8.2612,-21.75017 l -3.0887,-3.52086 3,0.70729 c 6.5369,1.54117 15.4496,6.78228 19.8428,11.6686 7.7049,8.5697 9.0492,16.05 6.0481,33.65591 -2.3132,13.57064 -1.6396,22.06791 2.1811,27.51462 1.7256,2.45996 3.9696,4.43153 5.2553,4.61731 3.3931,0.49027 10.2364,-4.05878 14.2687,-9.48506 14.7747,-19.88224 20.0496,-33.88144 20.0983,-53.33915 0.049,-19.55054 -4.848,-33.30763 -16.1202,-45.28707 -15.3798,-16.3448 -37.5077,-25.2198 -67.8241,-27.20277 l -10.25,-0.67045 v 6.1858 c 0,11.83086 -6.1539,27.85442 -13.392,34.86978 l -3.3072,3.20552 -0.5991,-13.80041 c -0.8687,-20.0088 -5.1951,-34.44969 -16.8673,-56.3004 -5.1103,-9.56658 -16.2863,-26.59987 -21.5838,-32.89575 l -2.8573,-3.39575 -4.7353,5.89575 c -14.978,18.64844 -17.753,41.34588 -7.5382,61.65602 5.0199,9.98107 16.1092,23.12128 22.3802,26.51944 l 3,1.62564 -10.5,1.68966 c -32.3925,5.2126 -61.0463,2.41517 -88.602,-8.65009 -32.7528,-13.15225 -52.59,-33.69649 -60.0796,-62.22109 -2.0945,-7.97702 -2.6443,-12.81118 -3.0602,-26.90997 -0.314,-10.64537 -0.059,-20.35027 0.6698,-25.5 2.4528,-17.3303 9.0476,-36.61878 16.5071,-48.27985 1.9471,-3.0437 3.3056,-5.53401 3.0191,-5.53401 -1.725,0 -50.9048,12.72736 -84.9542,21.98552 -22,5.98189 -55.75,14.96283 -75,19.95765 -19.25,4.99481 -41.525,10.9122 -49.5,13.14974 -23.40043,6.56545 -78.87113,21.52625 -100.49998,27.10549 -11,2.83749 -20.1171,5.23324 -20.26021,5.32388 -0.14312,0.0906 2.44438,15.39204 5.75,34.00311 3.30561,18.61106 6.01021,34.11607 6.01021,34.45556 0,0.3395 1.52363,1.16823 3.38585,1.84161 5.84374,2.11313 12.27265,8.70252 16.09107,16.49276 8.01713,16.35633 6.37254,36.41187 -4.19163,51.11642 l -3.55131,4.94317 1.80193,10.06255 c 2.35384,13.14458 2.90506,14.55762 5.68934,14.5845 7.00707,0.0677 17.06266,8.28691 18.99995,15.53022 0.86489,3.23375 1.61206,4.32784 2.73259,4.00137 0.84822,-0.24713 11.21721,-2.9552 23.04221,-6.01793 11.825,-3.06273 27.35,-7.08417 34.5,-8.93653 7.15,-1.85235 32.57498,-8.39604 56.49998,-14.54151 23.925,-6.14548 49.125,-12.69621 56,-14.55718 31.5395,-8.53734 43.1624,-11.80967 51.8077,-14.5861 9.6024,-3.08382 29.0371,-7.70137 42.1923,-10.02464 9.6051,-1.6963 36.6316,-1.71598 44.5,-0.0324 10.5441,2.25606 21.7786,6.00374 29.7393,9.92065 l 7.7393,3.80796 3.6229,-6.19477 c 1.9925,-3.40713 5.5852,-8.12069 7.9836,-10.4746 l 4.3608,-4.27982 -1.9,5.00059 c -2.6698,7.02623 -5.049,20.38006 -5.0285,28.22321 0.043,16.38028 5.0764,28.67459 19.7889,48.33337 15.9005,21.24611 21.5894,33.71925 22.7763,49.93805 0.8102,11.07098 -1.2674,20.67582 -7.0748,32.70724 -2.4793,5.13652 -4.5078,9.88375 -4.5078,10.5494 0,1.68712 22.9781,23.95121 37.9958,36.81521 l 12.4958,10.70375 3.0042,-1.77648 c 1.6523,-0.97706 4.6409,-2.85121 6.6412,-4.16478 z M 1367.4576,722.362 c -3.5876,-11.69623 -1.5013,-20.78758 6.9823,-30.42545 6.3577,-7.22272 14.5988,-10.80197 28.2611,-12.27423 l 5.75,-0.61963 0.045,-5.17805 c 0.025,-2.84792 0.6077,-6.49651 1.2954,-8.10798 1.2053,-2.82463 1.3117,-2.60898 2.9615,6 1.9206,10.02207 2.2525,26.54086 0.627,31.20375 l -1.071,3.07225 -4.7451,-4.92303 c -5.1887,-5.38318 -7.6572,-5.98776 -15.6129,-3.82394 -7.7034,2.09521 -20.3066,17.97191 -20.5605,25.90091 -0.044,1.375 -0.4414,3.4 -0.8831,4.5 -0.6386,1.59049 -1.2631,0.50026 -3.0498,-5.3246 z M 943.27946,562.1504 c -2.4946,-1.45564 -4.26661,-7.99291 -9.34185,-34.4638 -2.53083,-13.2 -7.05065,-36.63008 -10.04405,-52.06684 -2.9934,-15.43676 -5.44254,-29.03888 -5.44254,-30.22694 0,-2.74482 2.83357,-4.58504 11,-7.1438 8.58573,-2.69013 10.63421,-2.58858 13.86973,0.68758 2.47296,2.50402 3.36184,5.88067 9.93751,37.75 9.17665,44.47516 13.19276,66.63337 13.19276,72.7888 0,4.00954 -0.49861,5.36366 -2.83548,7.70053 -4.46645,4.46645 -16.26196,7.35179 -20.33608,4.97447 z m 50.83342,-15.2138 c -1.57052,-1.57245 -2.79854,-4.9602 -4.078,-11.25 -1.00691,-4.95 -3.99672,-18.9 -6.64401,-31 -9.04673,-41.34992 -14.28537,-65.99869 -14.72731,-69.29461 -0.48414,-3.61061 1.39875,-6.4359 5.80909,-8.71657 1.38949,-0.71854 10.61555,-3.40852 20.50236,-5.97775 9.88679,-2.56922 21.78159,-5.76026 26.43279,-7.09119 13.9319,-3.98658 16.4196,-3.27064 19.5616,5.62977 0.8641,2.44769 6.3051,27.17535 12.091,54.95035 12.4933,59.97301 12.5566,55.40399 -0.8225,59.36929 -31.5717,9.35724 -53.47912,15.63071 -54.58369,15.63071 -0.71175,0 -2.30535,-1.0125 -3.54133,-2.25 z M 1094.451,522.50966 c -4.658,-1.45734 -6.1032,-2.93144 -7.5064,-7.65655 -2.2162,-7.46279 -23.4936,-103.48565 -23.4936,-106.02441 0,-3.25898 2.5836,-6.35751 6.2531,-7.49953 11.4923,-3.57659 57.704,-16.1386 59.3017,-16.12033 4.9712,0.0568 6.2727,2.70263 10.5684,21.4851 2.2632,9.89596 7.6189,33.06766 11.9014,51.49266 4.2825,18.425 8.0865,35.37169 8.4535,37.65931 0.7816,4.87355 -1.0553,9.26902 -4.6428,11.10946 -1.9426,0.99663 -48.69,13.73383 -56.8353,15.48585 -1.375,0.29576 -3.175,0.32656 -4,0.0684 z m 267.8938,-25.5843 c -15.502,-15.19998 -19.9134,-24.12093 -19.8785,-40.19886 0.021,-9.60129 1.0889,-10.81056 3.7947,-4.29665 1.2009,2.89121 6.228,10.65675 11.1713,17.25675 4.9433,6.6 9.9271,13.97657 11.0753,16.39238 1.7906,3.76762 6.19,21.15453 5.5278,21.84638 -0.1257,0.13132 -5.3865,-4.81868 -11.6906,-11 z M 958.15371,647.03124 c 3.78422,-0.95287 4.3723,-1.43345 3.95497,-3.23197 -0.26962,-1.16197 -1.48527,-6.64903 -2.70146,-12.19346 l -2.21124,-10.08079 -5.44108,1.51445 c -4.73894,1.31901 -5.36405,1.7811 -4.84413,3.58079 0.32833,1.13649 1.3717,6.68281 2.3186,12.32517 1.31698,7.84753 2.04572,10.13499 3.1004,9.73197 0.75832,-0.28976 3.37909,-1.03053 5.82394,-1.64616 z m 22.68129,-6.01322 c 2.26381,-0.64272 4.51268,-1.51188 4.9975,-1.93148 0.64586,-0.55897 -3.74025,-22.07252 -4.8121,-23.60303 -0.0782,-0.1117 -2.52587,0.49565 -5.4392,1.34966 -4.59053,1.34568 -5.23138,1.83954 -4.80519,3.7031 0.27048,1.18268 1.46994,6.53783 2.66548,11.90033 1.19554,5.3625 2.42206,9.75 2.7256,9.75 0.30354,0 2.4041,-0.52586 4.66791,-1.16858 z m 26.5119,-6.91838 c 2.2573,-0.67629 4.1041,-1.59995 4.1041,-2.05259 0,-1.52894 -5.1644,-22.86045 -5.5345,-22.86045 -3.0097,0 -10.46548,2.47407 -10.46548,3.47279 0,1.57746 3.81352,20.46757 4.51825,22.38096 0.27423,0.74457 1.12293,1.11417 1.88613,0.82133 0.7631,-0.29283 3.2343,-1.08575 5.4915,-1.76204 z m 23.6613,-6.03175 c 3.3044,-0.83206 4.4428,-1.60526 4.4428,-3.01745 0,-2.0281 -3.9811,-21.13386 -4.5223,-21.70292 -0.3915,-0.41159 -11.4777,2.01164 -11.4777,2.5088 0,0.32214 3.3239,15.80484 4.5256,21.08028 0.5885,2.58336 1.0012,2.64976 7.0316,1.13129 z m 24.27,-6.42261 c 4.5329,-1.34612 5.1269,-1.82104 4.6907,-3.75 -0.8833,-3.90547 -4.5179,-21.10588 -4.5179,-21.38048 0,-0.14598 -0.5625,-0.0768 -1.25,0.15381 -0.6875,0.23059 -3.1625,0.90881 -5.5,1.50716 -2.9128,0.74562 -4.2531,1.62641 -4.2599,2.79937 -0.017,2.96136 4.3122,22.21146 4.9953,22.21146 0.3584,0 2.9872,-0.69359 5.8418,-1.54132 z m 24.73,-6.57739 c 2.4436,-0.6153 4.4428,-1.67764 4.4428,-2.36076 0,-1.64905 -4.1194,-21.91989 -4.5476,-22.37809 -0.3055,-0.32684 -10.4774,1.91684 -11.3127,2.49528 -0.1981,0.13723 0.6918,5.44989 1.9777,11.8059 1.5729,7.77454 2.7731,11.55638 3.6675,11.55638 0.7312,0 3.3287,-0.50342 5.7723,-1.11871 z m 24.6207,-5.98814 5.5114,-1.10685 -2.3496,-11.56476 c -1.2922,-6.36061 -2.5053,-11.72047 -2.6956,-11.91079 -0.7298,-0.72976 -11.0639,2.44872 -11.4183,3.51195 -0.2053,0.61595 0.5599,5.69549 1.7005,11.28785 1.1405,5.59236 2.0737,10.33028 2.0737,10.52869 0,0.57071 1.2873,0.43691 7.1779,-0.74609 z m 24.6362,-6.50122 5.784,-1.60808 -2.3368,-11.09636 c -1.2853,-6.103 -2.4632,-11.22274 -2.6176,-11.37718 -0.7225,-0.72252 -11.6438,2.22822 -11.6445,3.14612 -10e-4,1.86361 4.2699,22.54357 4.6562,22.54357 0.2061,0 2.9776,-0.72363 6.1587,-1.60807 z m 305.1859,-11.31935 c 0,-7.37305 -0.1842,-8.07236 -2.6348,-10 -1.4492,-1.13992 -3.2334,-2.07258 -3.9648,-2.07258 -2.3338,0 -3.6432,4.05843 -3.166,9.81285 0.3688,4.44712 0.9873,5.98105 3.1677,7.85659 1.4902,1.28181 3.5844,2.33056 4.6537,2.33056 1.7621,0 1.9442,-0.74246 1.9442,-7.92742 z m -118.41,-98.94996 c -16.6343,-22.66044 -16.6428,-55.51171 -0.021,-80.69353 2.1525,-3.261 8.5117,-10.57997 14.1315,-16.26438 9.1834,-9.28891 10.4001,-10.20011 12.0174,-9 0.9897,0.73441 8.0955,7.88433 15.7908,15.8887 15.9056,16.54452 23.5993,26.85895 31.4914,42.21812 l 5.5,10.70388 5.722,0.0123 5.7221,0.0123 1.7331,-5.75 c 7.8837,-26.15599 -9.8553,-60.92139 -38.1772,-74.82122 -11.3527,-5.57163 -18.3974,-7.41647 -31.0409,-8.12889 -41.8654,-2.35897 -75.3748,29.72723 -75.4444,72.24001 -0.027,16.66527 4.4437,27.90386 15.5951,39.20186 5.3304,5.40039 9.0574,8.14859 14.6577,10.80814 5.9803,2.84006 20.5008,7.66443 25.0676,8.32863 0.4594,0.0668 -0.7759,-2.07335 -2.7451,-4.75591 z m 187.3395,-20.39337 c 6.0628,-19.69605 10.575,-49.13195 8.2975,-54.1304 -2.1761,-4.77601 -25.1094,-10.53467 -42.5649,-10.68827 l -10.1621,-0.0894 5,-1.44492 c 8.2359,-2.38002 30.5631,-2.93829 39.9065,-0.99783 4.3485,0.90312 8.0805,1.46789 8.2934,1.25504 0.5718,-0.57178 -1.5695,-17.00066 -3.3371,-25.60434 -1.8987,-9.24152 -5.9634,-22.28873 -8.4985,-27.27912 -1.8576,-3.65681 -2.0434,-3.75 -7.4775,-3.75 -10.9194,0 -34.9095,6.25075 -46.8868,12.21663 -8.0977,4.03347 -0.8823,-1.04203 10.444,-7.34659 6.8223,-3.79749 16.3128,-7.99825 23.5,-10.40174 9.264,-3.09801 12.0253,-4.42122 11.9232,-5.71367 -0.2659,-3.36635 -12.0917,-19.43203 -21.0649,-28.6171 -9.1942,-9.41136 -9.1992,-9.41469 -13.3667,-8.85571 -4.6448,0.62299 -20.4303,7.93602 -27.7098,12.83724 -2.5992,1.75001 -7.4258,5.47663 -10.7258,8.28139 l -6,5.09955 3.2569,-4.15258 c 5.3578,-6.83127 18.4306,-18.57521 26.5795,-23.87762 4.2008,-2.73339 7.6436,-5.2872 7.6507,-5.67514 0.024,-1.29225 -13.4988,-8.7545 -22.2825,-12.29635 -9.4548,-3.81248 -24.2045,-7.86262 -32.4016,-8.89721 l -5.1971,-0.65594 -6.3029,7.39262 c -6.6066,7.7487 -13.3337,18.68581 -17.4713,28.40499 -2.3089,5.42366 -2.4132,5.52547 -1.8011,1.75723 1.4593,-8.98446 9.5912,-28.03763 14.9839,-35.10782 l 2.3985,-3.14462 -3.7065,-0.61277 c -12.6749,-2.09548 -35.8591,0.29705 -50.2065,5.18113 -5.1353,1.74814 -5.6217,2.19759 -7.336,6.77818 -2.8207,7.53674 -4.6551,18.63752 -4.7499,28.74387 -0.071,7.55146 -0.2634,8.63467 -1.095,6.16203 -0.555,-1.65 -1.0788,-10.52942 -1.1641,-19.73204 -0.1797,-19.40063 1.1988,-18.18213 -12.7022,-11.22764 -10.0278,5.0168 -24.4452,14.5298 -31.2837,20.64192 l -4.8309,4.31776 1.7115,7.5 c 0.9413,4.125 2.7835,9.93167 4.0938,12.90372 1.3103,2.97204 2.2175,5.56869 2.0158,5.77032 -0.5905,0.59052 -5.1664,-6.7452 -9.1841,-14.72328 l -3.7203,-7.38759 -6.8752,7.2098 c -23.6451,24.79583 -36.8814,55.57339 -36.8681,85.72703 0.01,23.6988 7.0662,40.75295 25.0305,60.5 l 5.0035,5.5 -2.4805,-5.5 c -6.5239,-14.4657 -7.947,-34.20201 -3.7135,-51.5 9.8076,-40.0733 46.1538,-72.76443 88.4306,-79.53794 11.8313,-1.89558 31.0549,-0.76996 42.0061,2.45965 23.1541,6.8283 41.9841,21.69637 55.813,44.06957 10.472,16.94211 14.4468,32.84315 13.6257,54.50872 -0.2813,7.425 -0.8066,14.21821 -1.1672,15.09603 -0.5625,1.36937 0.6648,1.68743 8.6423,2.23961 5.1139,0.35397 11.6687,1.2847 14.5663,2.06829 12.946,3.50099 25.5733,11.84447 32.7762,21.65684 4.42,6.02122 4.2211,6.19516 8.3849,-7.33152 z m -41.3827,287.27075 c 3.7448,-6.753 18.6111,-27.14771 32.8019,-45 26.7477,-33.649 39.1915,-50.46334 37.5757,-50.77278 -0.7834,-0.15003 -9.7494,1.27377 -19.9244,3.16399 -10.175,1.89022 -18.5939,3.34406 -18.7087,3.23076 -0.1147,-0.11331 8.4352,-11.00497 19,-24.2037 30.4944,-38.09705 32.8041,-41.05286 83.5472,-106.91827 7.9028,-10.25794 12.1708,-15.34676 10.9031,-13 -0.2972,0.55 -3.686,7.975 -7.5309,16.5 -7.6528,16.96834 -28.8358,62.92859 -37.223,80.76216 -2.9132,6.19418 -5.0982,11.4606 -4.8557,11.70315 0.2425,0.24254 10.0996,-0.42345 21.9045,-1.47999 11.8049,-1.05654 23.826,-2.12794 26.7135,-2.3809 2.8875,-0.25295 5.229,-0.15493 5.2032,0.21783 -0.026,0.37276 -4.1364,4.05275 -9.1349,8.17775 -4.9985,4.125 -15.2603,12.9 -22.8041,19.5 -29.203,25.54949 -40.7755,35.40203 -54.3939,46.30958 -7.7661,6.22026 -17.4953,14.35719 -21.6203,18.08205 -4.125,3.72487 -13.125,11.64152 -20,17.59257 -6.875,5.95104 -14.7016,12.88912 -17.3925,15.41794 -2.6909,2.52882 -4.5182,3.92286 -4.0607,3.09786 z"
       id="path185" />
    <path
       style="fill:#ffffff;fill-opacity:1;stroke-width:1;stroke-dashoffset:5.15625;stop-color:#000000"
       d="m 1389.5956,900.18731 c -1.9384,0 -12.6235,7.34036 -11.3184,7.77539 1.007,0.33567 13.4025,4.00872 14,4.14844 0.1797,0.042 2.8281,-1.71543 5.8848,-3.9043 3.3962,-2.43199 5.0198,-4.14832 4.1738,-4.41406 -0.7615,-0.23917 -3.602,-1.14953 -6.3125,-2.02149 -2.7105,-0.87194 -5.6035,-1.58398 -6.4277,-1.58398 z"
       id="path1244" />
    <path
       style="fill:#ffffff;fill-opacity:1;stroke-width:1;stroke-dashoffset:5.15625;stop-color:#000000"
       d="m 1354.9276,890.01934 -5.1797,3.33399 c -2.8491,1.83361 -5.2063,3.5876 -5.2383,3.89843 -0.048,0.46811 11.6384,4.42912 14.2168,4.81836 0.4268,0.0644 3.0078,-1.54834 5.7344,-3.58398 5.5951,-4.17711 5.4785,-4.40311 -3.502,-6.83399 z"
       id="path1242" />
    <path
       style="fill:#ffffff;fill-opacity:1;stroke-width:1;stroke-dashoffset:5.15625;stop-color:#000000"
       d="m 1493.4803,883.18731 c -2.1041,0 -13.3516,8.94587 -11.873,9.44336 1.6429,0.55277 14.2275,4.42176 14.6367,4.5 0.1616,0.0309 2.9756,-2.17576 6.2519,-4.90234 l 5.9571,-4.95704 -6.8594,-2.04296 c -3.7722,-1.12341 -7.4231,-2.04102 -8.1133,-2.04102 z"
       id="path1240" />
    <path
       style="fill:#ffffff;fill-opacity:1;stroke-width:1;stroke-dashoffset:5.15625;stop-color:#000000"
       d="m 1318.5194,878.89044 -4.9414,3.39843 c -2.7183,1.86885 -4.7478,3.59703 -4.5098,3.83985 0.238,0.24282 3.4594,1.39521 7.1582,2.5625 l 6.7246,2.12304 5.3067,-3.49218 c 3.4839,-2.29321 4.8576,-3.71813 4,-4.14649 -0.7183,-0.35883 -4.1029,-1.46959 -7.5215,-2.46875 z"
       id="path1238" />
    <path
       style="fill:#ffffff;fill-opacity:1;stroke-width:1;stroke-dashoffset:5.15625;stop-color:#000000"
       d="m 1284.451,869.01153 c -0.825,-0.17042 -3.6705,1.25 -6.3242,3.15625 l -4.8262,3.46484 6.3262,2.19922 c 8.5284,2.96456 9.5787,2.89017 15.1602,-1.07812 l 4.8281,-3.4336 -6.832,-2 c -3.7576,-1.09974 -7.5071,-2.13818 -8.3321,-2.30859 z"
       id="path1236" />
    <path
       style="fill:#ffffff;fill-opacity:1;stroke-width:1;stroke-dashoffset:5.15625;stop-color:#000000"
       d="m 1522.2303,860.27715 c -1.8464,0.44015 -3.6095,1.89608 -7.0762,4.79493 l -4.7968,4.01171 4.2968,1.10547 c 2.3633,0.60778 5.4219,1.49571 6.7969,1.97266 1.375,0.47695 2.725,0.90072 3,0.94141 0.275,0.0407 3.1341,-2.06211 6.3535,-4.67188 l 5.8536,-4.74414 -6.8536,-2.10742 c -3.7981,-1.1671 -5.7278,-1.74288 -7.5742,-1.30274 z"
       id="path1234" />
    <path
       style="fill:#ffffff;fill-opacity:1;stroke-width:1;stroke-dashoffset:5.15625;stop-color:#000000"
       d="m 1246.5721,856.38458 -5.0605,3.54296 c -2.7831,1.94827 -5.0581,3.81588 -5.0547,4.1504 0.01,0.65049 12.4936,4.81682 14.9863,5 0.8202,0.0603 3.8686,-1.52922 6.7754,-3.53125 2.9069,-2.00205 5.1619,-3.75549 5.0098,-3.89649 -0.1521,-0.14101 -3.9624,-1.38253 -8.4668,-2.75976 z"
       id="path1232" />
    <path
       style="fill:#ffffff;fill-opacity:1;stroke-width:1;stroke-dashoffset:5.15625;stop-color:#000000"
       d="m 1549.1346,837.26544 -4.8828,4.08789 c -2.6848,2.24784 -4.6017,4.36613 -4.2598,4.70898 0.3419,0.34286 3.1735,1.35837 6.2911,2.25586 3.1175,0.89748 5.8133,1.68498 5.9921,1.75 0.1789,0.065 2.7829,-1.79336 5.7852,-4.13086 l 5.459,-4.25 -7.1934,-2.21094 z"
       id="path1230" />
    <path
       style="fill:#ffffff;fill-opacity:1;stroke-width:1;stroke-dashoffset:5.15625;stop-color:#000000"
       d="m 1574.2967,818.69122 c -1.9478,0.22369 -3.3333,1.31415 -5.666,3.44531 l -4.3223,3.94726 4.8223,1.48243 c 6.9872,2.1469 7.8505,2.01013 13.4043,-2.12891 l 5.0313,-3.75 -4.2364,-1.23828 c -4.5765,-1.33767 -7.0853,-1.98151 -9.0332,-1.75781 z"
       id="path1228" />
    <path
       style="fill:#ffffff;fill-opacity:1;stroke-width:1;stroke-dashoffset:5.15625;stop-color:#000000"
       d="m 1595.5428,798.97833 -4.5722,3.74414 c -2.5142,2.0602 -4.3862,3.93028 -4.1622,4.15429 0.468,0.46799 9.5203,2.9995 11.3907,3.18555 0.6862,0.0683 3.4984,-1.49384 6.25,-3.4707 2.7517,-1.97688 4.7842,-3.94826 4.5156,-4.38282 -0.2685,-0.43456 -3.3985,-1.34064 -6.9551,-2.01171 z"
       id="path1226" />
    <path
       style="fill:#ffffff;fill-opacity:1;stroke-width:1;stroke-dashoffset:5.15625;stop-color:#000000"
       d="m 957.19516,621.5252 -5.43945,1.51367 c -4.73894,1.31901 -5.36563,1.78235 -4.84571,3.58203 0.32833,1.13649 1.37342,6.68187 2.32032,12.32422 1.31698,7.84752 2.04493,10.13544 3.09961,9.73242 0.75832,-0.28976 3.37937,-1.03085 5.82421,-1.64648 3.78422,-0.95287 4.37241,-1.4339 3.95508,-3.23242 -0.26962,-1.16197 -1.48498,-6.64894 -2.70117,-12.19336 z"
       id="path1224" />
    <path
       style="fill:#ffffff;fill-opacity:1;stroke-width:1;stroke-dashoffset:5.15625;stop-color:#000000"
       d="m 981.02133,615.48419 c -0.0782,-0.1117 -2.52612,0.4956 -5.43945,1.3496 -4.59053,1.34568 -5.23283,1.83957 -4.80664,3.70313 0.27048,1.18268 1.47048,6.5379 2.66601,11.90039 1.19554,5.36249 2.42303,9.75 2.72657,9.75 0.30354,0 2.40416,-0.5272 4.66797,-1.16992 2.2638,-0.64272 4.51127,-1.51204 4.99609,-1.93164 0.64586,-0.55897 -3.7387,-22.07106 -4.81055,-23.60156 z"
       id="path1222" />
    <path
       style="fill:#ffffff;fill-opacity:1;stroke-width:1;stroke-dashoffset:5.15625;stop-color:#000000"
       d="m 1005.9159,609.18731 c -3.0097,0 -10.46488,2.47394 -10.46488,3.47266 0,1.57745 3.81285,20.46747 4.51758,22.38086 0.2742,0.74456 1.1235,1.11315 1.8867,0.82031 0.7631,-0.29283 3.235,-1.08543 5.4922,-1.76172 2.2573,-0.67629 4.1035,-1.6001 4.1035,-2.05273 0,-1.52894 -5.165,-22.85938 -5.5351,-22.85938 z"
       id="path1220" />
    <path
       style="fill:#ffffff;fill-opacity:1;stroke-width:1;stroke-dashoffset:5.15625;stop-color:#000000"
       d="m 1030.9295,603.34747 c -0.3915,-0.41159 -11.4785,2.0126 -11.4785,2.50976 0,0.32214 3.3237,15.80465 4.5254,21.08008 0.5885,2.58336 1.0009,2.64933 7.0313,1.13086 3.3044,-0.83206 4.4433,-1.60539 4.4433,-3.01758 0,-2.0281 -3.9803,-21.13406 -4.5215,-21.70312 z"
       id="path1218" />
    <path
       style="fill:#ffffff;fill-opacity:1;stroke-width:1;stroke-dashoffset:5.15625;stop-color:#000000"
       d="m 1055.451,596.51544 c 0,-0.14598 -0.5625,-0.0783 -1.25,0.15234 -0.6875,0.23059 -3.1625,0.90946 -5.5,1.50781 -2.9128,0.74562 -4.2529,1.62587 -4.2597,2.79883 -0.017,2.96136 4.3129,22.21289 4.996,22.21289 0.3584,0 2.9872,-0.69524 5.8418,-1.54297 4.5329,-1.34612 5.1257,-1.82104 4.6895,-3.75 -0.8833,-3.90546 -4.5176,-21.10431 -4.5176,-21.3789 z"
       id="path1216" />
    <path
       style="fill:#ffffff;fill-opacity:1;stroke-width:1;stroke-dashoffset:5.15625;stop-color:#000000"
       d="m 1079.9041,590.32989 c -0.3055,-0.32684 -10.4772,1.9157 -11.3125,2.49414 -0.1981,0.13723 0.6907,5.45064 1.9766,11.80664 1.5729,7.77453 2.7736,11.55664 3.668,11.55664 0.7312,0 3.3279,-0.50385 5.7715,-1.11914 2.4436,-0.6153 4.4433,-1.67821 4.4433,-2.36133 0,-1.64905 -4.1187,-21.91875 -4.5469,-22.37695 z"
       id="path1214" />
    <path
       style="fill:#ffffff;fill-opacity:1;stroke-width:1;stroke-dashoffset:5.15625;stop-color:#000000"
       d="m 1105.0956,584.49786 c -0.7298,-0.72976 -11.0636,2.44849 -11.418,3.51172 -0.2053,0.61595 0.5586,5.69475 1.6992,11.28711 1.1405,5.59235 2.0742,10.33088 2.0742,10.52929 0,0.57071 1.2872,0.43691 7.1778,-0.74609 l 5.5117,-1.10742 -2.3496,-11.56446 c -1.2922,-6.3606 -2.505,-11.71983 -2.6953,-11.91015 z"
       id="path1212" />
    <path
       style="fill:#ffffff;fill-opacity:1;stroke-width:1;stroke-dashoffset:5.15625;stop-color:#000000"
       d="m 1427.8514,579.18731 c -2.3338,0 -3.6432,4.05809 -3.166,9.8125 0.3688,4.44712 0.9876,5.97993 3.168,7.85547 1.4902,1.28181 3.585,2.33203 4.6543,2.33203 1.7621,0 1.9433,-0.74278 1.9433,-7.92773 0,-7.37305 -0.1841,-8.07237 -2.6347,-10 -1.4492,-1.13992 -3.2335,-2.07227 -3.9649,-2.07227 z"
       id="path1210" />
    <path
       style="fill:#ffffff;fill-opacity:1;stroke-width:1;stroke-dashoffset:5.15625;stop-color:#000000"
       d="m 1130.0956,578.49786 c -0.7225,-0.72252 -11.6439,2.22663 -11.6446,3.14453 -10e-4,1.86361 4.27,22.54492 4.6563,22.54492 0.2061,0 2.9771,-0.72494 6.1582,-1.60937 l 5.7832,-1.60743 -2.336,-11.0957 c -1.2853,-6.10299 -2.4627,-11.22251 -2.6171,-11.37695 z"
       id="path1208" />
    <path
       style="fill:#ffffff;fill-opacity:1;stroke-width:1;stroke-dashoffset:5.15625;stop-color:#000000"
       d="m 1331.1639,366.44122 c -38.1777,1.73704 -67.632,32.42946 -67.6973,72.28515 -0.027,16.66526 4.4424,27.90319 15.5938,39.20117 5.3304,5.40039 9.0579,8.14905 14.6582,10.8086 5.9803,2.84006 20.5016,7.66392 25.0684,8.32812 0.4594,0.0668 -0.7769,-2.0733 -2.7461,-4.75586 -16.6343,-22.66041 -16.6433,-55.51156 -0.022,-80.69336 2.1525,-3.26099 8.513,-10.57926 14.1328,-16.26367 9.1834,-9.2889 10.4003,-10.20011 12.0176,-9 0.9897,0.73441 8.0937,7.88431 15.789,15.88867 15.9056,16.54451 23.6001,26.8596 31.4922,42.21875 l 5.5,10.70313 5.7227,0.0117 5.7207,0.0137 1.7344,-5.75 c 7.8836,-26.15596 -9.8559,-60.92245 -38.1778,-74.82227 -11.3527,-5.57162 -18.3975,-7.41648 -31.041,-8.1289 -2.6166,-0.14744 -5.2009,-0.16073 -7.7461,-0.0449 z"
       id="path1206" />
    <path
       style="fill:#ffffff;fill-opacity:1;stroke-width:1;stroke-dashoffset:5.15625;stop-color:#000000"
       d="m 1211.9061,334.18731 c -1.725,0 -50.9057,12.72622 -84.9551,21.98438 -22,5.98188 -55.75,14.96416 -75,19.95898 -19.25,4.9948 -41.525,10.9109 -49.5,13.14844 -23.40039,6.56544 -78.87115,21.52623 -100.49998,27.10547 -10.99999,2.83748 -20.11666,5.23357 -20.25977,5.32421 -0.14312,0.0906 2.44439,15.39286 5.75,34.00391 3.30561,18.61104 6.00977,34.11559 6.00977,34.45508 0,0.3395 1.5245,1.16842 3.38672,1.8418 5.84373,2.11312 12.27143,8.70195 16.08984,16.49218 8.01712,16.35632 6.37276,36.41266 -4.1914,51.11719 l -3.55079,4.94336 1.80079,10.0625 c 2.35383,13.14457 2.90517,14.5571 5.68945,14.58398 7.00706,0.0677 17.06271,8.286 19,15.5293 0.86489,3.23375 1.61189,4.32842 2.73242,4.00195 0.84822,-0.24713 11.21798,-2.95485 23.04297,-6.01757 11.82499,-3.06273 27.35001,-7.08515 34.5,-8.9375 7.14999,-1.85235 32.57498,-8.39556 56.49998,-14.54102 23.925,-6.14547 49.125,-12.69567 56,-14.55664 31.5395,-8.53733 43.1633,-11.80951 51.8086,-14.58594 9.6024,-3.08381 29.0362,-7.70212 42.1914,-10.02539 9.6051,-1.6963 36.6316,-1.71483 44.5,-0.0312 10.5441,2.25606 21.7796,6.00302 29.7403,9.91992 l 7.7382,3.8086 3.6231,-6.19531 c 1.9925,-3.40713 5.586,-8.12071 7.9844,-10.47461 l 4.3593,-4.2793 -1.9004,5 c -2.6698,7.02622 -5.0478,20.37951 -5.0273,28.22266 0.043,16.38026 5.0766,28.67522 19.7891,48.33398 15.9004,21.24609 21.5885,33.71872 22.7754,49.9375 0.8102,11.07097 -1.2669,20.67562 -7.0743,32.70703 -2.4793,5.13652 -4.5078,9.88513 -4.5078,10.55078 0,1.68712 22.9784,23.95047 37.9961,36.81446 l 12.4961,10.70312 3.0039,-1.77539 c 1.6523,-0.97706 4.6403,-2.85245 6.6406,-4.16602 l 3.6368,-2.38671 -0.1368,-12.03907 c -0.1282,-11.27174 0.039,-12.3989 2.6309,-17.67578 2.0043,-4.08124 3.6309,-5.99402 5.8945,-6.93164 2.9645,-1.22793 3.2715,-1.13149 5.9473,1.86328 5.0424,5.64341 7.1141,17.38399 4.3594,24.70508 -1.2907,3.43036 10.3306,-8.55919 16.9629,-17.5 13.3044,-17.93523 28.2241,-46.07726 36.4121,-68.68359 3.9161,-10.81174 7.0147,-22.83186 6.1015,-23.66993 -0.2444,-0.22429 -3.1976,-0.59874 -6.5625,-0.83203 l -6.1191,-0.42382 -5.6602,11.05468 -5.6601,11.05469 0.7715,-6.5 c 1.7649,-14.86294 -0.8723,-28 -5.6211,-28 -3.6746,0 -12.6823,-3.96242 -15.3555,-6.75391 -10.9786,-11.46434 -9.5152,-37.65673 2.4492,-43.84375 3.6688,-1.89723 6.6211,-1.27747 10.8457,2.27735 l 3.1875,2.68359 -0.3711,-8.43164 c -0.41,-9.3364 -2.7309,-15.44737 -8.2617,-21.75195 l -3.0879,-3.51953 3,0.70703 c 6.5369,1.54117 15.4506,6.78165 19.8438,11.66797 7.7049,8.56969 9.0479,16.05035 6.0468,33.65625 -2.3132,13.57062 -1.639,22.06892 2.1817,27.51562 1.7256,2.45996 3.9701,4.43141 5.2558,4.61719 3.3931,0.49027 10.2353,-4.06005 14.2676,-9.48633 14.7747,-19.88222 20.049,-33.8802 20.0977,-53.33789 0.049,-19.55052 -4.847,-33.30768 -16.1192,-45.28711 -15.3797,-16.34478 -37.5078,-25.22016 -67.8242,-27.20312 l -10.25,-0.66993 v 6.18555 c 0,11.83085 -6.1545,27.85379 -13.3926,34.86914 l -3.3066,3.20508 -0.5996,-13.80078 c -0.8687,-20.00878 -5.195,-34.44814 -16.8672,-56.29883 -5.1103,-9.56657 -16.2865,-26.60061 -21.584,-32.89648 l -2.8574,-3.39649 -4.7344,5.89649 c -14.978,18.64842 -17.7538,41.34613 -7.539,61.65625 5.0199,9.98106 16.1098,23.12137 22.3808,26.51953 l 3,1.625 -10.5,1.68945 c -32.3924,5.21259 -61.0459,2.41486 -88.6015,-8.65039 -32.7528,-13.15224 -52.5905,-33.69613 -60.0801,-62.2207 -2.0945,-7.97702 -2.6447,-12.81138 -3.0606,-26.91016 -0.314,-10.64536 -0.059,-20.35028 0.67,-25.5 2.4528,-17.33028 9.0483,-36.61824 16.5078,-48.2793 1.9471,-3.04369 3.306,-5.5332 3.0195,-5.5332 z m -82.9004,51.02148 c 4.9712,0.0568 6.2727,2.70193 10.5684,21.48438 2.2632,9.89595 7.6198,33.06916 11.9023,51.49414 4.2825,18.42498 8.0861,35.37059 8.4531,37.6582 0.7816,4.87355 -1.055,9.26894 -4.6425,11.10938 -1.9426,0.99663 -48.6907,13.73431 -56.836,15.48633 -1.375,0.29576 -3.175,0.32652 -4,0.0684 -4.658,-1.45734 -6.1026,-2.93115 -7.5058,-7.65625 -2.2162,-7.46279 -23.4942,-103.48664 -23.4942,-106.02539 0,-3.25898 2.5844,-6.35603 6.2539,-7.49805 11.4923,-3.57659 57.7031,-16.13937 59.3008,-16.1211 z m -96.1152,26.08008 c 4.4063,0.0187 6.1144,2.38452 8.0781,7.94727 0.8641,2.44769 6.3059,27.1762 12.0918,54.95117 12.4933,59.97295 12.5568,55.40384 -0.8223,59.36914 -31.5716,9.35723 -53.47939,15.63086 -54.58396,15.63086 -0.71174,0 -2.30503,-1.0125 -3.54101,-2.25 -1.57052,-1.57245 -2.79867,-4.96021 -4.07813,-11.25 -1.0069,-4.95 -3.99724,-18.90001 -6.64453,-31 -9.04672,-41.34988 -14.28462,-65.99901 -14.72656,-69.29492 -0.48414,-3.61061 1.39826,-6.43613 5.80859,-8.7168 1.38949,-0.71854 10.61516,-3.40929 20.50196,-5.97851 9.88674,-2.56922 21.78244,-5.75892 26.43364,-7.08985 5.2244,-1.49496 8.8386,-2.32959 11.4824,-2.31836 z m -94.49807,25.06641 c 1.98977,0.0986 3.30997,0.94395 4.92773,2.58203 2.47296,2.50402 3.36184,5.8807 9.9375,37.75 9.17664,44.47512 13.19336,66.63364 13.19336,72.78906 0,4.00954 -0.49907,5.36235 -2.83594,7.69922 -4.46644,4.46645 -16.26182,7.35193 -20.33594,4.97461 -2.49459,-1.45564 -4.26656,-7.99203 -9.34179,-34.46289 -2.53083,-13.19999 -7.04957,-36.63161 -10.04297,-52.06836 -2.9934,-15.43674 -5.44336,-29.0385 -5.44336,-30.22656 0,-2.74482 2.83358,-4.58382 11,-7.14258 4.29286,-1.34506 6.95163,-1.99317 8.94141,-1.89453 z m 405.48437,12.03906 c 0.5852,0.2353 1.3701,1.59244 2.3848,4.03516 1.2009,2.8912 6.2266,10.65782 11.1699,17.25781 4.9433,6.59999 9.928,13.97677 11.0762,16.39258 1.7906,3.76761 6.1895,21.15385 5.5273,21.8457 -0.1257,0.13132 -5.3854,-4.81868 -11.6894,-11 -15.502,-15.19996 -19.9139,-24.1213 -19.879,-40.19922 0.013,-6.0008 0.4349,-8.7242 1.4102,-8.33203 z m 66.6543,215.89844 c 0.6157,-0.72744 0.9853,1.00811 2.2227,7.46484 1.9206,10.02206 2.2524,26.54024 0.6269,31.20313 l -1.0723,3.07226 -4.7441,-4.92382 c -5.1887,-5.38318 -7.6576,-5.98804 -15.6133,-3.82422 -7.7034,2.0952 -20.3066,17.97335 -20.5605,25.90234 -0.044,1.375 -0.4411,3.4 -0.8828,4.5 -0.6386,1.59049 -1.2641,0.49868 -3.0508,-5.32617 -3.5876,-11.69622 -1.5012,-20.78597 6.9824,-30.42383 6.3577,-7.22271 14.5994,-10.80313 28.2617,-12.27539 l 5.75,-0.61914 0.045,-5.17774 c 0.025,-2.84791 0.6073,-6.49595 1.295,-8.10742 0.3013,-0.70615 0.5349,-1.22236 0.7402,-1.46484 z"
       id="path1204" />
    <path
       style="fill:#ffffff;fill-opacity:1;stroke-width:1;stroke-dashoffset:5.15625;stop-color:#000000"
       d="m 1367.4823,269.06036 c -12.5403,0.0178 -28.2707,2.27835 -39.0313,5.9414 -5.1353,1.74814 -5.6216,2.19871 -7.3359,6.7793 -2.8207,7.53673 -4.6552,18.6378 -4.75,28.74414 -0.071,7.55145 -0.2641,8.63475 -1.0957,6.16211 -0.555,-1.65 -1.0788,-10.52981 -1.1641,-19.73242 -0.1797,-19.40061 1.1998,-18.183 -12.7012,-11.22852 -10.0277,5.0168 -24.4447,14.53047 -31.2832,20.64258 l -4.832,4.31836 1.7109,7.5 c 0.9413,4.125 2.7835,9.9303 4.0938,12.90234 1.3103,2.97204 2.2193,5.56986 2.0176,5.77149 -0.5905,0.59052 -5.1679,-6.74654 -9.1856,-14.72461 l -3.7207,-7.38672 -6.875,7.20898 c -23.6451,24.79581 -36.8805,55.57491 -36.8672,85.72852 0.01,23.69878 7.067,40.75297 25.0313,60.5 l 5.0019,5.5 -2.4804,-5.5 c -6.5239,-14.46569 -7.9464,-34.20203 -3.7129,-51.5 9.8076,-40.07326 46.1529,-72.76556 88.4297,-79.53906 11.8313,-1.89558 31.0566,-0.76867 42.0078,2.46094 23.1541,6.82829 41.9836,21.69518 55.8125,44.06835 10.472,16.9421 14.4461,32.84422 13.625,54.50977 -0.2813,7.42499 -0.8054,14.21788 -1.166,15.0957 -0.5625,1.36937 0.6631,1.6861 8.6406,2.23828 5.1139,0.35397 11.6688,1.28477 14.5664,2.06836 12.946,3.50099 25.5744,11.84585 32.7773,21.65821 4.42,6.02121 4.221,6.19463 8.3848,-7.33203 6.0628,-19.69603 10.5744,-49.13242 8.2969,-54.13086 -2.1761,-4.77601 -25.109,-10.5339 -42.5645,-10.6875 l -10.1621,-0.0899 5,-1.44531 c 8.2359,-2.38002 30.5629,-2.9385 39.9063,-0.99805 4.3485,0.90312 8.08,1.46871 8.2929,1.25586 0.5718,-0.57178 -1.5683,-16.99984 -3.3359,-25.60351 -1.8987,-9.24151 -5.9629,-22.28891 -8.498,-27.2793 -1.8576,-3.65681 -2.0445,-3.75 -7.4786,-3.75 -10.9194,0 -34.9094,6.25092 -46.8867,12.2168 -8.0977,4.03346 -0.8829,-1.04311 10.4434,-7.34766 6.8223,-3.79749 16.3128,-7.99886 23.5,-10.40234 9.264,-3.09801 12.0259,-4.42045 11.9238,-5.71289 -0.2659,-3.36635 -12.0913,-19.43213 -21.0644,-28.61719 -9.1942,-9.41135 -9.1997,-9.41445 -13.3672,-8.85547 -4.6448,0.62299 -20.4295,7.93668 -27.709,12.83789 -2.5992,1.75001 -7.4266,5.47649 -10.7266,8.28125 l -6,5.09961 3.2578,-4.15234 c 5.3578,-6.83127 18.4293,-18.57651 26.5782,-23.87891 4.2008,-2.73339 7.6432,-5.28589 7.6503,-5.67383 0.024,-1.29225 -13.4975,-8.75503 -22.2812,-12.29687 -9.4548,-3.81248 -24.2053,-7.86385 -32.4023,-8.89844 l -5.1973,-0.6543 -6.3027,7.39258 c -6.6066,7.74869 -13.3332,18.68513 -17.4707,28.4043 -2.3089,5.42365 -2.4129,5.52605 -1.8008,1.75781 1.4593,-8.98445 9.5897,-28.03919 14.9824,-35.10937 l 2.3984,-3.14454 -3.705,-0.61132 c -3.1688,-0.52387 -6.9957,-0.76766 -11.1758,-0.76172 z"
       id="path1202" />
  </g>
</svg>
