<?xml version="1.0" encoding="UTF-8" standalone="no"?>
<!-- Created with Inkscape (http://www.inkscape.org/) -->

<svg
   width="140mm"
   height="130mm"
   viewBox="0 0 140 130"
   version="1.1"
   id="svg1"
   inkscape:version="1.4.2 (ebf0e940d0, 2025-05-08)"
   sodipodi:docname="sev-step-2.svg"
   xml:space="preserve"
   inkscape:export-filename="sev-step-2.png"
   inkscape:export-xdpi="500"
   inkscape:export-ydpi="500"
   xmlns:inkscape="http://www.inkscape.org/namespaces/inkscape"
   xmlns:sodipodi="http://sodipodi.sourceforge.net/DTD/sodipodi-0.dtd"
   xmlns="http://www.w3.org/2000/svg"
   xmlns:svg="http://www.w3.org/2000/svg"><sodipodi:namedview
     id="namedview1"
     pagecolor="#ffffff"
     bordercolor="#000000"
     borderopacity="0.25"
     inkscape:showpageshadow="2"
     inkscape:pageopacity="0.0"
     inkscape:pagecheckerboard="0"
     inkscape:deskcolor="#d1d1d1"
     inkscape:document-units="mm"
     inkscape:zoom="1.4142136"
     inkscape:cx="194.80791"
     inkscape:cy="268.70057"
     inkscape:window-width="1920"
     inkscape:window-height="1011"
     inkscape:window-x="0"
     inkscape:window-y="0"
     inkscape:window-maximized="1"
     inkscape:current-layer="layer1"
     inkscape:lockguides="false"
     showgrid="false" /><defs
     id="defs1"><marker
       style="overflow:visible"
       id="marker9"
       refX="0"
       refY="0"
       orient="auto-start-reverse"
       inkscape:stockid="Concave triangle arrow"
       markerWidth="0.75"
       markerHeight="0.75"
       viewBox="0 0 1 1"
       inkscape:isstock="true"
       inkscape:collect="always"
       preserveAspectRatio="xMidYMid"><path
         transform="scale(0.7)"
         d="M -2,-4 9,0 -2,4 c 2,-2.33 2,-5.66 0,-8 z"
         style="fill:context-stroke;fill-rule:evenodd;stroke:none"
         id="path9" /></marker><marker
       style="overflow:visible"
       id="ConcaveTriangle"
       refX="0"
       refY="0"
       orient="auto-start-reverse"
       inkscape:stockid="Concave triangle arrow"
       markerWidth="1"
       markerHeight="1"
       viewBox="0 0 1 1"
       inkscape:isstock="true"
       inkscape:collect="always"
       preserveAspectRatio="xMidYMid"><path
         transform="scale(0.7)"
         d="M -2,-4 9,0 -2,4 c 2,-2.33 2,-5.66 0,-8 z"
         style="fill:context-stroke;fill-rule:evenodd;stroke:none"
         id="path7" /></marker><linearGradient
       id="swatch2"
       inkscape:swatch="solid"><stop
         style="stop-color:#070505;stop-opacity:1;"
         offset="0"
         id="stop2" /></linearGradient><marker
       style="overflow:visible"
       id="marker1610"
       refX="0"
       refY="0"
       orient="auto"
       inkscape:stockid="Arrow2Mend"
       inkscape:isstock="true"
       viewBox="0 0 6.9304588 5.1962256"
       markerWidth="6.9304585"
       markerHeight="5.1962252"
       preserveAspectRatio="xMidYMid"><path
         transform="scale(-0.6)"
         d="M 8.7185878,4.0337352 -2.2072895,0.01601326 8.7185884,-4.0017078 c -1.7454984,2.3720609 -1.7354408,5.6174519 -6e-7,8.035443 z"
         style="fill:#850000;fill-opacity:1;fill-rule:evenodd;stroke:#850000;stroke-width:0.625;stroke-linejoin:round;stroke-opacity:1"
         id="path1608" /></marker></defs><rect
     style="fill:#f0f6fe;fill-opacity:0.7;stroke:#bbcce4;stroke-width:0.5;stroke-dasharray:2, 2;stroke-dashoffset:0;stroke-opacity:1"
     id="rect1-1-3-1"
     width="139.5"
     height="78.75"
     x="0.25"
     y="50.797215" /><g
     inkscape:label="Layer 1"
     inkscape:groupmode="layer"
     id="layer1"><rect
       style="fill:#f0f6fe;fill-opacity:1;stroke:#070505;stroke-width:0.499998;stroke-dasharray:none;stroke-opacity:1"
       id="rect1-1"
       width="39.5"
       height="78.749992"
       x="0.25"
       y="50.797215" /><rect
       style="fill:#f0f6fe;fill-opacity:1;stroke:#070505;stroke-width:0.499999;stroke-dasharray:none;stroke-opacity:1"
       id="rect1-1-3"
       width="39.5"
       height="78.974777"
       x="100.25"
       y="50.797207" /><rect
       style="fill:#dae8fc;fill-opacity:1;stroke:#6c8ebf;stroke-width:0.499998;stroke-dasharray:none;stroke-opacity:1"
       id="rect2-8-6"
       width="39.499985"
       height="10.950424"
       x="100.24999"
       y="110.25" /><path
       d="M 31.447821,16.479629 H 8.552192 c -0.372395,0 -0.673403,0.301163 -0.673403,0.673406 v 22.895587 c 0,0.372437 0.301015,0.673431 0.673403,0.673431 h 22.895629 c 0.37239,0 0.673391,-0.301139 0.673391,-0.673431 V 17.153035 c 0,-0.372388 -0.301137,-0.673406 -0.673391,-0.673406 z M 30.774429,39.375265 H 9.225591 V 17.826417 H 30.774429 Z M 12.592582,36.681641 h 14.814834 c 0.372366,0 0.673391,-0.301163 0.673391,-0.673382 V 21.193447 c 0,-0.372388 -0.301166,-0.673406 -0.673391,-0.673406 H 12.592582 c -0.372393,0 -0.673394,0.301164 -0.673394,0.673406 v 14.814812 c 0,0.372363 0.301137,0.673382 0.673394,0.673382 z m 0.67339,-14.814812 H 26.734024 V 35.334877 H 13.265972 Z m 10.577117,1.544122 C 23.717077,23.284162 23.545966,23.21386 23.366984,23.21386 h -6.734 c -0.179175,0 -0.350238,0.07078 -0.476104,0.197091 l -1.347447,1.346787 c -0.125164,0.12606 -0.196631,0.297503 -0.196631,0.476121 v 6.733963 c 0,0.178425 0.07061,0.35028 0.196631,0.476122 l 1.347447,1.346812 c 0.126279,0.126303 0.297511,0.197091 0.476104,0.197091 h 6.734 c 0.179176,0 0.350264,-0.07054 0.476105,-0.197091 l 1.34681,-1.346812 c 0.126278,-0.126061 0.197163,-0.297139 0.197163,-0.476122 v -6.733963 c 0,-0.179152 -0.07061,-0.350254 -0.197163,-0.476121 z m 0.197164,8.278132 -0.952183,0.95217 h -6.176436 l -0.952181,-0.95217 v -6.17646 l 0.952181,-0.95217 h 6.176446 l 0.952182,0.95217 z m 4.713795,-12.51583 c 0,-0.371709 0.301555,-0.673406 0.673419,-0.673406 0.371728,0 0.673393,0.301527 0.673393,0.673406 0,0.371733 -0.301524,0.673406 -0.673393,0.673406 -0.371729,0 -0.673419,-0.301527 -0.673419,-0.673406 z m -18.855214,0 c 0,-0.371709 0.301673,-0.673406 0.673402,-0.673406 0.371718,0 0.67341,0.301527 0.67341,0.673406 0,0.371733 -0.301692,0.673406 -0.67341,0.673406 -0.371716,0 -0.673402,-0.301527 -0.673402,-0.673406 z m 18.855214,18.855176 c 0,-0.371733 0.301555,-0.673382 0.673419,-0.673382 0.371728,0 0.673393,0.301527 0.673393,0.673382 0,0.371733 -0.301524,0.673454 -0.673393,0.673454 -0.371729,0 -0.673419,-0.301527 -0.673419,-0.673454 z m -18.855214,0 c 0,-0.371733 0.301673,-0.673382 0.673402,-0.673382 0.371718,0 0.67341,0.301527 0.67341,0.673382 0,0.371733 -0.301692,0.673454 -0.67341,0.673454 -0.371716,0 -0.673402,-0.301527 -0.673402,-0.673454 z"
       id="path1570"
       style="fill:#477375;fill-opacity:1;stroke-width:0.2;stroke-miterlimit:4;stroke-dasharray:none" /><path
       d="m 138.8029,34.254368 v -1.547862 h 0.35076 c 0.46746,6.17e-4 0.84695,-0.378903 0.84634,-0.846331 V 21.08623 c -5.9e-4,-0.467473 -0.37945,-0.846354 -0.84634,-0.846354 h -38.30733 c -0.46805,0 -0.84692,0.378881 -0.84633,0.846354 v 10.773945 c 0,0.468045 0.3789,0.846948 0.84633,0.846331 h 0.35079 v 1.547862 c 0,0.468092 0.37885,0.846926 0.84632,0.846355 h 35.91311 c 0.46806,0 0.84695,-0.378881 0.84635,-0.846355 z m -0.49561,-7.533394 v 4.292823 h -0.70147 v -3.591315 z m -13.16813,-4.788389 -1.89798,1.89799 h -6.48235 l -1.89799,-1.89799 z m -23.44644,9.081212 v -4.292823 l 0.70147,0.701508 v 3.591315 z m 2.3948,-5.95e-4 v -3.942056 c 0,-0.224001 -0.0898,-0.439338 -0.24825,-0.597943 l -2.14643,-2.1464 v -2.394218 h 1.19709 l 2.74495,2.744938 c 0.33045,0.330445 0.86673,0.330445 1.19712,0 0.3304,-0.330378 0.3304,-0.866675 0,-1.197075 l -1.54784,-1.547863 h 2.3942 l 2.74493,2.744938 c 0.33039,0.330445 0.86675,0.330445 1.19711,0 0.3304,-0.330378 0.3304,-0.866675 0,-1.197075 l -1.54784,-1.547863 h 2.39421 l 3.34351,3.343498 c 0.15863,0.158627 0.37409,0.248274 0.59854,0.247954 h 7.18261 c 0.22468,-6.18e-4 0.43994,-0.08937 0.59855,-0.247954 l 3.34293,-3.342904 h 2.39422 l -1.54729,1.547269 c -0.33039,0.3304 -0.33039,0.866697 0,1.197075 0.3304,0.330445 0.86674,0.330445 1.19712,0 l 2.74496,-2.744938 h 2.3942 l -1.54787,1.547863 c -0.33037,0.3304 -0.33037,0.866697 0,1.197075 0.33042,0.330445 0.86675,0.330445 1.19711,0 l 2.74499,-2.744938 h 1.19708 v 2.394218 l -2.1464,2.1464 c -0.15863,0.158628 -0.24828,0.374103 -0.24764,0.598559 l -5.9e-4,3.94144 z m -1.19771,2.394812 v -0.701508 h 34.2204 v 0.701508 z"
       id="path1556"
       style="fill:#477375;fill-opacity:1;stroke:none;stroke-width:0.0999994;stroke-miterlimit:4;stroke-dasharray:none;stroke-opacity:1" /><rect
       style="fill:#dae8fc;fill-opacity:1;stroke:#6c8ebf;stroke-width:0.499998;stroke-dasharray:none;stroke-opacity:1"
       id="rect2-8-3"
       width="25.500284"
       height="8.0583725"
       x="102.09293"
       y="111.57082" /><path
       style="fill:none;fill-opacity:1;stroke:#477375;stroke-width:0.5;stroke-linecap:butt;stroke-linejoin:miter;stroke-miterlimit:4;stroke-dasharray:none;stroke-opacity:1;marker-start:url(#ConcaveTriangle);marker-end:url(#marker9)"
       d="M 94.00947,27.6703 H 42.50004"
       id="path5339" /><text
       xml:space="preserve"
       style="font-style:normal;font-weight:normal;font-size:7.69697px;line-height:1.25;font-family:sans-serif;letter-spacing:0px;word-spacing:0px;fill:#477375;fill-opacity:1;stroke:none;stroke-width:0.264583"
       x="12.345364"
       y="48.257454"
       id="text2804-2-3"><tspan
         sodipodi:role="line"
         id="tspan2802-9-6"
         x="12.345364"
         y="48.257454"
         style="font-style:normal;font-variant:normal;font-weight:bold;font-stretch:normal;font-size:7.69697px;font-family:'Noto Sans';-inkscape-font-specification:'Noto Sans Bold';fill:#477375;fill-opacity:1;stroke-width:0.264583">CPU</tspan></text><text
       xml:space="preserve"
       style="font-style:normal;font-weight:normal;font-size:7.69697px;line-height:1.25;font-family:sans-serif;letter-spacing:0px;word-spacing:0px;fill:#477375;fill-opacity:1;stroke:none;stroke-width:0.264583"
       x="108.38527"
       y="48.268993"
       id="text2804-2-7"><tspan
         sodipodi:role="line"
         x="108.38527"
         y="48.268993"
         style="font-style:normal;font-variant:normal;font-weight:bold;font-stretch:normal;font-size:7.69697px;font-family:'Noto Sans';-inkscape-font-specification:'Noto Sans Bold';fill:#477375;fill-opacity:1;stroke-width:0.264583"
         id="tspan988">DRAM</tspan></text><path
       d="m 135.8343,117.27302 c 1.7161,0 3.10734,-1.39126 3.10734,-3.10735 0,-1.7161 -1.39124,-3.10733 -3.10734,-3.10733 -1.71609,0 -3.10732,1.39123 -3.10732,3.10733 0,0.33015 0.0511,0.64972 0.14653,0.94809 l -2.84778,2.84782 c -0.0794,0.0794 -0.12359,0.18714 -0.12359,0.30014 v 1.41242 c 0,0.23481 0.18891,0.42372 0.42372,0.42372 h 1.41244 c 0.2348,0 0.42372,-0.18891 0.42372,-0.42372 v -0.70622 h 0.70621 c 0.23482,0 0.42372,-0.18891 0.42372,-0.42372 v -0.70621 h 0.70622 c 0.11299,0 0.22069,-0.0441 0.30014,-0.12359 l 0.58791,-0.58792 c 0.29838,0.0953 0.61794,0.14654 0.94808,0.14654 z m 0.70622,-4.51977 c 0.39018,0 0.70621,0.31602 0.70621,0.70621 0,0.39018 -0.31603,0.70621 -0.70621,0.70621 -0.39019,0 -0.70622,-0.31603 -0.70622,-0.70621 0,-0.39019 0.31603,-0.70621 0.70622,-0.70621 z"
       id="path1-7"
       style="fill:#6c8ebf;fill-opacity:1;stroke-width:0.264582" /><rect
       style="fill:#dae8fc;fill-opacity:1;stroke:#6c8ebf;stroke-width:0.499998;stroke-dasharray:none;stroke-opacity:1"
       id="rect2-8-6-8"
       width="39.499985"
       height="10.950424"
       x="0.249999"
       y="110.25" /><rect
       style="fill:#dae8fc;fill-opacity:1;stroke:#6c8ebf;stroke-width:0.499998;stroke-dasharray:none;stroke-opacity:1"
       id="rect2-8-3-9"
       width="25.500284"
       height="8.0583725"
       x="2.0929403"
       y="111.57082" /><text
       xml:space="preserve"
       style="font-style:normal;font-variant:normal;font-weight:normal;font-stretch:normal;font-size:5.29167px;font-family:'DejaVu Sans Mono';-inkscape-font-specification:'DejaVu Sans Mono, Normal';font-variant-ligatures:normal;font-variant-caps:normal;font-variant-numeric:normal;font-variant-east-asian:normal;text-align:start;writing-mode:lr-tb;direction:ltr;text-anchor:start;fill:#000000;fill-opacity:1;stroke:none;stroke-width:0.499999;stroke-linejoin:round;stroke-miterlimit:10;stroke-dasharray:2, 2;stroke-dashoffset:0;stroke-opacity:1"
       x="2.0686607"
       y="117.58697"
       id="text4-9-73"><tspan
         sodipodi:role="line"
         id="tspan8-6"
         x="2.0686607"
         y="117.58697">LD field</tspan></text><text
       xml:space="preserve"
       style="font-style:normal;font-variant:normal;font-weight:normal;font-stretch:normal;font-size:5.29167px;font-family:'DejaVu Sans Mono';-inkscape-font-specification:'DejaVu Sans Mono, Normal';font-variant-ligatures:normal;font-variant-caps:normal;font-variant-numeric:normal;font-variant-east-asian:normal;text-align:start;writing-mode:lr-tb;direction:ltr;text-anchor:start;fill:#000000;fill-opacity:1;stroke:none;stroke-width:0.499999;stroke-linejoin:round;stroke-miterlimit:10;stroke-dasharray:2, 2;stroke-dashoffset:0;stroke-opacity:1"
       x="102.06866"
       y="117.58697"
       id="text4-9-73-2"><tspan
         sodipodi:role="line"
         id="tspan8-6-7"
         x="102.06866"
         y="117.58697">LD field</tspan></text></g></svg>
