<?xml version="1.0" encoding="UTF-8" standalone="no"?>
<!-- Created with Inkscape (http://www.inkscape.org/) -->

<svg
   width="140mm"
   height="130mm"
   viewBox="0 0 140 130"
   version="1.1"
   id="svg1"
   inkscape:version="1.4.2 (ebf0e940d0, 2025-05-08)"
   sodipodi:docname="sev-step2.svg"
   xml:space="preserve"
   inkscape:export-filename="sev-step2.png"
   inkscape:export-xdpi="500"
   inkscape:export-ydpi="500"
   xmlns:inkscape="http://www.inkscape.org/namespaces/inkscape"
   xmlns:sodipodi="http://sodipodi.sourceforge.net/DTD/sodipodi-0.dtd"
   xmlns="http://www.w3.org/2000/svg"
   xmlns:svg="http://www.w3.org/2000/svg"><sodipodi:namedview
     id="namedview1"
     pagecolor="#ffffff"
     bordercolor="#000000"
     borderopacity="0.25"
     inkscape:showpageshadow="2"
     inkscape:pageopacity="0.0"
     inkscape:pagecheckerboard="0"
     inkscape:deskcolor="#d1d1d1"
     inkscape:document-units="mm"
     inkscape:zoom="1.4142136"
     inkscape:cx="172.8876"
     inkscape:cy="268.70057"
     inkscape:window-width="1920"
     inkscape:window-height="1011"
     inkscape:window-x="0"
     inkscape:window-y="0"
     inkscape:window-maximized="1"
     inkscape:current-layer="layer1"
     inkscape:lockguides="false"
     showgrid="false" /><defs
     id="defs1"><marker
       style="overflow:visible"
       id="marker9"
       refX="0"
       refY="0"
       orient="auto-start-reverse"
       inkscape:stockid="Concave triangle arrow"
       markerWidth="0.75"
       markerHeight="0.75"
       viewBox="0 0 1 1"
       inkscape:isstock="true"
       inkscape:collect="always"
       preserveAspectRatio="xMidYMid"><path
         transform="scale(0.7)"
         d="M -2,-4 9,0 -2,4 c 2,-2.33 2,-5.66 0,-8 z"
         style="fill:context-stroke;fill-rule:evenodd;stroke:none"
         id="path9" /></marker><marker
       style="overflow:visible"
       id="ConcaveTriangle"
       refX="0"
       refY="0"
       orient="auto-start-reverse"
       inkscape:stockid="Concave triangle arrow"
       markerWidth="1"
       markerHeight="1"
       viewBox="0 0 1 1"
       inkscape:isstock="true"
       inkscape:collect="always"
       preserveAspectRatio="xMidYMid"><path
         transform="scale(0.7)"
         d="M -2,-4 9,0 -2,4 c 2,-2.33 2,-5.66 0,-8 z"
         style="fill:context-stroke;fill-rule:evenodd;stroke:none"
         id="path7" /></marker><linearGradient
       id="swatch2"
       inkscape:swatch="solid"><stop
         style="stop-color:#070505;stop-opacity:1;"
         offset="0"
         id="stop2" /></linearGradient><marker
       style="overflow:visible"
       id="marker1610"
       refX="0"
       refY="0"
       orient="auto"
       inkscape:stockid="Arrow2Mend"
       inkscape:isstock="true"
       viewBox="0 0 6.9304588 5.1962256"
       markerWidth="6.9304585"
       markerHeight="5.1962252"
       preserveAspectRatio="xMidYMid"><path
         transform="scale(-0.6)"
         d="M 8.7185878,4.0337352 -2.2072895,0.01601326 8.7185884,-4.0017078 c -1.7454984,2.3720609 -1.7354408,5.6174519 -6e-7,8.035443 z"
         style="fill:#850000;fill-opacity:1;fill-rule:evenodd;stroke:#850000;stroke-width:0.625;stroke-linejoin:round;stroke-opacity:1"
         id="path1608" /></marker></defs><rect
     style="fill:#f0f6fe;fill-opacity:0.69999999;stroke:#bbcce4;stroke-width:0.5;stroke-dasharray:2, 2;stroke-dashoffset:0;stroke-opacity:1"
     id="rect1-1-3-1"
     width="139.5"
     height="39.5"
     x="0.25"
     y="90.047211" /><g
     inkscape:label="Layer 1"
     inkscape:groupmode="layer"
     id="layer1"><rect
       style="fill:#fcebeb;fill-opacity:0.69999999;stroke:#e1afad;stroke-width:0.5;stroke-linejoin:round;stroke-miterlimit:10;stroke-dasharray:2, 2;stroke-dashoffset:0;stroke-opacity:1"
       id="rect4"
       width="139.5"
       height="39"
       x="0.25000191"
       y="50.797215"
       ry="0" /><rect
       style="fill:#fcebeb;fill-opacity:1;stroke:#070505;stroke-width:0.499999;stroke-dasharray:none;stroke-opacity:1"
       id="rect1"
       width="39.5"
       height="39.5"
       x="0.25"
       y="50.547215" /><rect
       style="fill:#f0f6fe;fill-opacity:1;stroke:#070505;stroke-width:0.499999;stroke-dasharray:none;stroke-opacity:1"
       id="rect1-1"
       width="39.5"
       height="39.5"
       x="0.25"
       y="90.047211" /><rect
       style="fill:#fcebeb;fill-opacity:1;stroke:#070505;stroke-width:0.499999;stroke-dasharray:none;stroke-opacity:1"
       id="rect1-9"
       width="39.5"
       height="39.5"
       x="100.25"
       y="50.547215" /><rect
       style="fill:#f0f6fe;fill-opacity:1;stroke:#070505;stroke-width:0.499999;stroke-dasharray:none;stroke-opacity:1"
       id="rect1-1-3"
       width="39.5"
       height="39.724781"
       x="100.25"
       y="90.047211" /><rect
       style="fill:#dae8fc;fill-opacity:1;stroke:#6c8ebf;stroke-width:0.499998;stroke-dasharray:none;stroke-opacity:1"
       id="rect2-8-6"
       width="39.499985"
       height="10.950424"
       x="100.24999"
       y="110.25" /><rect
       style="fill:#d5e8d4;fill-opacity:1;stroke:#51914d;stroke-width:0.499998;stroke-dasharray:none;stroke-opacity:1"
       id="rect2-8-6-1"
       width="39.499985"
       height="10.656157"
       x="100.24999"
       y="95.25" /><rect
       style="fill:none;fill-opacity:1;stroke:#666666;stroke-width:1;stroke-linejoin:round;stroke-miterlimit:10;stroke-dasharray:1, 1;stroke-dashoffset:0;stroke-opacity:1"
       id="rect3"
       width="14"
       height="79.000008"
       x="63"
       y="50.5"
       ry="2.2613726" /><path
       d="M 31.447821,16.479629 H 8.552192 c -0.372395,0 -0.673403,0.301163 -0.673403,0.673406 v 22.895587 c 0,0.372437 0.301015,0.673431 0.673403,0.673431 h 22.895629 c 0.37239,0 0.673391,-0.301139 0.673391,-0.673431 V 17.153035 c 0,-0.372388 -0.301137,-0.673406 -0.673391,-0.673406 z M 30.774429,39.375265 H 9.225591 V 17.826417 H 30.774429 Z M 12.592582,36.681641 h 14.814834 c 0.372366,0 0.673391,-0.301163 0.673391,-0.673382 V 21.193447 c 0,-0.372388 -0.301166,-0.673406 -0.673391,-0.673406 H 12.592582 c -0.372393,0 -0.673394,0.301164 -0.673394,0.673406 v 14.814812 c 0,0.372363 0.301137,0.673382 0.673394,0.673382 z m 0.67339,-14.814812 H 26.734024 V 35.334877 H 13.265972 Z m 10.577117,1.544122 C 23.717077,23.284162 23.545966,23.21386 23.366984,23.21386 h -6.734 c -0.179175,0 -0.350238,0.07078 -0.476104,0.197091 l -1.347447,1.346787 c -0.125164,0.12606 -0.196631,0.297503 -0.196631,0.476121 v 6.733963 c 0,0.178425 0.07061,0.35028 0.196631,0.476122 l 1.347447,1.346812 c 0.126279,0.126303 0.297511,0.197091 0.476104,0.197091 h 6.734 c 0.179176,0 0.350264,-0.07054 0.476105,-0.197091 l 1.34681,-1.346812 c 0.126278,-0.126061 0.197163,-0.297139 0.197163,-0.476122 v -6.733963 c 0,-0.179152 -0.07061,-0.350254 -0.197163,-0.476121 z m 0.197164,8.278132 -0.952183,0.95217 h -6.176436 l -0.952181,-0.95217 v -6.17646 l 0.952181,-0.95217 h 6.176446 l 0.952182,0.95217 z m 4.713795,-12.51583 c 0,-0.371709 0.301555,-0.673406 0.673419,-0.673406 0.371728,0 0.673393,0.301527 0.673393,0.673406 0,0.371733 -0.301524,0.673406 -0.673393,0.673406 -0.371729,0 -0.673419,-0.301527 -0.673419,-0.673406 z m -18.855214,0 c 0,-0.371709 0.301673,-0.673406 0.673402,-0.673406 0.371718,0 0.67341,0.301527 0.67341,0.673406 0,0.371733 -0.301692,0.673406 -0.67341,0.673406 -0.371716,0 -0.673402,-0.301527 -0.673402,-0.673406 z m 18.855214,18.855176 c 0,-0.371733 0.301555,-0.673382 0.673419,-0.673382 0.371728,0 0.673393,0.301527 0.673393,0.673382 0,0.371733 -0.301524,0.673454 -0.673393,0.673454 -0.371729,0 -0.673419,-0.301527 -0.673419,-0.673454 z m -18.855214,0 c 0,-0.371733 0.301673,-0.673382 0.673402,-0.673382 0.371718,0 0.67341,0.301527 0.67341,0.673382 0,0.371733 -0.301692,0.673454 -0.67341,0.673454 -0.371716,0 -0.673402,-0.301527 -0.673402,-0.673454 z"
       id="path1570"
       style="fill:#477375;fill-opacity:1;stroke-width:0.2;stroke-miterlimit:4;stroke-dasharray:none" /><path
       d="m 138.8029,34.254368 v -1.547862 h 0.35076 c 0.46746,6.17e-4 0.84695,-0.378903 0.84634,-0.846331 V 21.08623 c -5.9e-4,-0.467473 -0.37945,-0.846354 -0.84634,-0.846354 h -38.30733 c -0.46805,0 -0.84692,0.378881 -0.84633,0.846354 v 10.773945 c 0,0.468045 0.3789,0.846948 0.84633,0.846331 h 0.35079 v 1.547862 c 0,0.468092 0.37885,0.846926 0.84632,0.846355 h 35.91311 c 0.46806,0 0.84695,-0.378881 0.84635,-0.846355 z m -0.49561,-7.533394 v 4.292823 h -0.70147 v -3.591315 z m -13.16813,-4.788389 -1.89798,1.89799 h -6.48235 l -1.89799,-1.89799 z m -23.44644,9.081212 v -4.292823 l 0.70147,0.701508 v 3.591315 z m 2.3948,-5.95e-4 v -3.942056 c 0,-0.224001 -0.0898,-0.439338 -0.24825,-0.597943 l -2.14643,-2.1464 v -2.394218 h 1.19709 l 2.74495,2.744938 c 0.33045,0.330445 0.86673,0.330445 1.19712,0 0.3304,-0.330378 0.3304,-0.866675 0,-1.197075 l -1.54784,-1.547863 h 2.3942 l 2.74493,2.744938 c 0.33039,0.330445 0.86675,0.330445 1.19711,0 0.3304,-0.330378 0.3304,-0.866675 0,-1.197075 l -1.54784,-1.547863 h 2.39421 l 3.34351,3.343498 c 0.15863,0.158627 0.37409,0.248274 0.59854,0.247954 h 7.18261 c 0.22468,-6.18e-4 0.43994,-0.08937 0.59855,-0.247954 l 3.34293,-3.342904 h 2.39422 l -1.54729,1.547269 c -0.33039,0.3304 -0.33039,0.866697 0,1.197075 0.3304,0.330445 0.86674,0.330445 1.19712,0 l 2.74496,-2.744938 h 2.3942 l -1.54787,1.547863 c -0.33037,0.3304 -0.33037,0.866697 0,1.197075 0.33042,0.330445 0.86675,0.330445 1.19711,0 l 2.74499,-2.744938 h 1.19708 v 2.394218 l -2.1464,2.1464 c -0.15863,0.158628 -0.24828,0.374103 -0.24764,0.598559 l -5.9e-4,3.94144 z m -1.19771,2.394812 v -0.701508 h 34.2204 v 0.701508 z"
       id="path1556"
       style="fill:#477375;fill-opacity:1;stroke:none;stroke-width:0.0999994;stroke-miterlimit:4;stroke-dasharray:none;stroke-opacity:1" /><rect
       style="fill:#d5e8d4;fill-opacity:1;stroke:#51914d;stroke-width:0.499998;stroke-dasharray:none;stroke-opacity:1"
       id="rect2-8-3"
       width="25.500284"
       height="8.0583725"
       x="102.09293"
       y="111.57082" /><path
       style="fill:none;fill-opacity:1;stroke:#477375;stroke-width:0.5;stroke-linecap:butt;stroke-linejoin:miter;stroke-miterlimit:4;stroke-dasharray:none;stroke-opacity:1;marker-start:url(#ConcaveTriangle);marker-end:url(#marker9)"
       d="M 94.00947,27.6703 H 42.50004"
       id="path5339" /><text
       xml:space="preserve"
       style="font-style:normal;font-weight:normal;font-size:7.69697px;line-height:1.25;font-family:sans-serif;letter-spacing:0px;word-spacing:0px;fill:#477375;fill-opacity:1;stroke:none;stroke-width:0.264583"
       x="12.345364"
       y="48.257454"
       id="text2804-2-3"><tspan
         sodipodi:role="line"
         id="tspan2802-9-6"
         x="12.345364"
         y="48.257454"
         style="font-style:normal;font-variant:normal;font-weight:bold;font-stretch:normal;font-size:7.69697px;font-family:'Noto Sans';-inkscape-font-specification:'Noto Sans Bold';fill:#477375;fill-opacity:1;stroke-width:0.264583">CPU</tspan></text><text
       xml:space="preserve"
       style="font-style:normal;font-weight:normal;font-size:7.69697px;line-height:1.25;font-family:sans-serif;letter-spacing:0px;word-spacing:0px;fill:#477375;fill-opacity:1;stroke:none;stroke-width:0.264583"
       x="108.38527"
       y="48.268993"
       id="text2804-2-7"><tspan
         sodipodi:role="line"
         x="108.38527"
         y="48.268993"
         style="font-style:normal;font-variant:normal;font-weight:bold;font-stretch:normal;font-size:7.69697px;font-family:'Noto Sans';-inkscape-font-specification:'Noto Sans Bold';fill:#477375;fill-opacity:1;stroke-width:0.264583"
         id="tspan988">DRAM</tspan></text><text
       xml:space="preserve"
       style="font-style:normal;font-variant:normal;font-weight:normal;font-stretch:normal;font-size:5.64444px;font-family:'DejaVu Sans Mono';-inkscape-font-specification:'DejaVu Sans Mono, Normal';font-variant-ligatures:normal;font-variant-caps:normal;font-variant-numeric:normal;font-variant-east-asian:normal;text-align:start;writing-mode:lr-tb;direction:ltr;text-anchor:start;fill:#000000;fill-opacity:1;stroke:none;stroke-width:0.499999;stroke-linejoin:round;stroke-miterlimit:10;stroke-dasharray:2, 2;stroke-dashoffset:0;stroke-opacity:1"
       x="103.4304"
       y="117.49737"
       id="text4-9"><tspan
         sodipodi:role="line"
         id="tspan8"
         x="103.4304"
         y="117.49737">hash(A)</tspan></text><text
       xml:space="preserve"
       style="font-style:normal;font-variant:normal;font-weight:normal;font-stretch:normal;font-size:5.64444px;font-family:'DejaVu Sans Mono';-inkscape-font-specification:'DejaVu Sans Mono, Normal';font-variant-ligatures:normal;font-variant-caps:normal;font-variant-numeric:normal;font-variant-east-asian:normal;text-align:start;writing-mode:lr-tb;direction:ltr;text-anchor:start;fill:#000000;fill-opacity:1;stroke:none;stroke-width:0.499999;stroke-linejoin:round;stroke-miterlimit:10;stroke-dasharray:2, 2;stroke-dashoffset:0;stroke-opacity:1"
       x="102.30054"
       y="102.02915"
       id="text4-9-7"><tspan
         sodipodi:role="line"
         id="tspan8-9"
         x="102.30054"
         y="102.02915">Image A</tspan></text><path
       d="m 135.8343,102.273 c 1.7161,0 3.10734,-1.39126 3.10734,-3.107344 0,-1.716091 -1.39124,-3.107325 -3.10734,-3.107325 -1.71609,0 -3.10732,1.391234 -3.10732,3.107325 0,0.330151 0.0511,0.64972 0.14653,0.948094 l -2.84778,2.84781 c -0.0794,0.0794 -0.12359,0.18714 -0.12359,0.30014 v 1.41242 c 0,0.23481 0.18891,0.42372 0.42372,0.42372 h 1.41244 c 0.2348,0 0.42372,-0.18891 0.42372,-0.42372 v -0.70622 h 0.70621 c 0.23482,0 0.42372,-0.18891 0.42372,-0.42372 v -0.70621 h 0.70622 c 0.11299,0 0.22069,-0.0441 0.30014,-0.12359 l 0.58791,-0.58792 c 0.29838,0.0953 0.61794,0.14654 0.94808,0.14654 z m 0.70622,-4.519763 c 0.39018,0 0.70621,0.316028 0.70621,0.706211 0,0.390182 -0.31603,0.706208 -0.70621,0.706208 -0.39019,0 -0.70622,-0.316026 -0.70622,-0.706208 0,-0.390183 0.31603,-0.706211 0.70622,-0.706211 z"
       id="path1"
       style="fill:#51914d;fill-opacity:1;stroke-width:0.264582" /><rect
       style="fill:#d5e8d4;fill-opacity:1;stroke:#51914d;stroke-width:0.499998;stroke-dasharray:none;stroke-opacity:1"
       id="rect2-8-6-1-9"
       width="39.499985"
       height="10.656157"
       x="0.249999"
       y="95.25" /><text
       xml:space="preserve"
       style="font-style:normal;font-variant:normal;font-weight:normal;font-stretch:normal;font-size:5.64444px;font-family:'DejaVu Sans Mono';-inkscape-font-specification:'DejaVu Sans Mono, Normal';font-variant-ligatures:normal;font-variant-caps:normal;font-variant-numeric:normal;font-variant-east-asian:normal;text-align:start;writing-mode:lr-tb;direction:ltr;text-anchor:start;fill:#000000;fill-opacity:1;stroke:none;stroke-width:0.499999;stroke-linejoin:round;stroke-miterlimit:10;stroke-dasharray:2, 2;stroke-dashoffset:0;stroke-opacity:1"
       x="2.3005438"
       y="102.02915"
       id="text4-9-7-4"><tspan
         sodipodi:role="line"
         id="tspan8-9-7"
         x="2.3005438"
         y="102.02915">Image A</tspan></text><path
       d="m 135.8343,117.27302 c 1.7161,0 3.10734,-1.39126 3.10734,-3.10735 0,-1.7161 -1.39124,-3.10733 -3.10734,-3.10733 -1.71609,0 -3.10732,1.39123 -3.10732,3.10733 0,0.33015 0.0511,0.64972 0.14653,0.94809 l -2.84778,2.84782 c -0.0794,0.0794 -0.12359,0.18714 -0.12359,0.30014 v 1.41242 c 0,0.23481 0.18891,0.42372 0.42372,0.42372 h 1.41244 c 0.2348,0 0.42372,-0.18891 0.42372,-0.42372 v -0.70622 h 0.70621 c 0.23482,0 0.42372,-0.18891 0.42372,-0.42372 v -0.70621 h 0.70622 c 0.11299,0 0.22069,-0.0441 0.30014,-0.12359 l 0.58791,-0.58792 c 0.29838,0.0953 0.61794,0.14654 0.94808,0.14654 z m 0.70622,-4.51977 c 0.39018,0 0.70621,0.31602 0.70621,0.70621 0,0.39018 -0.31603,0.70621 -0.70621,0.70621 -0.39019,0 -0.70622,-0.31603 -0.70622,-0.70621 0,-0.39019 0.31603,-0.70621 0.70622,-0.70621 z"
       id="path1-7"
       style="fill:#6c8ebf;fill-opacity:1;stroke-width:0.264582" /><rect
       style="fill:#dae8fc;fill-opacity:1;stroke:#6c8ebf;stroke-width:0.499998;stroke-dasharray:none;stroke-opacity:1"
       id="rect2-8-6-8"
       width="39.499985"
       height="10.950424"
       x="0.249999"
       y="110.25" /><rect
       style="fill:#d5e8d4;fill-opacity:1;stroke:#51914d;stroke-width:0.499998;stroke-dasharray:none;stroke-opacity:1"
       id="rect2-8-3-9"
       width="25.500284"
       height="8.0583725"
       x="2.0929403"
       y="111.57082" /><text
       xml:space="preserve"
       style="font-style:normal;font-variant:normal;font-weight:normal;font-stretch:normal;font-size:5.64444px;font-family:'DejaVu Sans Mono';-inkscape-font-specification:'DejaVu Sans Mono, Normal';font-variant-ligatures:normal;font-variant-caps:normal;font-variant-numeric:normal;font-variant-east-asian:normal;text-align:start;writing-mode:lr-tb;direction:ltr;text-anchor:start;fill:#000000;fill-opacity:1;stroke:none;stroke-width:0.499999;stroke-linejoin:round;stroke-miterlimit:10;stroke-dasharray:2, 2;stroke-dashoffset:0;stroke-opacity:1"
       x="3.4304037"
       y="117.49736"
       id="text4-9-73"><tspan
         sodipodi:role="line"
         id="tspan8-6"
         x="3.4304037"
         y="117.49736">hash(A)</tspan></text><path
       style="fill:#477375;fill-opacity:1;stroke-width:0.264583"
       d="m 75.316,25.664106 c -0.168,-0.04933 -0.60461,-0.184527 -0.97025,-0.300472 -0.86205,-0.273366 -4.9076,-1.535911 -6.18085,-1.928924 -0.54351,-0.167776 -1.03615,-0.332862 -1.09474,-0.366867 -0.19518,-0.11327 -0.23009,-0.224225 -0.2568,-0.816029 -0.0273,-0.605372 -0.006,-0.691636 0.21057,-0.854755 0.0643,-0.04837 0.53727,-0.299436 1.05114,-0.557895 0.51387,-0.25846 1.16832,-0.591949 1.45433,-0.74109 l 0.52002,-0.27116 0.32446,0.0231 c 0.17845,0.01276 0.45021,0.03322 0.60391,0.04559 l 0.27946,0.02249 -0.56694,0.302679 c -0.73856,0.394305 -1.69042,0.926727 -1.81568,1.015602 -0.11801,0.08372 -0.13177,0.224738 -0.0274,0.280603 0.10875,0.0582 0.42391,0.150108 1.58157,0.461211 1.93294,0.519447 3.6032,0.974554 4.25832,1.1603 1.09684,0.310983 1.19625,0.289956 2.09026,-0.442204 0.29977,-0.2455 0.96036,-0.768895 1.46796,-1.163092 2.41191,-1.873059 2.40652,-1.868674 2.41816,-1.9663 0.0157,-0.131331 -0.0856,-0.186771 -0.53313,-0.291927 -0.78229,-0.183804 -2.28885,-0.45269 -2.5371,-0.452818 -0.0816,-3.5e-5 -0.21096,0.02593 -0.28749,0.05778 -0.17611,0.07322 -0.81782,0.365716 -1.30209,0.593505 -0.20481,0.09633 -0.37808,0.175156 -0.38503,0.175156 -0.007,0 -0.17709,0.08086 -0.37806,0.179674 -0.39426,0.193856 -0.41863,0.202842 -0.36556,0.134753 0.0193,-0.02472 0.24956,-0.530047 0.51179,-1.122977 0.26223,-0.592926 0.53863,-1.199334 0.61422,-1.347566 l 0.13743,-0.269512 -0.0196,0.359352 c -0.0212,0.387984 -0.11543,0.923079 -0.22426,1.272752 -0.0374,0.120197 -0.0647,0.218552 -0.0607,0.218552 0.0211,0 0.60226,-0.2198 0.75125,-0.284143 0.0953,-0.04113 0.42371,-0.213346 0.72991,-0.382696 l 0.55671,-0.307902 0.40206,0.07595 c 0.22112,0.04179 0.79015,0.155468 1.26449,0.252659 0.47435,0.09718 1.18586,0.235851 1.58115,0.308149 1.13514,0.207606 1.13163,0.204078 1.13182,1.135846 0,0.410352 -0.0148,0.668992 -0.042,0.728656 -0.0232,0.05089 -0.29404,0.308759 -0.60191,0.573068 -1.12482,0.965659 -1.97937,1.701786 -2.48516,2.140757 -1.89694,1.646332 -2.61523,2.242796 -2.81805,2.340095 -0.2777,0.133225 -0.55876,0.136072 -0.98822,0.01 z m -1.41184,-1.666605 c 0.12205,-0.0874 0.18037,-0.149093 0.14996,-0.158639 -0.0274,-0.0086 -0.12944,-0.04124 -0.22685,-0.0726 -0.0974,-0.03136 -0.20132,-0.05699 -0.23094,-0.05699 -0.0696,0 -0.45365,0.263779 -0.40675,0.279415 0.0362,0.01206 0.48165,0.14404 0.50312,0.149063 0.006,0.0012 0.10161,-0.06161 0.21146,-0.140265 z m -1.21108,-0.349342 c 0.20106,-0.150107 0.1969,-0.158224 -0.12582,-0.245579 l -0.21674,-0.05868 -0.18615,0.119804 c -0.10239,0.0659 -0.1871,0.128948 -0.18825,0.140111 -0.002,0.01683 0.41826,0.15914 0.51091,0.17313 0.0154,0.0024 0.10806,-0.05566 0.20604,-0.128793 z m 4.9603,-0.224817 0.21407,-0.178148 -0.24646,-0.0734 c -0.13555,-0.04035 -0.26676,-0.0734 -0.29156,-0.0734 -0.0756,0 -0.47979,0.321465 -0.42665,0.339344 0.059,0.01984 0.51128,0.158917 0.52598,0.161728 0.006,0.0012 0.10689,-0.07815 0.22462,-0.176124 z m -6.11754,-0.325311 c -0.0258,-0.0129 -0.14744,-0.05283 -0.27029,-0.08873 l -0.22336,-0.06528 -0.1776,0.122104 c -0.0977,0.06716 -0.1706,0.129243 -0.16205,0.137965 0.009,0.0087 0.12429,0.05018 0.25721,0.09214 l 0.24168,0.07626 0.19067,-0.125511 c 0.12519,-0.08242 0.17456,-0.133562 0.14374,-0.148954 z m -1.34652,-0.230817 0.17353,-0.12338 -0.24551,-0.07186 c -0.13504,-0.0395 -0.26977,-0.07686 -0.29942,-0.08299 -0.0297,-0.0062 -0.13192,0.04493 -0.22728,0.113423 l -0.17339,0.124544 0.22729,0.07901 c 0.30647,0.106524 0.34421,0.103845 0.54478,-0.03878 z m 8.48135,-0.299043 0.21035,-0.170514 -0.24629,-0.07567 c -0.27296,-0.08388 -0.27731,-0.08284 -0.52646,0.125497 l -0.17238,0.144143 0.15441,0.03974 c 0.0849,0.02183 0.19484,0.05372 0.24425,0.07088 0.0494,0.01712 0.0979,0.03238 0.1078,0.03383 0.01,0.0012 0.11263,-0.07407 0.22832,-0.167853 z m -9.7954,-0.103677 c 0.10446,-0.07194 0.18545,-0.134964 0.17999,-0.140026 -0.005,-0.0048 -0.14238,-0.04969 -0.30424,-0.09919 l -0.29431,-0.08999 -0.18184,0.127292 c -0.10001,0.07001 -0.18173,0.137124 -0.18161,0.149155 4.1e-4,0.02339 0.44892,0.173039 0.53849,0.179625 0.0295,0.0024 0.13906,-0.05493 0.24352,-0.126873 z M 79.6501,21.759809 79.84626,21.60708 79.5878,21.52765 79.32934,21.44822 79.15392,21.595089 c -0.0965,0.08078 -0.16536,0.156944 -0.15307,0.169265 0.0123,0.01234 0.114,0.04879 0.22603,0.08104 0.11203,0.03225 0.20895,0.06055 0.21538,0.06288 0.006,0.0024 0.0999,-0.06448 0.20784,-0.148473 z m 0.8795,-0.736675 0.18082,-0.134754 -0.15222,-0.0445 c -0.32892,-0.09615 -0.36062,-0.0925 -0.52827,0.06067 l -0.15528,0.141871 0.17325,0.05325 c 0.25109,0.07716 0.28213,0.07222 0.4817,-0.07651 z m 0.78751,-0.677169 c 0.0989,-0.07104 0.17189,-0.141941 0.16223,-0.157561 -0.01,-0.01562 -0.12211,-0.04811 -0.24992,-0.07223 l -0.23237,-0.04384 -0.16427,0.134613 c -0.0903,0.07403 -0.15768,0.141193 -0.14963,0.149244 0.0168,0.01683 0.34213,0.1078 0.40934,0.114489 0.0247,0.0024 0.12574,-0.05367 0.22462,-0.124698 z M 68.91954,19.802827 c -0.0889,-0.02732 -0.51465,-0.130042 -0.94603,-0.228242 -0.43137,-0.09819 -1.43396,-0.341726 -2.22798,-0.541174 -0.79401,-0.199453 -1.74281,-0.425215 -2.10845,-0.501703 -0.66127,-0.138344 -0.66308,-0.138975 -0.34139,-0.120576 0.43162,0.02467 4.27027,0.08759 4.28759,0.07027 0.007,-0.0074 -0.0603,-0.08751 -0.15063,-0.177829 -0.0903,-0.09033 -0.15869,-0.164229 -0.15192,-0.164229 0.10507,0 0.78731,0.147912 1.32832,0.28799 0.38061,0.09854 0.7046,0.179167 0.71996,0.179167 0.0345,0 -0.14248,-0.31854 -0.49796,-0.89619 -0.14897,-0.242075 -0.27086,-0.446805 -0.27086,-0.454952 0,-0.04588 1.09929,0.787603 2.27514,1.725106 0.5842,0.465776 0.72794,0.59629 0.65673,0.59629 -0.0903,0 -0.71557,-0.115232 -2.14129,-0.394588 -0.40517,-0.07939 -0.74962,-0.144366 -0.76544,-0.144396 -0.0158,-2.4e-5 0.0936,0.180228 0.24323,0.400564 0.14959,0.220335 0.26765,0.403664 0.26234,0.407402 -0.005,0.0036 -0.0824,-0.01555 -0.17136,-0.04287 z m 4.69608,-0.470191 c -0.0111,-0.107071 -0.0276,-0.202227 -0.0369,-0.211459 -0.009,-0.0093 -0.0795,0.02286 -0.15626,0.07128 -0.0767,0.04842 -0.24221,0.1399 -0.36776,0.203283 l -0.22827,0.115233 -0.23755,-0.230949 c -0.13066,-0.127026 -0.49629,-0.447715 -0.81252,-0.712652 -0.66153,-0.554228 -1.13395,-0.995648 -1.2811,-1.197041 -0.0948,-0.129705 -0.10241,-0.164508 -0.10255,-0.467158 -4.1e-4,-0.701694 -0.17015,-1.348632 -0.55281,-2.105799 -0.4116,-0.814413 -0.75098,-1.298859 -1.24957,-1.783726 -0.54924,-0.534118 -1.05542,-0.786637 -1.89906,-0.947394 -0.48548,-0.0925 -0.50091,-0.08986 -0.19033,0.03269 0.14223,0.05614 0.36863,0.180271 0.5031,0.275887 0.28838,0.205061 1.48153,1.381463 1.69643,1.672618 l 0.14936,0.20236 -0.0728,0.194567 c -0.16992,0.454138 -0.92919,1.467231 -1.74716,2.331225 -0.49035,0.517933 -0.66282,0.67085 -0.7937,0.703703 -0.10987,0.02756 -1.61646,-0.284602 -3.8553,-0.798842 l -0.26797,-0.06155 0.12271,-0.09324 c 0.42231,-0.320897 0.81177,-0.654591 1.3602,-1.165431 0.34297,-0.319457 0.64586,-0.586003 0.67311,-0.592316 0.0682,-0.01581 0.53464,0.08027 1.21877,0.251083 0.31623,0.07895 0.59294,0.146284 0.61491,0.149619 0.0354,0.0055 0.48986,-0.480037 0.67696,-0.722987 l 0.0701,-0.09099 -0.1599,-0.13882 c -0.088,-0.07636 -0.37486,-0.302934 -0.63758,-0.503514 l -0.47767,-0.364678 -1.22925,0.333345 c -0.67609,0.183345 -1.62544,0.437716 -2.10967,0.565276 -2.21253,0.582841 -3.67032,0.96716 -4.35782,1.148853 -0.43732,0.115569 -0.77673,0.187597 -0.81972,0.173957 -0.10596,-0.03364 -0.13043,-0.111194 -0.24765,-0.78499 -0.058,-0.333423 -0.11278,-0.613537 -0.12171,-0.622474 -0.009,-0.009 -0.18231,0.0334 -0.38527,0.09416 -0.37025,0.110758 -0.55141,0.133841 -0.63485,0.08085 -0.0246,-0.01562 -0.0765,-0.205405 -0.11526,-0.421689 -0.1835,-1.024081 -0.4688,-2.679699 -0.4688,-2.720481 0,-0.02509 0.0801,-0.07402 0.17794,-0.108768 0.3448,-0.122454 0.50535,-0.32747 0.50404,-0.643634 C 55.76449,10.05337 55.55112,9.796516 55.16965,9.724856 54.87024,9.668596 54.8689,9.668046 54.8689,9.593581 54.8689,9.556561 54.73145,8.736389 54.56345,7.771019 54.39545,6.805648 54.258,5.972814 54.258,5.920272 c 0,-0.05252 0.0283,-0.119636 0.0629,-0.149118 C 54.381,5.719894 55.25759,5.468052 57.3664,4.896112 57.90004,4.751384 58.62773,4.552764 58.98349,4.454729 59.33924,4.356699 60.0831,4.160063 60.6365,4.017754 62.36917,3.57221 63.67075,3.226678 64.23002,3.063782 64.99498,2.840979 66.0565,2.553454 67.14076,2.275371 68.3102,1.975453 68.28091,1.984909 68.38423,1.873933 68.68474,1.551142 69.51594,0.952995 70.00727,0.705957 70.95619,0.2288496 71.7768,0.0326234 72.94429,0.0036604 c 0.82693,-0.020503 1.41466,0.043964 2.03028,0.2228023 1.5267,0.4434573 2.80576,1.4509423 3.53087,2.7811693 0.46354,0.850373 0.68592,1.671032 0.76308,2.816004 0.0826,1.225222 -0.13712,2.397328 -0.74572,3.978768 l -0.20053,0.521062 -0.005,0.628866 c -0.004,0.576474 -0.0129,0.655803 -0.10367,0.952277 -0.18042,0.589633 -0.57478,1.328842 -0.93935,1.760824 -0.1257,0.14896 -0.17445,0.255305 -0.28512,0.62207 -0.18528,0.613995 -0.369,1.039077 -0.74793,1.73049 -0.35702,0.651443 -0.52666,0.931853 -0.7942,1.312824 -0.58396,0.831528 -0.97893,1.324909 -1.48331,1.8529 l -0.32826,0.343621 z m -0.343,-1.050765 0.1307,-0.08582 -0.005,-0.432622 c -0.005,-0.405049 0.001,-0.445526 0.0945,-0.635148 0.072,-0.146664 0.13045,-0.215373 0.2118,-0.249065 0.10652,-0.04415 0.11757,-0.04064 0.21373,0.06695 0.1812,0.202799 0.25563,0.624651 0.15665,0.887735 -0.0464,0.123268 0.37126,-0.307576 0.60959,-0.628866 0.4781,-0.644503 1.0142,-1.655769 1.30844,-2.468131 0.14072,-0.388522 0.25205,-0.820449 0.21924,-0.850565 -0.009,-0.0081 -0.1149,-0.02153 -0.23582,-0.02991 l -0.21984,-0.01526 -0.20341,0.397235 -0.20342,0.397236 0.0277,-0.233578 c 0.0634,-0.5341 -0.0314,-1.006184 -0.202,-1.006184 -0.13204,0 -0.45575,-0.142351 -0.55181,-0.242665 -0.39452,-0.411973 -0.34195,-1.353193 0.088,-1.575524 0.13184,-0.06818 0.23795,-0.04588 0.38977,0.08186 l 0.11453,0.09637 -0.0133,-0.302987 c -0.0147,-0.335509 -0.0981,-0.555042 -0.29687,-0.781596 l -0.111,-0.126522 0.1078,0.02538 c 0.23491,0.05537 0.55518,0.243722 0.71306,0.419312 0.27687,0.307951 0.32518,0.576758 0.21734,1.209429 -0.0831,0.48766 -0.0589,0.793011 0.0784,0.988744 0.062,0.08839 0.14264,0.159243 0.18885,0.165923 0.12193,0.01761 0.36784,-0.145854 0.51274,-0.34085 0.53094,-0.714474 0.72049,-1.217535 0.72224,-1.91675 0.002,-0.702551 -0.17421,-1.196916 -0.57928,-1.627396 C 76.20327,8.881253 75.4081,8.562327 74.31868,8.491073 l -0.36834,-0.02412 v 0.222289 c 0,0.425144 -0.22114,1.000954 -0.48124,1.253052 l -0.11885,0.115191 -0.0215,-0.495922 C 73.29755,8.842543 73.14207,8.323604 72.72262,7.538397 72.53898,7.19462 72.13737,6.58253 71.94701,6.356285 l -0.10268,-0.12202 -0.17017,0.211864 c -0.53824,0.670132 -0.63795,1.485768 -0.27088,2.215618 0.18039,0.358671 0.57888,0.830863 0.80423,0.952977 l 0.1078,0.05844 -0.37732,0.06071 C 70.77396,9.921194 69.74428,9.820664 68.75407,9.423035 67.57709,8.950403 66.86424,8.212147 66.5951,7.187107 66.5198,6.900456 66.5001,6.726741 66.48512,6.220096 c -0.0112,-0.382544 -0.002,-0.73129 0.0241,-0.916348 0.0881,-0.622764 0.32513,-1.3159 0.59319,-1.734941 0.07,-0.109371 0.11878,-0.198869 0.10849,-0.198869 -0.062,0 -1.82927,0.457364 -3.05284,0.790057 -0.79058,0.214956 -2.00339,0.537687 -2.69514,0.71718 -0.69173,0.179486 -1.49218,0.392134 -1.77876,0.472536 -0.8409,0.23593 -2.83425,0.773551 -3.61149,0.974041 -0.39528,0.101966 -0.7229,0.188055 -0.72805,0.191311 -0.005,0.0031 0.0878,0.55312 0.20663,1.221913 0.11878,0.668785 0.21598,1.225964 0.21598,1.238163 0,0.0122 0.0547,0.04197 0.12167,0.06618 0.20999,0.07594 0.44102,0.312726 0.57823,0.592672 0.2881,0.587769 0.229,1.308464 -0.15062,1.836877 l -0.12762,0.177629 0.0647,0.361602 c 0.0846,0.472356 0.10439,0.52313 0.20445,0.524095 0.2518,0.0024 0.61315,0.297789 0.68277,0.558083 0.0311,0.1162 0.0579,0.155521 0.0982,0.143786 0.0305,-0.0088 0.4031,-0.106187 0.82803,-0.216254 0.42493,-0.110057 0.98283,-0.254568 1.23976,-0.321132 0.25694,-0.06657 1.17059,-0.301715 2.03034,-0.522551 0.85975,-0.220842 1.76531,-0.456241 2.01237,-0.523117 1.13337,-0.306788 1.55104,-0.424385 1.86171,-0.52415 0.34507,-0.110815 1.04346,-0.276756 1.51619,-0.36024 0.34516,-0.06095 1.31636,-0.06166 1.59911,-0.0012 0.37891,0.08107 0.78262,0.215747 1.06869,0.356501 l 0.27811,0.136843 0.13018,-0.22261 c 0.0716,-0.122427 0.20071,-0.291819 0.2869,-0.376407 l 0.1567,-0.153796 -0.0683,0.179697 c -0.0959,0.25249 -0.18144,0.732359 -0.1807,1.014204 0.001,0.58863 0.18242,1.03043 0.71112,1.736869 0.57139,0.763481 0.77582,1.211702 0.81847,1.794533 0.0291,0.397833 -0.0455,0.742985 -0.25424,1.175334 -0.0891,0.184583 -0.16198,0.355173 -0.16198,0.379096 0,0.06062 0.82572,0.860689 1.36538,1.322962 l 0.44904,0.384638 0.10795,-0.06384 c 0.0594,-0.0351 0.16677,-0.102456 0.23865,-0.14966 z m -0.47184,-0.962735 c -0.12892,-0.420307 -0.054,-0.747005 0.25091,-1.093345 0.22846,-0.259551 0.52461,-0.38817 1.01556,-0.441075 l 0.20663,-0.02226 0.002,-0.186077 c 9.7e-4,-0.102345 0.0218,-0.233452 0.0465,-0.291362 0.0433,-0.101503 0.0471,-0.09375 0.10643,0.215616 0.069,0.360141 0.0809,0.953747 0.0225,1.121306 l -0.0385,0.110409 -0.17052,-0.176912 c -0.18646,-0.193439 -0.27516,-0.215168 -0.56105,-0.137418 -0.27683,0.07529 -0.72972,0.645824 -0.73885,0.930757 -0.002,0.04939 -0.0159,0.122174 -0.0317,0.161708 -0.0229,0.05717 -0.0454,0.01796 -0.10959,-0.191342 z M 57.55787,11.561909 C 57.46827,11.509629 57.40455,11.274685 57.22217,10.32345 57.13127,9.849106 56.96881,9.00714 56.86124,8.452423 56.75368,7.8977 56.66566,7.408907 56.66566,7.366212 c 0,-0.09864 0.10182,-0.164767 0.39529,-0.256717 0.30853,-0.09667 0.38214,-0.09302 0.49841,0.02472 0.0889,0.08998 0.12081,0.21132 0.3571,1.35655 0.32977,1.598222 0.47409,2.394477 0.47409,2.615675 0,0.144084 -0.0179,0.192749 -0.1019,0.276719 -0.1605,0.160504 -0.58437,0.264189 -0.73078,0.178757 z M 59.38458,11.0152 C 59.32818,10.9587 59.28402,10.836956 59.23804,10.610934 59.20184,10.433051 59.09441,9.931757 58.99928,9.49694 58.67419,8.011028 58.48593,7.12527 58.47006,7.006829 c -0.0174,-0.129747 0.0503,-0.231274 0.20875,-0.313233 0.0499,-0.02582 0.38147,-0.122482 0.73675,-0.214806 0.35529,-0.09233 0.78273,-0.206996 0.94987,-0.254822 0.50064,-0.143263 0.59004,-0.117533 0.70295,0.202304 0.0311,0.08796 0.22657,0.97655 0.43449,1.974646 0.44895,2.15514 0.45122,1.990952 -0.0296,2.133448 -1.13454,0.336251 -1.92178,0.561689 -1.96147,0.561689 -0.0256,0 -0.0828,-0.03636 -0.12727,-0.08086 z m 3.60566,-0.877785 C 62.82286,10.085075 62.77092,10.032069 62.7205,9.862275 62.6409,9.594102 61.87625,6.143504 61.87625,6.052272 c 0,-0.117112 0.0928,-0.228453 0.22471,-0.269496 0.41298,-0.128527 2.0736,-0.579941 2.13102,-0.579284 0.17864,0.0018 0.22541,0.09711 0.37977,0.772067 0.0813,0.355615 0.27379,1.188294 0.42768,1.850399 0.15389,0.662105 0.29059,1.271088 0.30378,1.353293 0.0281,0.175133 -0.0379,0.333085 -0.16684,0.39922 -0.0698,0.03582 -1.74968,0.493527 -2.04238,0.556483 -0.0494,0.01066 -0.1141,0.01178 -0.14375,0.0024 z M 72.61705,9.218039 C 72.05998,8.671825 71.90146,8.351252 71.90271,7.773487 c 8.4e-4,-0.345024 0.0391,-0.388478 0.13637,-0.154399 0.0431,0.103901 0.2238,0.382955 0.40144,0.620121 0.17764,0.237172 0.35673,0.502253 0.39799,0.589066 0.0643,0.135385 0.22244,0.760188 0.19864,0.785051 -0.005,0.0048 -0.19356,-0.17316 -0.4201,-0.395287 z m -14.52467,5.394077 c 0.13599,-0.03424 0.15712,-0.05149 0.14212,-0.116144 -0.01,-0.04173 -0.0534,-0.238932 -0.0971,-0.438167 l -0.0795,-0.36226 -0.19552,0.0544 c -0.1703,0.0474 -0.19276,0.064 -0.17408,0.128681 0.0118,0.04082 0.0493,0.240151 0.0833,0.44291 0.0473,0.282001 0.0735,0.364201 0.11142,0.349722 0.0273,-0.01038 0.12143,-0.03702 0.20928,-0.05915 z m 0.81506,-0.216083 c 0.0814,-0.0231 0.16216,-0.05433 0.17958,-0.0694 0.0232,-0.02008 -0.1344,-0.79318 -0.17292,-0.848177 -0.003,-0.0042 -0.0908,0.01778 -0.19546,0.04848 -0.16496,0.04837 -0.18799,0.06611 -0.17267,0.133071 0.01,0.04252 0.0528,0.234941 0.0958,0.42764 0.0429,0.192705 0.087,0.350367 0.0979,0.350367 0.0109,0 0.0864,-0.01888 0.16774,-0.04197 z m 0.95271,-0.248612 c 0.0811,-0.0243 0.14748,-0.05752 0.14748,-0.07376 0,-0.05493 -0.18559,-0.821492 -0.19889,-0.821492 -0.10815,0 -0.37607,0.08891 -0.37607,0.124796 0,0.05668 0.13704,0.735506 0.16236,0.804264 0.01,0.02677 0.0404,0.04004 0.0678,0.02949 0.0274,-0.01052 0.11623,-0.03901 0.19734,-0.06332 z m 0.85027,-0.216754 c 0.11874,-0.02991 0.15965,-0.05771 0.15965,-0.108431 0,-0.07288 -0.14306,-0.759451 -0.16251,-0.7799 -0.0141,-0.01477 -0.41245,0.07229 -0.41245,0.09016 0,0.01164 0.11944,0.567953 0.16263,0.757522 0.0211,0.09284 0.036,0.09522 0.25268,0.04064 z m 0.87214,-0.230798 c 0.16289,-0.04837 0.18424,-0.06545 0.16857,-0.134754 -0.0317,-0.140344 -0.16236,-0.758446 -0.16236,-0.768311 0,-0.0055 -0.0202,-0.0029 -0.0449,0.0055 -0.0247,0.0083 -0.11364,0.03269 -0.19764,0.05416 -0.10467,0.02677 -0.15283,0.05844 -0.15308,0.100592 -6e-4,0.106412 0.15496,0.798174 0.17951,0.798174 0.0129,0 0.10735,-0.02491 0.20992,-0.05535 z m 0.88868,-0.236359 c 0.0878,-0.02213 0.15965,-0.0603 0.15965,-0.08483 0,-0.05928 -0.14803,-0.787693 -0.16342,-0.804161 -0.0109,-0.01178 -0.3765,0.06888 -0.40652,0.08967 -0.007,0.0048 0.0249,0.19584 0.0711,0.424245 0.0565,0.279379 0.0996,0.415278 0.1318,0.415278 0.0263,0 0.11962,-0.01809 0.20742,-0.04022 z m 0.88475,-0.215186 0.19805,-0.0398 -0.0844,-0.41558 c -0.0464,-0.228567 -0.09,-0.421175 -0.0969,-0.428013 -0.0262,-0.02624 -0.39758,0.088 -0.41032,0.126199 -0.007,0.02213 0.0201,0.20467 0.0611,0.40563 0.041,0.200961 0.0745,0.371221 0.0745,0.378347 0,0.0205 0.0463,0.01568 0.25794,-0.02684 z m 0.8853,-0.233621 0.20785,-0.05776 -0.084,-0.398749 c -0.0462,-0.21931 -0.0885,-0.40329 -0.0941,-0.408837 -0.026,-0.02599 -0.41842,0.08008 -0.41844,0.113058 -4e-5,0.06696 0.15343,0.810103 0.16732,0.810103 0.007,0 0.107,-0.02599 0.22131,-0.05778 z m 10.9669,-0.406763 c 0,-0.264953 -0.007,-0.290082 -0.0947,-0.359352 -0.0521,-0.04095 -0.11618,-0.07448 -0.14247,-0.07448 -0.0839,0 -0.13093,0.145844 -0.11378,0.352629 0.0133,0.15981 0.0355,0.214933 0.11383,0.282328 0.0535,0.04607 0.12881,0.08375 0.16724,0.08375 0.0633,0 0.0699,-0.02666 0.0699,-0.284873 z M 70.95311,9.052156 c -0.59775,-0.814303 -0.59806,-1.994817 -8.4e-4,-2.899733 0.0773,-0.117182 0.30587,-0.380193 0.50782,-0.584459 0.33,-0.333802 0.37373,-0.366546 0.43184,-0.323417 0.0356,0.02641 0.29092,0.283322 0.56745,0.570962 0.57157,0.594529 0.84804,0.965177 1.13165,1.517115 l 0.19764,0.384644 0.20562,4.51e-4 0.20562,4.46e-4 0.0623,-0.206629 C 74.54552,6.571621 73.90806,5.322319 72.89031,4.822828 72.48235,4.62261 72.2292,4.556313 71.77485,4.530714 c -1.50444,-0.08477 -2.7086,1.068253 -2.7111,2.595955 -9.7e-4,0.598871 0.15968,1.002729 0.56041,1.408725 0.19155,0.194062 0.32548,0.292821 0.52673,0.38839 0.2149,0.102064 0.7367,0.275422 0.9008,0.29929 0.0165,0.0024 -0.0279,-0.07451 -0.0986,-0.170905 z M 77.68518,8.319322 C 77.90305,7.611538 78.0652,6.553759 77.98336,6.374134 77.90516,6.202511 77.08105,5.995568 76.45378,5.990051 l -0.36517,-0.0031 0.17967,-0.05192 c 0.29596,-0.08553 1.09829,-0.105584 1.43405,-0.03589 0.15626,0.03244 0.29037,0.05277 0.29802,0.0451 0.0206,-0.02056 -0.0564,-0.61092 -0.11992,-0.920094 -0.0682,-0.332095 -0.21429,-0.800953 -0.30539,-0.980283 -0.0668,-0.131402 -0.0734,-0.134754 -0.2687,-0.134754 -0.3924,0 -1.25449,0.224617 -1.68489,0.439008 -0.29099,0.144939 -0.0317,-0.03744 0.37531,-0.264002 0.24516,-0.136464 0.5862,-0.287422 0.84448,-0.373788 0.33289,-0.11132 0.43212,-0.158881 0.42846,-0.205321 -0.01,-0.120968 -0.43452,-0.698293 -0.75697,-1.028362 -0.3304,-0.338199 -0.33058,-0.338319 -0.48034,-0.318233 -0.16691,0.02237 -0.73416,0.285186 -0.99576,0.461308 -0.0934,0.0629 -0.26684,0.196805 -0.38543,0.297596 l -0.21561,0.183249 0.11704,-0.14922 C 74.74517,2.705863 75.21494,2.283844 75.50777,2.093297 75.65873,1.995077 75.78244,1.9033 75.7827,1.889364 75.78331,1.842934 75.29762,1.574768 74.98198,1.447492 74.64222,1.310495 74.11218,1.164947 73.81762,1.127771 l -0.18676,-0.02357 -0.2265,0.265654 c -0.2374,0.27845 -0.47914,0.671476 -0.62783,1.020741 -0.083,0.194899 -0.0867,0.198554 -0.0647,0.06315 0.0524,-0.322857 0.34466,-1.007533 0.53845,-1.261602 l 0.0862,-0.113003 -0.1332,-0.02202 c -0.45547,-0.07531 -1.2886,0.01066 -1.80418,0.186185 -0.18453,0.06281 -0.20201,0.07897 -0.26362,0.243577 -0.10136,0.270834 -0.16728,0.66974 -0.17068,1.032916 -0.003,0.271358 -0.01,0.310283 -0.0394,0.221434 C 70.9055,2.681953 70.8866,2.362853 70.8836,2.032157 70.8766,1.334992 70.9267,1.378778 70.42714,1.628686 70.06679,1.808969 69.5487,2.150821 69.30296,2.370458 l -0.1736,0.155159 0.0615,0.269514 c 0.0338,0.148232 0.10003,0.356898 0.14711,0.463701 0.0471,0.10679 0.0797,0.200111 0.0725,0.207352 -0.0212,0.02123 -0.18566,-0.242387 -0.33003,-0.529082 L 68.94675,2.67163 68.69969,2.930716 C 67.85,3.821757 67.37435,4.927753 67.37483,6.011329 67.37518,6.86295 67.62875,7.475792 68.2743,8.185404 L 68.4541,8.383048 68.365,8.185404 C 68.13056,7.665579 68.07942,6.956353 68.23155,6.334742 68.58399,4.894708 69.8901,3.719947 71.40932,3.47654 c 0.42516,-0.06811 1.11596,-0.02768 1.50949,0.08839 0.83205,0.245373 1.50871,0.779659 2.00565,1.583646 0.37631,0.608815 0.51915,1.180224 0.48964,1.95878 -0.0101,0.266818 -0.029,0.510931 -0.0419,0.542476 -0.0202,0.04921 0.0239,0.06064 0.31057,0.08048 0.18376,0.01276 0.41931,0.04619 0.52343,0.07433 0.46522,0.125806 0.91899,0.425632 1.17782,0.778243 0.15884,0.216374 0.15169,0.222622 0.30132,-0.263458 z m -1.48709,10.323111 c 0.13457,-0.242667 0.6688,-0.975555 1.17874,-1.617078 0.96118,-1.209182 1.40836,-1.813409 1.35029,-1.824528 -0.0282,-0.0055 -0.35034,0.04577 -0.71599,0.11369 -0.36563,0.06793 -0.66817,0.120169 -0.67229,0.116102 -0.004,-0.0042 0.30312,-0.395462 0.68276,-0.869765 1.09583,-1.369022 1.17882,-1.47524 3.00229,-3.842122 0.28398,-0.368621 0.43735,-0.551491 0.3918,-0.467157 -0.0107,0.01979 -0.13245,0.286579 -0.27062,0.592932 -0.27501,0.609755 -1.03622,2.261345 -1.33762,2.902199 -0.10469,0.222585 -0.18321,0.411835 -0.17449,0.420555 0.009,0.0087 0.36293,-0.0152 0.78714,-0.05319 0.42421,-0.03799 0.85619,-0.07646 0.95996,-0.08556 0.10376,-0.0091 0.1879,-0.0055 0.18697,0.0079 -0.001,0.01332 -0.14864,0.145637 -0.32826,0.293868 -0.17962,0.148232 -0.54838,0.463564 -0.81947,0.700736 -1.04941,0.918128 -1.46527,1.272181 -1.95465,1.664145 -0.27908,0.223526 -0.6287,0.515923 -0.77693,0.649779 -0.14824,0.133856 -0.47165,0.418342 -0.7187,0.632188 -0.24706,0.213854 -0.52831,0.463177 -0.625,0.554049 -0.0967,0.09087 -0.16237,0.14097 -0.14593,0.111319 z"
       id="path185" /><rect
       style="fill:#f8cecc;fill-opacity:1;stroke:#b85450;stroke-width:0.499998;stroke-dasharray:none;stroke-opacity:1"
       id="rect2-8-6-7"
       width="39.499985"
       height="10.950424"
       x="0.249999"
       y="70.25" /><rect
       style="fill:#f8cecc;fill-opacity:1;stroke:#b85450;stroke-width:0.499998;stroke-dasharray:none;stroke-opacity:1"
       id="rect2-8-6-7-5"
       width="39.499985"
       height="10.950424"
       x="100.25001"
       y="70.25" /></g></svg>
