<?xml version="1.0" encoding="UTF-8" standalone="no"?>
<!-- Created with Inkscape (http://www.inkscape.org/) -->

<svg
   width="140mm"
   height="130mm"
   viewBox="0 0 140 130"
   version="1.1"
   id="svg1"
   inkscape:version="1.4.2 (ebf0e940d0, 2025-05-08)"
   sodipodi:docname="step5.svg"
   xml:space="preserve"
   inkscape:export-filename="step5.png"
   inkscape:export-xdpi="300"
   inkscape:export-ydpi="300"
   xmlns:inkscape="http://www.inkscape.org/namespaces/inkscape"
   xmlns:sodipodi="http://sodipodi.sourceforge.net/DTD/sodipodi-0.dtd"
   xmlns="http://www.w3.org/2000/svg"
   xmlns:svg="http://www.w3.org/2000/svg"><sodipodi:namedview
     id="namedview1"
     pagecolor="#ffffff"
     bordercolor="#000000"
     borderopacity="0.25"
     inkscape:showpageshadow="2"
     inkscape:pageopacity="0.0"
     inkscape:pagecheckerboard="0"
     inkscape:deskcolor="#d1d1d1"
     inkscape:document-units="mm"
     inkscape:zoom="0.7071068"
     inkscape:cx="154.85638"
     inkscape:cy="444.06305"
     inkscape:window-width="1920"
     inkscape:window-height="1011"
     inkscape:window-x="0"
     inkscape:window-y="0"
     inkscape:window-maximized="1"
     inkscape:current-layer="svg1"
     inkscape:lockguides="false"
     showgrid="false" /><defs
     id="defs1"><marker
       style="overflow:visible"
       id="marker9"
       refX="0"
       refY="0"
       orient="auto-start-reverse"
       inkscape:stockid="Concave triangle arrow"
       markerWidth="1"
       markerHeight="1"
       viewBox="0 0 1 1"
       inkscape:isstock="true"
       inkscape:collect="always"
       preserveAspectRatio="xMidYMid"><path
         transform="scale(0.7)"
         d="M -2,-4 9,0 -2,4 c 2,-2.33 2,-5.66 0,-8 z"
         style="fill:context-stroke;fill-rule:evenodd;stroke:none"
         id="path9" /></marker><marker
       style="overflow:visible"
       id="ConcaveTriangle"
       refX="0"
       refY="0"
       orient="auto-start-reverse"
       inkscape:stockid="Concave triangle arrow"
       markerWidth="1"
       markerHeight="1"
       viewBox="0 0 1 1"
       inkscape:isstock="true"
       inkscape:collect="always"
       preserveAspectRatio="xMidYMid"><path
         transform="scale(0.7)"
         d="M -2,-4 9,0 -2,4 c 2,-2.33 2,-5.66 0,-8 z"
         style="fill:context-stroke;fill-rule:evenodd;stroke:none"
         id="path7" /></marker><linearGradient
       id="swatch2"
       inkscape:swatch="solid"><stop
         style="stop-color:#070505;stop-opacity:1;"
         offset="0"
         id="stop2" /></linearGradient><marker
       style="overflow:visible"
       id="marker1610"
       refX="0"
       refY="0"
       orient="auto"
       inkscape:stockid="Arrow2Mend"
       inkscape:isstock="true"
       viewBox="0 0 6.9304588 5.1962256"
       markerWidth="6.9304585"
       markerHeight="5.1962252"
       preserveAspectRatio="xMidYMid"><path
         transform="scale(-0.6)"
         d="M 8.7185878,4.0337352 -2.2072895,0.01601326 8.7185884,-4.0017078 c -1.7454984,2.3720609 -1.7354408,5.6174519 -6e-7,8.035443 z"
         style="fill:#850000;fill-opacity:1;fill-rule:evenodd;stroke:#850000;stroke-width:0.625;stroke-linejoin:round;stroke-opacity:1"
         id="path1608" /></marker></defs><rect
     style="fill:#f0f6fe;fill-opacity:0.69999999;stroke:#bbcce4;stroke-width:0.5;stroke-dasharray:2, 2;stroke-dashoffset:0;stroke-opacity:1"
     id="rect1-1-3-1"
     width="139.5"
     height="39.5"
     x="0.25"
     y="90.047211" /><g
     inkscape:label="Layer 1"
     inkscape:groupmode="layer"
     id="layer1"><rect
       style="fill:#fcebeb;fill-opacity:0.69999999;stroke:#e1afad;stroke-width:0.5;stroke-linejoin:round;stroke-miterlimit:10;stroke-dasharray:2, 2;stroke-dashoffset:0;stroke-opacity:1"
       id="rect4"
       width="139.5"
       height="39"
       x="0.25000191"
       y="50.797215"
       ry="0" /><rect
       style="fill:#fcebeb;fill-opacity:1;stroke:#070505;stroke-width:0.499999;stroke-dasharray:none;stroke-opacity:1"
       id="rect1"
       width="39.5"
       height="39.5"
       x="0.25"
       y="50.547215" /><rect
       style="fill:#f8cecc;fill-opacity:1;stroke:#b85450;stroke-width:0.499999;stroke-dasharray:none;stroke-opacity:1"
       id="rect2"
       width="39.5"
       height="9.9248314"
       x="0.25000381"
       y="70.547211" /><rect
       style="fill:#f0f6fe;fill-opacity:1;stroke:#070505;stroke-width:0.499999;stroke-dasharray:none;stroke-opacity:1"
       id="rect1-1"
       width="39.5"
       height="39.5"
       x="0.25"
       y="90.047211" /><rect
       style="fill:#dae8fc;fill-opacity:1;stroke:#6c8ebf;stroke-width:0.499999;stroke-dasharray:none;stroke-opacity:1"
       id="rect2-8"
       width="39.5"
       height="9.9248314"
       x="0.25000763"
       y="110.5472" /><rect
       style="fill:#fcebeb;fill-opacity:1;stroke:#070505;stroke-width:0.499999;stroke-dasharray:none;stroke-opacity:1"
       id="rect1-9"
       width="39.5"
       height="39.5"
       x="100.25"
       y="50.547215" /><rect
       style="fill:#f8cecc;fill-opacity:1;stroke:#b85450;stroke-width:0.499999;stroke-dasharray:none;stroke-opacity:1"
       id="rect2-7"
       width="39.5"
       height="9.9248314"
       x="100.25"
       y="70.547211" /><rect
       style="fill:#f0f6fe;fill-opacity:1;stroke:#070505;stroke-width:0.499999;stroke-dasharray:none;stroke-opacity:1"
       id="rect1-1-3"
       width="39.5"
       height="39.5"
       x="100.25"
       y="90.047211" /><rect
       style="fill:#dae8fc;fill-opacity:1;stroke:#6c8ebf;stroke-width:0.499999;stroke-dasharray:none;stroke-opacity:1"
       id="rect2-8-6"
       width="39.5"
       height="9.9248314"
       x="100.25002"
       y="110.5472" /><rect
       style="fill:none;fill-opacity:1;stroke:#666666;stroke-width:1;stroke-linejoin:round;stroke-miterlimit:10;stroke-dasharray:1, 1;stroke-dashoffset:0;stroke-opacity:1"
       id="rect3"
       width="14"
       height="79.000008"
       x="63"
       y="50.5"
       ry="2.2613726" /><text
       xml:space="preserve"
       style="font-style:normal;font-variant:normal;font-weight:normal;font-stretch:normal;font-size:5.64444px;font-family:'DejaVu Sans Mono';-inkscape-font-specification:'DejaVu Sans Mono, Normal';font-variant-ligatures:normal;font-variant-caps:normal;font-variant-numeric:normal;font-variant-east-asian:normal;text-align:start;writing-mode:lr-tb;direction:ltr;text-anchor:start;fill:#000000;fill-opacity:1;stroke:none;stroke-width:0.499999;stroke-linejoin:round;stroke-miterlimit:10;stroke-dasharray:2, 2;stroke-dashoffset:0;stroke-opacity:1"
       x="1.2559471"
       y="117.61388"
       id="text4"><tspan
         sodipodi:role="line"
         id="tspan7"
         x="1.2559471"
         y="117.61388">secret data</tspan></text><text
       xml:space="preserve"
       style="font-style:normal;font-variant:normal;font-weight:normal;font-stretch:normal;font-size:5.64444px;font-family:'DejaVu Sans Mono';-inkscape-font-specification:'DejaVu Sans Mono, Normal';font-variant-ligatures:normal;font-variant-caps:normal;font-variant-numeric:normal;font-variant-east-asian:normal;text-align:start;writing-mode:lr-tb;direction:ltr;text-anchor:start;fill:#000000;fill-opacity:1;stroke:none;stroke-width:0.499999;stroke-linejoin:round;stroke-miterlimit:10;stroke-dasharray:2, 2;stroke-dashoffset:0;stroke-opacity:1"
       x="104.74516"
       y="117.61388"
       id="text4-9"><tspan
         sodipodi:role="line"
         id="tspan8"
         x="104.74516"
         y="117.61388">3d9c 5d95</tspan></text><text
       xml:space="preserve"
       style="font-style:normal;font-variant:normal;font-weight:normal;font-stretch:normal;font-size:5.64444px;font-family:'DejaVu Sans Mono';-inkscape-font-specification:'DejaVu Sans Mono, Normal';font-variant-ligatures:normal;font-variant-caps:normal;font-variant-numeric:normal;font-variant-east-asian:normal;text-align:start;writing-mode:lr-tb;direction:ltr;text-anchor:start;fill:#000000;fill-opacity:1;stroke:none;stroke-width:0.499999;stroke-linejoin:round;stroke-miterlimit:10;stroke-dasharray:2, 2;stroke-dashoffset:0;stroke-opacity:1"
       x="4.6335125"
       y="77.613892"
       id="text4-9-0"><tspan
         sodipodi:role="line"
         id="tspan9"
         x="4.6335125"
         y="77.613892">2bf9 65d4</tspan></text><path
       d="M 31.447821,16.479629 H 8.552192 c -0.372395,0 -0.673403,0.301163 -0.673403,0.673406 v 22.895587 c 0,0.372437 0.301015,0.673431 0.673403,0.673431 h 22.895629 c 0.37239,0 0.673391,-0.301139 0.673391,-0.673431 V 17.153035 c 0,-0.372388 -0.301137,-0.673406 -0.673391,-0.673406 z M 30.774429,39.375265 H 9.225591 V 17.826417 H 30.774429 Z M 12.592582,36.681641 h 14.814834 c 0.372366,0 0.673391,-0.301163 0.673391,-0.673382 V 21.193447 c 0,-0.372388 -0.301166,-0.673406 -0.673391,-0.673406 H 12.592582 c -0.372393,0 -0.673394,0.301164 -0.673394,0.673406 v 14.814812 c 0,0.372363 0.301137,0.673382 0.673394,0.673382 z m 0.67339,-14.814812 H 26.734024 V 35.334877 H 13.265972 Z m 10.577117,1.544122 C 23.717077,23.284162 23.545966,23.21386 23.366984,23.21386 h -6.734 c -0.179175,0 -0.350238,0.07078 -0.476104,0.197091 l -1.347447,1.346787 c -0.125164,0.12606 -0.196631,0.297503 -0.196631,0.476121 v 6.733963 c 0,0.178425 0.07061,0.35028 0.196631,0.476122 l 1.347447,1.346812 c 0.126279,0.126303 0.297511,0.197091 0.476104,0.197091 h 6.734 c 0.179176,0 0.350264,-0.07054 0.476105,-0.197091 l 1.34681,-1.346812 c 0.126278,-0.126061 0.197163,-0.297139 0.197163,-0.476122 v -6.733963 c 0,-0.179152 -0.07061,-0.350254 -0.197163,-0.476121 z m 0.197164,8.278132 -0.952183,0.95217 h -6.176436 l -0.952181,-0.95217 v -6.17646 l 0.952181,-0.95217 h 6.176446 l 0.952182,0.95217 z m 4.713795,-12.51583 c 0,-0.371709 0.301555,-0.673406 0.673419,-0.673406 0.371728,0 0.673393,0.301527 0.673393,0.673406 0,0.371733 -0.301524,0.673406 -0.673393,0.673406 -0.371729,0 -0.673419,-0.301527 -0.673419,-0.673406 z m -18.855214,0 c 0,-0.371709 0.301673,-0.673406 0.673402,-0.673406 0.371718,0 0.67341,0.301527 0.67341,0.673406 0,0.371733 -0.301692,0.673406 -0.67341,0.673406 -0.371716,0 -0.673402,-0.301527 -0.673402,-0.673406 z m 18.855214,18.855176 c 0,-0.371733 0.301555,-0.673382 0.673419,-0.673382 0.371728,0 0.673393,0.301527 0.673393,0.673382 0,0.371733 -0.301524,0.673454 -0.673393,0.673454 -0.371729,0 -0.673419,-0.301527 -0.673419,-0.673454 z m -18.855214,0 c 0,-0.371733 0.301673,-0.673382 0.673402,-0.673382 0.371718,0 0.67341,0.301527 0.67341,0.673382 0,0.371733 -0.301692,0.673454 -0.67341,0.673454 -0.371716,0 -0.673402,-0.301527 -0.673402,-0.673454 z"
       id="path1570"
       style="fill:#477375;fill-opacity:1;stroke-width:0.2;stroke-miterlimit:4;stroke-dasharray:none" /><path
       d="m 138.8029,34.254368 v -1.547862 h 0.35076 c 0.46746,6.17e-4 0.84695,-0.378903 0.84634,-0.846331 V 21.08623 c -5.9e-4,-0.467473 -0.37945,-0.846354 -0.84634,-0.846354 h -38.30733 c -0.46805,0 -0.84692,0.378881 -0.84633,0.846354 v 10.773945 c 0,0.468045 0.3789,0.846948 0.84633,0.846331 h 0.35079 v 1.547862 c 0,0.468092 0.37885,0.846926 0.84632,0.846355 h 35.91311 c 0.46806,0 0.84695,-0.378881 0.84635,-0.846355 z m -0.49561,-7.533394 v 4.292823 h -0.70147 v -3.591315 z m -13.16813,-4.788389 -1.89798,1.89799 h -6.48235 l -1.89799,-1.89799 z m -23.44644,9.081212 v -4.292823 l 0.70147,0.701508 v 3.591315 z m 2.3948,-5.95e-4 v -3.942056 c 0,-0.224001 -0.0898,-0.439338 -0.24825,-0.597943 l -2.14643,-2.1464 v -2.394218 h 1.19709 l 2.74495,2.744938 c 0.33045,0.330445 0.86673,0.330445 1.19712,0 0.3304,-0.330378 0.3304,-0.866675 0,-1.197075 l -1.54784,-1.547863 h 2.3942 l 2.74493,2.744938 c 0.33039,0.330445 0.86675,0.330445 1.19711,0 0.3304,-0.330378 0.3304,-0.866675 0,-1.197075 l -1.54784,-1.547863 h 2.39421 l 3.34351,3.343498 c 0.15863,0.158627 0.37409,0.248274 0.59854,0.247954 h 7.18261 c 0.22468,-6.18e-4 0.43994,-0.08937 0.59855,-0.247954 l 3.34293,-3.342904 h 2.39422 l -1.54729,1.547269 c -0.33039,0.3304 -0.33039,0.866697 0,1.197075 0.3304,0.330445 0.86674,0.330445 1.19712,0 l 2.74496,-2.744938 h 2.3942 l -1.54787,1.547863 c -0.33037,0.3304 -0.33037,0.866697 0,1.197075 0.33042,0.330445 0.86675,0.330445 1.19711,0 l 2.74499,-2.744938 h 1.19708 v 2.394218 l -2.1464,2.1464 c -0.15863,0.158628 -0.24828,0.374103 -0.24764,0.598559 l -5.9e-4,3.94144 z m -1.19771,2.394812 v -0.701508 h 34.2204 v 0.701508 z"
       id="path1556"
       style="fill:#477375;fill-opacity:1;stroke:none;stroke-width:0.0999994;stroke-miterlimit:4;stroke-dasharray:none;stroke-opacity:1" /><path
       style="fill:none;fill-opacity:1;stroke:#477375;stroke-width:0.5;stroke-linecap:butt;stroke-linejoin:miter;stroke-miterlimit:4;stroke-dasharray:none;stroke-opacity:1;marker-start:url(#ConcaveTriangle);marker-end:url(#marker9)"
       d="M 94.00947,27.6703 H 42.50004"
       id="path5339" /><text
       xml:space="preserve"
       style="font-style:normal;font-weight:normal;font-size:7.69697px;line-height:1.25;font-family:sans-serif;letter-spacing:0px;word-spacing:0px;fill:#477375;fill-opacity:1;stroke:none;stroke-width:0.264583"
       x="12.345364"
       y="48.257454"
       id="text2804-2-3"><tspan
         sodipodi:role="line"
         id="tspan2802-9-6"
         x="12.345364"
         y="48.257454"
         style="font-style:normal;font-variant:normal;font-weight:bold;font-stretch:normal;font-size:7.69697px;font-family:'Noto Sans';-inkscape-font-specification:'Noto Sans Bold';fill:#477375;fill-opacity:1;stroke-width:0.264583">CPU</tspan></text><text
       xml:space="preserve"
       style="font-style:normal;font-weight:normal;font-size:7.69697px;line-height:1.25;font-family:sans-serif;letter-spacing:0px;word-spacing:0px;fill:#477375;fill-opacity:1;stroke:none;stroke-width:0.264583"
       x="108.38527"
       y="48.268993"
       id="text2804-2-7"><tspan
         sodipodi:role="line"
         x="108.38527"
         y="48.268993"
         style="font-style:normal;font-variant:normal;font-weight:bold;font-stretch:normal;font-size:7.69697px;font-family:'Noto Sans';-inkscape-font-specification:'Noto Sans Bold';fill:#477375;fill-opacity:1;stroke-width:0.264583"
         id="tspan988">DRAM</tspan></text><path
       style="fill:#477375;fill-opacity:1;stroke-width:0.264583"
       d="m 75.316089,25.664106 c -0.167997,-0.04933 -0.604607,-0.184527 -0.970249,-0.300472 -0.862054,-0.273366 -4.907602,-1.535911 -6.180846,-1.928924 -0.543517,-0.167776 -1.036156,-0.332862 -1.094748,-0.366867 -0.195175,-0.11327 -0.230089,-0.224225 -0.256797,-0.816029 -0.02732,-0.605372 -0.006,-0.691636 0.21057,-0.854755 0.06426,-0.04837 0.537267,-0.299436 1.05114,-0.557895 0.513872,-0.25846 1.168322,-0.591949 1.454332,-0.74109 l 0.520023,-0.27116 0.324454,0.0231 c 0.178451,0.01276 0.450215,0.03322 0.603915,0.04559 l 0.279461,0.02249 -0.566942,0.302679 c -0.73856,0.394305 -1.690418,0.926727 -1.815687,1.015602 -0.118009,0.08372 -0.131766,0.224738 -0.02737,0.280603 0.10874,0.0582 0.423903,0.150108 1.581566,0.461211 1.932939,0.519447 3.603194,0.974554 4.258315,1.1603 1.096845,0.310983 1.196255,0.289956 2.090262,-0.442204 0.299773,-0.2455 0.960359,-0.768895 1.467961,-1.163092 2.411911,-1.873059 2.406521,-1.868674 2.418161,-1.9663 0.0157,-0.131331 -0.0856,-0.186771 -0.53313,-0.291927 -0.782292,-0.183804 -2.288846,-0.45269 -2.537102,-0.452818 -0.08159,-3.5e-5 -0.210953,0.02593 -0.287484,0.05778 -0.176115,0.07322 -0.817819,0.365716 -1.302097,0.593505 -0.204807,0.09633 -0.378077,0.175156 -0.38503,0.175156 -0.0069,0 -0.177086,0.08086 -0.378059,0.179674 -0.394256,0.193856 -0.41863,0.202842 -0.365558,0.134753 0.01926,-0.02472 0.249565,-0.530047 0.511794,-1.122977 0.262228,-0.592926 0.538622,-1.199334 0.614212,-1.347566 l 0.137432,-0.269512 -0.0196,0.359352 c -0.02116,0.387984 -0.115429,0.923079 -0.224262,1.272752 -0.03739,0.120197 -0.06473,0.218552 -0.06069,0.218552 0.0211,0 0.60226,-0.2198 0.751256,-0.284143 0.09525,-0.04113 0.423709,-0.213346 0.72991,-0.382696 l 0.556713,-0.307902 0.402054,0.07595 c 0.221125,0.04179 0.790147,0.155468 1.264491,0.252659 0.47435,0.09718 1.18586,0.235851 1.58115,0.308149 1.13514,0.207606 1.13163,0.204078 1.13182,1.135846 0,0.410352 -0.0148,0.668992 -0.042,0.728656 -0.0232,0.05089 -0.29404,0.308759 -0.60191,0.573068 -1.12482,0.965659 -1.979374,1.701786 -2.485162,2.140757 -1.896933,1.646332 -2.615224,2.242796 -2.818046,2.340095 -0.277703,0.133225 -0.558765,0.136072 -0.988218,0.01 z m -1.41184,-1.666605 c 0.122048,-0.0874 0.180366,-0.149093 0.149965,-0.158639 -0.02736,-0.0086 -0.129439,-0.04124 -0.226849,-0.0726 -0.09741,-0.03136 -0.201329,-0.05699 -0.230947,-0.05699 -0.06965,0 -0.453647,0.263779 -0.406746,0.279415 0.03619,0.01206 0.481644,0.14404 0.503117,0.149063 0.0065,0.0012 0.101615,-0.06161 0.21146,-0.140265 z m -1.211082,-0.349342 c 0.20106,-0.150107 0.196903,-0.158224 -0.125821,-0.245579 l -0.216735,-0.05868 -0.186156,0.119804 c -0.102387,0.0659 -0.187095,0.128948 -0.188247,0.140111 -0.0017,0.01683 0.418262,0.15914 0.510917,0.17313 0.01534,0.0024 0.108053,-0.05566 0.206035,-0.128793 z m 4.960308,-0.224817 0.214064,-0.178148 -0.246459,-0.0734 c -0.135552,-0.04035 -0.266758,-0.0734 -0.29156,-0.0734 -0.07562,0 -0.479785,0.321465 -0.426652,0.339344 0.05904,0.01984 0.511282,0.158917 0.525983,0.161728 0.006,0.0012 0.106888,-0.07815 0.224624,-0.176124 z m -6.117543,-0.325311 c -0.02582,-0.0129 -0.147447,-0.05283 -0.270294,-0.08873 l -0.223359,-0.06528 -0.177599,0.122104 c -0.09767,0.06716 -0.170605,0.129243 -0.162052,0.137965 0.0086,0.0087 0.124292,0.05018 0.257217,0.09214 l 0.241671,0.07626 0.190674,-0.125511 c 0.125189,-0.08242 0.174559,-0.133562 0.143742,-0.148954 z m -1.346519,-0.230817 0.173527,-0.12338 -0.245514,-0.07186 c -0.135034,-0.0395 -0.269767,-0.07686 -0.299413,-0.08299 -0.02965,-0.0062 -0.131921,0.04493 -0.227287,0.113423 l -0.173383,0.124544 0.227285,0.07901 c 0.306469,0.106524 0.344213,0.103845 0.544785,-0.03878 z m 8.481347,-0.299043 0.210349,-0.170514 -0.246285,-0.07567 c -0.272968,-0.08388 -0.277315,-0.08284 -0.526465,0.125497 l -0.172376,0.144143 0.154412,0.03974 c 0.08493,0.02183 0.194833,0.05372 0.244247,0.07088 0.04939,0.01712 0.09793,0.03238 0.1078,0.03383 0.01,0.0012 0.112624,-0.07407 0.228315,-0.167853 z m -9.795402,-0.103677 c 0.104462,-0.07194 0.185454,-0.134964 0.179989,-0.140026 -0.0055,-0.0048 -0.142375,-0.04969 -0.304242,-0.09919 L 68.4568,22.135288 68.274964,22.26258 c -0.100017,0.07001 -0.181738,0.137124 -0.181616,0.149155 4.08e-4,0.02339 0.448919,0.173039 0.538496,0.179625 0.02948,0.0024 0.139058,-0.05493 0.243514,-0.126873 z m 10.774834,-0.704685 0.19616,-0.152729 -0.258466,-0.07943 -0.258458,-0.07943 -0.175417,0.146869 c -0.09648,0.08078 -0.165363,0.156944 -0.153074,0.169265 0.01234,0.01234 0.113999,0.04879 0.226029,0.08104 0.112035,0.03225 0.208957,0.06055 0.215384,0.06288 0.0065,0.0024 0.09995,-0.06448 0.207842,-0.148473 z m 0.879498,-0.736675 0.18082,-0.134754 -0.15222,-0.0445 c -0.32892,-0.09615 -0.36062,-0.0925 -0.52827,0.06067 l -0.155284,0.141871 0.173254,0.05325 c 0.25109,0.07716 0.28213,0.07222 0.4817,-0.07651 z m 0.78751,-0.677169 c 0.0989,-0.07104 0.17189,-0.141941 0.16223,-0.157561 -0.01,-0.01562 -0.12211,-0.04811 -0.24992,-0.07223 l -0.23237,-0.04384 -0.16427,0.134613 c -0.0903,0.07403 -0.15768,0.141193 -0.14963,0.149244 0.0168,0.01683 0.34213,0.1078 0.40934,0.114489 0.0247,0.0024 0.12574,-0.05367 0.22462,-0.124698 z M 68.919633,19.802827 c -0.08894,-0.02732 -0.514652,-0.130042 -0.946029,-0.228242 -0.431375,-0.09819 -1.433966,-0.341726 -2.227979,-0.541174 -0.794011,-0.199453 -1.742817,-0.425215 -2.108458,-0.501703 -0.661271,-0.138344 -0.663082,-0.138975 -0.341383,-0.120576 0.431613,0.02467 4.270263,0.08759 4.287587,0.07027 0.0074,-0.0074 -0.0603,-0.08751 -0.150633,-0.177829 -0.09033,-0.09033 -0.158686,-0.164229 -0.151913,-0.164229 0.105065,0 0.787308,0.147912 1.328319,0.28799 0.38061,0.09854 0.704595,0.179167 0.719959,0.179167 0.03451,0 -0.142478,-0.31854 -0.497959,-0.89619 -0.148974,-0.242075 -0.270862,-0.446805 -0.270862,-0.454952 0,-0.04588 1.099286,0.787603 2.275136,1.725106 0.584205,0.465776 0.727942,0.59629 0.65673,0.59629 -0.09026,0 -0.715566,-0.115232 -2.141293,-0.394588 -0.405167,-0.07939 -0.749615,-0.144366 -0.765435,-0.144396 -0.01582,-2.4e-5 0.09364,0.180228 0.24323,0.400564 0.149594,0.220335 0.267652,0.403664 0.262345,0.407402 -0.0053,0.0036 -0.08242,-0.01555 -0.171362,-0.04287 z m 4.696075,-0.470191 c -0.01108,-0.107071 -0.02764,-0.202227 -0.03687,-0.211459 -0.0093,-0.0093 -0.07954,0.02286 -0.15626,0.07128 -0.07671,0.04842 -0.242205,0.1399 -0.367756,0.203283 l -0.228277,0.115233 -0.23755,-0.230949 c -0.130658,-0.127026 -0.496286,-0.447715 -0.812516,-0.712652 -0.661527,-0.554228 -1.133945,-0.995648 -1.281099,-1.197041 -0.09477,-0.129705 -0.102415,-0.164508 -0.102555,-0.467158 -4.08e-4,-0.701694 -0.170142,-1.348632 -0.552807,-2.105799 -0.411602,-0.814413 -0.750975,-1.298859 -1.249573,-1.783726 -0.549237,-0.534118 -1.055415,-0.786637 -1.899051,-0.947394 -0.485484,-0.0925 -0.500915,-0.08986 -0.190331,0.03269 0.142231,0.05614 0.368624,0.180271 0.503092,0.275887 0.288387,0.205061 1.481534,1.381463 1.696434,1.672618 l 0.149357,0.20236 -0.0728,0.194567 c -0.169916,0.454138 -0.92919,1.467231 -1.747159,2.331225 -0.490343,0.517933 -0.662822,0.67085 -0.7937,0.703703 -0.109862,0.02756 -1.616457,-0.284602 -3.855302,-0.798842 l -0.267961,-0.06155 0.122707,-0.09324 c 0.422306,-0.320897 0.811767,-0.654591 1.360199,-1.165431 0.342965,-0.319457 0.645862,-0.586003 0.673105,-0.592316 0.0682,-0.01581 0.534643,0.08027 1.218779,0.251083 0.31623,0.07895 0.592938,0.146284 0.614908,0.149619 0.03535,0.0055 0.489854,-0.480037 0.676962,-0.722987 l 0.07006,-0.09099 -0.159907,-0.13882 c -0.08796,-0.07636 -0.374861,-0.302934 -0.637581,-0.503514 l -0.477667,-0.364678 -1.229251,0.333345 c -0.676088,0.183345 -1.625436,0.437716 -2.109664,0.565276 -2.212533,0.582841 -3.670325,0.96716 -4.357828,1.148853 -0.437315,0.115569 -0.776724,0.187597 -0.819714,0.173957 -0.105962,-0.03364 -0.130434,-0.111194 -0.24765,-0.78499 -0.058,-0.333423 -0.112779,-0.613537 -0.121712,-0.622474 -0.009,-0.009 -0.18231,0.0334 -0.385273,0.09416 -0.370247,0.110758 -0.551404,0.133841 -0.634847,0.08085 -0.02464,-0.01562 -0.07651,-0.205405 -0.115261,-0.421689 -0.183499,-1.024081 -0.4688,-2.679699 -0.4688,-2.720481 0,-0.02509 0.08008,-0.07402 0.177944,-0.108768 0.3448,-0.122454 0.505345,-0.32747 0.504034,-0.643634 -0.0017,-0.388673 -0.215367,-0.645527 -0.596841,-0.717187 -0.299403,-0.05626 -0.300748,-0.05681 -0.300748,-0.131275 0,-0.03702 -0.137446,-0.857192 -0.305448,-1.822562 -0.167996,-0.965371 -0.305449,-1.798205 -0.305449,-1.850747 0,-0.05252 0.0283,-0.119636 0.06288,-0.149118 0.06015,-0.05126 0.93669,-0.303102 3.045503,-0.875042 0.533639,-0.144728 1.261325,-0.343348 1.617083,-0.441383 0.355757,-0.09803 1.099615,-0.294666 1.653016,-0.436975 1.732667,-0.445544 3.034245,-0.791076 3.593514,-0.953972 0.764959,-0.222803 1.826487,-0.510328 2.910746,-0.788411 1.169442,-0.299918 1.14015,-0.290462 1.243464,-0.401438 0.300515,-0.322791 1.13171,-0.920938 1.623039,-1.167976 0.948919,-0.4771074 1.769538,-0.6733336 2.937024,-0.7022966 0.826928,-0.020503 1.414663,0.043964 2.030282,0.2228023 1.5267,0.4434573 2.80576,1.4509423 3.530871,2.7811693 0.463538,0.850373 0.685918,1.671032 0.763082,2.816004 0.08257,1.225222 -0.137123,2.397328 -0.745728,3.978768 l -0.200531,0.521062 -0.0048,0.628866 c -0.0042,0.576474 -0.0129,0.655803 -0.103663,0.952277 -0.180427,0.589633 -0.57478,1.328842 -0.939349,1.760824 -0.125708,0.14896 -0.174457,0.255305 -0.285125,0.62207 -0.185276,0.613995 -0.369002,1.039077 -0.747928,1.73049 -0.357026,0.651443 -0.526659,0.931853 -0.794206,1.312824 -0.583951,0.831528 -0.978922,1.324909 -1.483303,1.8529 l -0.328261,0.343621 z m -0.342997,-1.050765 0.130701,-0.08582 -0.0049,-0.432622 c -0.0046,-0.405049 0.0014,-0.445526 0.09453,-0.635148 0.07203,-0.146664 0.130448,-0.215373 0.211794,-0.249065 0.106524,-0.04415 0.117574,-0.04064 0.21373,0.06695 0.1812,0.202799 0.255638,0.624651 0.156649,0.887735 -0.04638,0.123268 0.371264,-0.307576 0.609594,-0.628866 0.478099,-0.644503 1.014204,-1.655769 1.30844,-2.468131 0.140725,-0.388522 0.252056,-0.820449 0.219239,-0.850565 -0.0088,-0.0081 -0.114896,-0.02153 -0.235815,-0.02991 l -0.219842,-0.01526 -0.203414,0.397235 -0.203415,0.397236 0.02774,-0.233578 c 0.06341,-0.5341 -0.03136,-1.006184 -0.202,-1.006184 -0.132046,0 -0.45575,-0.142351 -0.551813,-0.242665 -0.394517,-0.411973 -0.341951,-1.353193 0.08799,-1.575524 0.131836,-0.06818 0.237955,-0.04588 0.389767,0.08186 l 0.114531,0.09637 -0.01332,-0.302987 c -0.01472,-0.335509 -0.09811,-0.555042 -0.296867,-0.781596 l -0.110997,-0.126522 0.1078,0.02538 c 0.234903,0.05537 0.555179,0.243722 0.713053,0.419312 0.276876,0.307951 0.325185,0.576758 0.217339,1.209429 -0.08313,0.48766 -0.05891,0.793011 0.07838,0.988744 0.06201,0.08839 0.142647,0.159243 0.188852,0.165923 0.121936,0.01761 0.367844,-0.145854 0.512746,-0.34085 0.530933,-0.714474 0.720484,-1.217535 0.722233,-1.91675 0.0018,-0.702551 -0.174209,-1.196916 -0.579279,-1.627396 C 76.203485,8.881253 75.408315,8.562327 74.318891,8.491073 l -0.368336,-0.02412 v 0.222289 c 0,0.425144 -0.22114,1.000954 -0.481243,1.253052 l -0.11885,0.115191 -0.02153,-0.495922 C 73.297712,8.842543 73.142245,8.323604 72.722803,7.538397 72.539163,7.19462 72.137552,6.58253 71.947187,6.356285 l -0.102682,-0.12202 -0.170164,0.211864 c -0.538237,0.670132 -0.637955,1.485768 -0.270885,2.215618 0.180389,0.358671 0.578887,0.830863 0.804234,0.952977 l 0.1078,0.05844 -0.377319,0.06071 C 70.774142,9.921194 69.744463,9.820664 68.754245,9.423035 67.57727,8.950403 66.864417,8.212147 66.595277,7.187107 66.520007,6.900456 66.500257,6.726741 66.485304,6.220096 c -0.01122,-0.382544 -0.0021,-0.73129 0.02406,-0.916348 0.08814,-0.622764 0.325126,-1.3159 0.593186,-1.734941 0.06996,-0.109371 0.11878,-0.198869 0.108487,-0.198869 -0.06199,0 -1.829271,0.457364 -3.052842,0.790057 -0.790573,0.214956 -2.003384,0.537687 -2.695135,0.71718 -0.691726,0.179486 -1.492181,0.392134 -1.778763,0.472536 -0.840898,0.23593 -2.834245,0.773551 -3.611482,0.974041 -0.395286,0.101966 -0.72291,0.188055 -0.728052,0.191311 -0.0052,0.0031 0.08784,0.55312 0.206626,1.221913 0.11878,0.668785 0.215978,1.225964 0.215978,1.238163 0,0.0122 0.05475,0.04197 0.12167,0.06618 0.209997,0.07594 0.44102,0.312726 0.578236,0.592672 0.288097,0.587769 0.228998,1.308464 -0.150627,1.836877 l -0.127615,0.177629 0.06475,0.361602 c 0.08459,0.472356 0.104392,0.52313 0.204448,0.524095 0.251801,0.0024 0.61315,0.297789 0.682766,0.558083 0.03108,0.1162 0.05793,0.155521 0.09819,0.143786 0.03049,-0.0088 0.403092,-0.106187 0.828024,-0.216254 0.424934,-0.110057 0.982826,-0.254568 1.239764,-0.321132 0.256936,-0.06657 1.170586,-0.301715 2.030334,-0.522551 0.859748,-0.220842 1.765314,-0.456241 2.012368,-0.523117 1.133377,-0.306788 1.551048,-0.424385 1.861717,-0.52415 0.345063,-0.110815 1.043453,-0.276756 1.516186,-0.36024 0.345162,-0.06095 1.316362,-0.06166 1.599115,-0.0012 0.378903,0.08107 0.782617,0.215747 1.068685,0.356501 l 0.278113,0.136843 0.130182,-0.22261 c 0.07161,-0.122427 0.200705,-0.291819 0.286892,-0.376407 l 0.156706,-0.153796 -0.06828,0.179697 c -0.09594,0.25249 -0.181438,0.732359 -0.180701,1.014204 0.0015,0.58863 0.182422,1.03043 0.711118,1.736869 0.571387,0.763481 0.775818,1.211702 0.818468,1.794533 0.02911,0.397833 -0.04553,0.742985 -0.254233,1.175334 -0.08909,0.184583 -0.161987,0.355173 -0.161987,0.379096 0,0.06062 0.82572,0.860689 1.365383,1.322962 l 0.449037,0.384638 0.107954,-0.06384 c 0.05938,-0.0351 0.166771,-0.102456 0.238652,-0.14966 z m -0.471844,-0.962735 c -0.12892,-0.420307 -0.05395,-0.747005 0.25091,-1.093345 0.228465,-0.259551 0.52461,-0.38817 1.015567,-0.441075 l 0.206626,-0.02226 0.0017,-0.186077 c 9.65e-4,-0.102345 0.02184,-0.233452 0.04654,-0.291362 0.0433,-0.101503 0.04713,-0.09375 0.106426,0.215616 0.06902,0.360141 0.08094,0.953747 0.02254,1.121306 l -0.03848,0.110409 -0.170517,-0.176912 c -0.186455,-0.193439 -0.275162,-0.215168 -0.561051,-0.137418 -0.276823,0.07529 -0.729723,0.645824 -0.738845,0.930757 -0.0015,0.04939 -0.01586,0.122174 -0.03174,0.161708 -0.02294,0.05717 -0.04539,0.01796 -0.109595,-0.191342 z M 57.557964,11.561909 C 57.468324,11.509629 57.404642,11.274685 57.222263,10.32345 57.131323,9.849106 56.968897,9.00714 56.861329,8.452423 56.753767,7.8977 56.665749,7.408907 56.665749,7.366212 c 0,-0.09864 0.101826,-0.164767 0.395288,-0.256717 0.308529,-0.09667 0.382142,-0.09302 0.498409,0.02472 0.08887,0.08998 0.120814,0.21132 0.357107,1.35655 0.329765,1.598222 0.474084,2.394477 0.474084,2.615675 0,0.144084 -0.01792,0.192749 -0.101896,0.276719 -0.160503,0.160504 -0.584375,0.264189 -0.73078,0.178757 z M 59.38467,11.0152 C 59.32824,10.9587 59.284106,10.836956 59.238127,10.610934 59.201947,10.433051 59.094503,9.931757 58.999372,9.49694 58.674277,8.011028 58.486025,7.12527 58.470145,7.006829 c -0.0174,-0.129747 0.05026,-0.231274 0.20875,-0.313233 0.04994,-0.02582 0.381472,-0.122482 0.736756,-0.214806 0.355284,-0.09233 0.782725,-0.206996 0.949866,-0.254822 0.500645,-0.143263 0.59004,-0.117533 0.702949,0.202304 0.03105,0.08796 0.226574,0.97655 0.434492,1.974646 0.448948,2.15514 0.451223,1.990952 -0.02955,2.133448 -1.134534,0.336251 -1.92178,0.561689 -1.961473,0.561689 -0.02558,0 -0.08284,-0.03636 -0.127264,-0.08086 z m 3.605664,-0.877785 c -0.167385,-0.05234 -0.219319,-0.105346 -0.269743,-0.27514 -0.07964,-0.268173 -0.844246,-3.718771 -0.844246,-3.810003 0,-0.117112 0.09284,-0.228453 0.224707,-0.269496 0.412977,-0.128527 2.0736,-0.579941 2.131015,-0.579284 0.17864,0.0018 0.225409,0.09711 0.379776,0.772067 0.08132,0.355615 0.273787,1.188294 0.427678,1.850399 0.153893,0.662105 0.29059,1.271088 0.303778,1.353293 0.02809,0.175133 -0.03792,0.333085 -0.16684,0.39922 -0.06981,0.03582 -1.749682,0.493527 -2.042383,0.556483 -0.04941,0.01066 -0.114097,0.01178 -0.143742,0.0024 z M 72.617137,9.218039 C 72.06007,8.671825 71.901546,8.351252 71.9028,7.773487 c 8.44e-4,-0.345024 0.03913,-0.388478 0.136366,-0.154399 0.04315,0.103901 0.223805,0.382955 0.401443,0.620121 0.177639,0.237172 0.356732,0.502253 0.397993,0.589066 0.06434,0.135385 0.222437,0.760188 0.198642,0.785051 -0.0045,0.0048 -0.193564,-0.17316 -0.420103,-0.395287 z m -14.524665,5.394077 c 0.135987,-0.03424 0.15712,-0.05149 0.142123,-0.116144 -0.0097,-0.04173 -0.05337,-0.238932 -0.09709,-0.438167 l -0.07946,-0.36226 -0.195525,0.0544 c -0.170295,0.0474 -0.192758,0.064 -0.174076,0.128681 0.01178,0.04082 0.04929,0.240151 0.08331,0.44291 0.04733,0.282001 0.07351,0.364201 0.111418,0.349722 0.02725,-0.01038 0.121431,-0.03702 0.209283,-0.05915 z m 0.815055,-0.216083 c 0.08135,-0.0231 0.162164,-0.05433 0.179586,-0.0694 0.02321,-0.02008 -0.134403,-0.79318 -0.172923,-0.848177 -0.0028,-0.0042 -0.09077,0.01778 -0.195459,0.04848 -0.164961,0.04837 -0.187989,0.06611 -0.172675,0.133071 0.0097,0.04252 0.05283,0.234941 0.09578,0.42764 0.04295,0.192705 0.08703,0.350367 0.09794,0.350367 0.01094,0 0.08639,-0.01888 0.167743,-0.04197 z m 0.952709,-0.248612 c 0.08111,-0.0243 0.147483,-0.05752 0.147483,-0.07376 0,-0.05493 -0.185585,-0.821492 -0.198884,-0.821492 -0.10815,0 -0.376078,0.08891 -0.376078,0.124796 0,0.05668 0.137039,0.735506 0.162363,0.804264 0.0098,0.02677 0.04036,0.04004 0.06778,0.02949 0.02742,-0.01052 0.116228,-0.03901 0.197337,-0.06332 z m 0.850273,-0.216754 c 0.118738,-0.02991 0.159652,-0.05771 0.159652,-0.108431 0,-0.07288 -0.143061,-0.759451 -0.162509,-0.7799 -0.01407,-0.01477 -0.412453,0.07229 -0.412453,0.09016 0,0.01164 0.11944,0.567953 0.162629,0.757522 0.02115,0.09284 0.03597,0.09522 0.252681,0.04064 z m 0.872145,-0.230798 c 0.162891,-0.04837 0.184236,-0.06545 0.168562,-0.134754 -0.03175,-0.140344 -0.162352,-0.758446 -0.162352,-0.768311 0,-0.0055 -0.02021,-0.0029 -0.04492,0.0055 -0.02471,0.0083 -0.113647,0.03269 -0.197644,0.05416 -0.104672,0.02677 -0.152835,0.05844 -0.153079,0.100592 -6.03e-4,0.106412 0.15496,0.798174 0.179507,0.798174 0.0129,0 0.107351,-0.02491 0.209926,-0.05535 z M 62.47133,13.46351 c 0.08782,-0.02213 0.159654,-0.0603 0.159654,-0.08483 0,-0.05928 -0.148031,-0.787693 -0.16342,-0.804161 -0.01094,-0.01178 -0.376507,0.06888 -0.406523,0.08967 -0.0072,0.0048 0.02486,0.19584 0.07107,0.424245 0.05653,0.279379 0.09965,0.415278 0.131794,0.415278 0.02628,0 0.119622,-0.01809 0.207427,-0.04022 z m 0.88475,-0.215186 0.198052,-0.0398 -0.08444,-0.41558 c -0.04643,-0.228567 -0.09003,-0.421175 -0.09686,-0.428013 -0.02622,-0.02624 -0.397583,0.088 -0.41032,0.126199 -0.0074,0.02213 0.02012,0.20467 0.06112,0.40563 0.04098,0.200961 0.07452,0.371221 0.07452,0.378347 0,0.0205 0.04626,0.01568 0.25794,-0.02684 z m 0.885305,-0.233621 0.207848,-0.05776 -0.08397,-0.398749 c -0.04618,-0.21931 -0.08852,-0.40329 -0.09407,-0.408837 -0.02596,-0.02599 -0.418422,0.08008 -0.418446,0.113058 -3.8e-5,0.06696 0.153438,0.810103 0.16732,0.810103 0.0074,0 0.107001,-0.02599 0.221315,-0.05778 z M 75.208284,12.60794 c 0,-0.264953 -0.0066,-0.290082 -0.09469,-0.359352 -0.05207,-0.04095 -0.116186,-0.07448 -0.142475,-0.07448 -0.08386,0 -0.130925,0.145844 -0.113774,0.352629 0.01332,0.15981 0.03548,0.214933 0.11383,0.282328 0.05354,0.04607 0.128808,0.08375 0.167233,0.08375 0.06332,0 0.06987,-0.02666 0.06987,-0.284873 z M 70.953204,9.052156 C 70.355447,8.237853 70.355141,7.057339 70.95236,6.152423 71.02971,6.035241 71.258227,5.77223 71.460178,5.567964 c 0.330006,-0.333802 0.373728,-0.366546 0.431846,-0.323417 0.03556,0.02641 0.290914,0.283322 0.567444,0.570962 0.571569,0.594529 0.848044,0.965177 1.131648,1.517115 l 0.197644,0.384644 0.20562,4.51e-4 0.205625,4.46e-4 0.06228,-0.206629 C 74.545588,6.571621 73.908133,5.322319 72.890382,4.822828 72.482421,4.62261 72.229268,4.556313 71.774922,4.530714 c -1.504438,-0.08477 -2.708603,1.068253 -2.711104,2.595955 -9.66e-4,0.598871 0.159685,1.002729 0.560413,1.408725 0.191547,0.194062 0.325478,0.292821 0.526726,0.38839 0.214904,0.102064 0.736699,0.275422 0.900807,0.29929 0.01651,0.0024 -0.02788,-0.07451 -0.09864,-0.170905 z M 77.685272,8.319322 C 77.903142,7.611538 78.065291,6.553759 77.983448,6.374134 77.905248,6.202511 77.081137,5.995568 76.45387,5.990051 l -0.365172,-0.0031 0.179672,-0.05192 c 0.295963,-0.08553 1.09829,-0.105584 1.434046,-0.03589 0.156264,0.03244 0.290373,0.05277 0.298025,0.0451 0.02056,-0.02056 -0.05639,-0.61092 -0.119916,-0.920094 C 77.812305,4.692052 77.666232,4.223194 77.575132,4.043864 77.508382,3.912462 77.501702,3.90911 77.306427,3.90911 c -0.392393,0 -1.254482,0.224617 -1.684884,0.439008 -0.290994,0.144939 -0.03172,-0.03744 0.375303,-0.264002 0.245163,-0.136464 0.586207,-0.287422 0.844481,-0.373788 0.332896,-0.11132 0.432126,-0.158881 0.428459,-0.205321 C 77.260286,3.384039 76.835271,2.806714 76.512818,2.476645 76.182424,2.138446 76.182243,2.138326 76.03248,2.158412 c -0.166907,0.02237 -0.734164,0.285186 -0.995755,0.461308 -0.0934,0.0629 -0.266846,0.196805 -0.385432,0.297596 l -0.215611,0.183249 0.117042,-0.14922 C 74.745256,2.705863 75.215029,2.283844 75.507864,2.093297 75.658815,1.995077 75.782533,1.9033 75.782793,1.889364 75.783396,1.842934 75.297709,1.574768 74.982065,1.447492 74.642306,1.310495 74.112273,1.164947 73.81771,1.127771 l -0.18676,-0.02357 -0.226495,0.265654 c -0.237409,0.27845 -0.479149,0.671476 -0.627834,1.020741 -0.08296,0.194899 -0.08672,0.198554 -0.06472,0.06315 0.05244,-0.322857 0.344661,-1.007533 0.538449,-1.261602 l 0.08619,-0.113003 -0.133197,-0.02202 c -0.455474,-0.07531 -1.288603,0.01066 -1.804179,0.186185 -0.184537,0.06281 -0.202017,0.07897 -0.26362,0.243577 -0.101363,0.270834 -0.167282,0.66974 -0.170689,1.032916 -0.0025,0.271358 -0.0095,0.310283 -0.03935,0.221434 -0.01994,-0.05928 -0.03876,-0.37838 -0.04183,-0.709076 -0.0065,-0.697165 0.04308,-0.653379 -0.456455,-0.403471 -0.36035,0.180283 -0.878443,0.522135 -1.124184,0.741772 l -0.173599,0.155159 0.06151,0.269514 c 0.03383,0.148232 0.100031,0.356898 0.147111,0.463701 0.04708,0.10679 0.07968,0.200111 0.07245,0.207352 -0.02122,0.02123 -0.185656,-0.242387 -0.330033,-0.529082 L 68.946788,2.67163 68.699726,2.930716 c -0.84969,0.891041 -1.325339,1.997037 -1.324861,3.080613 3.54e-4,0.851621 0.253926,1.464463 0.899475,2.174075 l 0.179802,0.197644 -0.08913,-0.197644 C 68.130574,7.665579 68.079434,6.956353 68.231562,6.334742 68.583998,4.894708 69.890105,3.719947 71.409329,3.47654 c 0.425158,-0.06811 1.115962,-0.02768 1.509495,0.08839 0.832045,0.245373 1.508705,0.779659 2.005648,1.583646 0.376312,0.608815 0.519149,1.180224 0.489642,1.95878 -0.0101,0.266818 -0.029,0.510931 -0.04192,0.542476 -0.02021,0.04921 0.02388,0.06064 0.310562,0.08048 0.183768,0.01276 0.419312,0.04619 0.523438,0.07433 0.465221,0.125806 0.918985,0.425632 1.177818,0.778243 0.158839,0.216374 0.151687,0.222622 0.301317,-0.263458 z m -1.487089,10.323111 c 0.134571,-0.242667 0.668793,-0.975555 1.178741,-1.617078 0.961179,-1.209182 1.408352,-1.813409 1.350285,-1.824528 -0.02816,-0.0055 -0.350343,0.04577 -0.715986,0.11369 -0.365636,0.06793 -0.668172,0.120169 -0.672296,0.116102 -0.0042,-0.0042 0.30312,-0.395462 0.682765,-0.869765 1.095824,-1.369022 1.178819,-1.47524 3.002288,-3.842122 0.28398,-0.368621 0.43735,-0.551491 0.3918,-0.467157 -0.0107,0.01979 -0.13245,0.286579 -0.27062,0.592932 -0.27501,0.609755 -1.03622,2.261345 -1.33762,2.902199 -0.104686,0.222585 -0.183206,0.411835 -0.174492,0.420555 0.0087,0.0087 0.362934,-0.0152 0.787142,-0.05319 0.42421,-0.03799 0.85619,-0.07646 0.95996,-0.08556 0.10376,-0.0091 0.1879,-0.0055 0.18697,0.0079 -0.001,0.01332 -0.14864,0.145637 -0.32826,0.293868 -0.17962,0.148232 -0.54838,0.463564 -0.81947,0.700736 -1.049414,0.918128 -1.465272,1.272181 -1.95465,1.664145 -0.279078,0.223526 -0.628698,0.515923 -0.776928,0.649779 -0.148239,0.133856 -0.47165,0.418342 -0.718706,0.632188 -0.247056,0.213854 -0.528305,0.463177 -0.625001,0.554049 -0.09669,0.09087 -0.16236,0.14097 -0.145922,0.111319 z"
       id="path185" /></g></svg>
